<?xml version="1.0" encoding="utf-8" standalone="no"?>
<!DOCTYPE svg PUBLIC "-//W3C//DTD SVG 1.1//EN"
  "http://www.w3.org/Graphics/SVG/1.1/DTD/svg11.dtd">
<svg xmlns:xlink="http://www.w3.org/1999/xlink" width="333.086418pt" height="198.212937pt" viewBox="0 0 333.086418 198.212937" xmlns="http://www.w3.org/2000/svg" version="1.1">
 <metadata>
  <rdf:RDF xmlns:dc="http://purl.org/dc/elements/1.1/" xmlns:cc="http://creativecommons.org/ns#" xmlns:rdf="http://www.w3.org/1999/02/22-rdf-syntax-ns#">
   <cc:Work>
    <dc:type rdf:resource="http://purl.org/dc/dcmitype/StillImage"/>
    <dc:format>image/svg+xml</dc:format>
    <dc:creator>
     <cc:Agent>
      <dc:title>Kernels figure pipeline</dc:title>
     </cc:Agent>
    </dc:creator>
   </cc:Work>
  </rdf:RDF>
 </metadata>
 <defs>
  <style type="text/css">*{stroke-linejoin: round; stroke-linecap: butt}</style>
 </defs>
 <g id="figure_1">
  <g id="patch_1">
   <path d="M 0 198.212937 
L 333.086418 198.212937 
L 333.086418 0 
L 0 0 
L 0 198.212937 
z
" style="fill: none"/>
  </g>
  <g id="axes_1">
   <g id="patch_2">
    <path d="M 30.153438 170.532 
L 328.683438 170.532 
L 328.683438 1.44 
L 30.153438 1.44 
L 30.153438 170.532 
z
" style="fill: none"/>
   </g>
   <g id="matplotlib.axis_1">
    <g id="xtick_1">
     <g id="line2d_1">
      <defs>
       <path id="m4ae3e2b08d" d="M 0 0 
L 0 3 
" style="stroke: #d9d2c4; stroke-width: 0.8"/>
      </defs>
      <g>
       <use xlink:href="#m4ae3e2b08d" x="30.153438" y="170.532" style="fill: #d9d2c4; stroke: #d9d2c4; stroke-width: 0.8"/>
      </g>
     </g>
     <g id="text_1">
      <!-- 0.0 -->
      <g style="fill: #59616b" transform="translate(25.213438 182.6795) scale(0.08 -0.08)">
       <defs>
        <path id="STIXTwoText-30" d="M 1581 -70 
Q 1197 -70 928 99 
Q 659 269 492 563 
Q 326 858 249 1242 
Q 173 1626 173 2048 
Q 173 2656 336 3120 
Q 499 3584 816 3846 
Q 1133 4109 1594 4109 
Q 2010 4109 2323 3862 
Q 2637 3616 2816 3152 
Q 2995 2688 2995 2029 
Q 2995 1619 2915 1241 
Q 2835 864 2665 569 
Q 2496 275 2227 102 
Q 1958 -70 1581 -70 
z
M 1581 160 
Q 1958 160 2166 614 
Q 2374 1069 2374 1990 
Q 2374 2963 2172 3427 
Q 1971 3891 1574 3891 
Q 1197 3891 992 3430 
Q 787 2970 787 2016 
Q 787 1088 992 624 
Q 1197 160 1581 160 
z
" transform="scale(0.015625)"/>
        <path id="STIXTwoText-2e" d="M 774 -51 
Q 582 -51 489 57 
Q 397 166 397 326 
Q 397 493 499 611 
Q 602 730 781 730 
Q 966 730 1068 608 
Q 1171 486 1171 320 
Q 1171 173 1068 61 
Q 966 -51 774 -51 
z
" transform="scale(0.015625)"/>
       </defs>
       <use xlink:href="#STIXTwoText-30"/>
       <use xlink:href="#STIXTwoText-2e" transform="translate(49.499985 0)"/>
       <use xlink:href="#STIXTwoText-30" transform="translate(73.999969 0)"/>
      </g>
     </g>
    </g>
    <g id="xtick_2">
     <g id="line2d_2">
      <g>
       <use xlink:href="#m4ae3e2b08d" x="79.578934" y="170.532" style="fill: #d9d2c4; stroke: #d9d2c4; stroke-width: 0.8"/>
      </g>
     </g>
     <g id="text_2">
      <!-- 0.5 -->
      <g style="fill: #59616b" transform="translate(74.638934 182.6795) scale(0.08 -0.08)">
       <defs>
        <path id="STIXTwoText-35" d="M 1114 -83 
Q 742 -83 560 6 
Q 378 96 378 275 
Q 378 384 445 467 
Q 512 550 634 550 
Q 730 550 822 502 
Q 915 454 1014 393 
Q 1114 333 1235 285 
Q 1357 237 1510 237 
Q 1741 237 1936 326 
Q 2131 416 2249 614 
Q 2368 813 2368 1146 
Q 2368 1504 2227 1721 
Q 2086 1939 1849 2054 
Q 1613 2170 1315 2214 
Q 1018 2259 698 2266 
L 621 2362 
L 1018 4032 
L 2771 4032 
L 2669 3514 
L 1165 3514 
L 992 2784 
Q 1312 2758 1590 2704 
Q 1869 2650 2096 2554 
Q 2323 2458 2489 2301 
Q 2656 2144 2745 1923 
Q 2835 1702 2835 1402 
Q 2835 1030 2710 752 
Q 2586 474 2355 288 
Q 2125 102 1811 9 
Q 1498 -83 1114 -83 
z
" transform="scale(0.015625)"/>
       </defs>
       <use xlink:href="#STIXTwoText-30"/>
       <use xlink:href="#STIXTwoText-2e" transform="translate(49.499985 0)"/>
       <use xlink:href="#STIXTwoText-35" transform="translate(73.999969 0)"/>
      </g>
     </g>
    </g>
    <g id="xtick_3">
     <g id="line2d_3">
      <g>
       <use xlink:href="#m4ae3e2b08d" x="129.004431" y="170.532" style="fill: #d9d2c4; stroke: #d9d2c4; stroke-width: 0.8"/>
      </g>
     </g>
     <g id="text_3">
      <!-- 1.0 -->
      <g style="fill: #59616b" transform="translate(124.064431 182.6795) scale(0.08 -0.08)">
       <defs>
        <path id="STIXTwoText-31" d="M 2726 0 
L 512 0 
L 512 179 
Q 966 179 1152 275 
Q 1338 371 1338 608 
L 1338 3315 
Q 1338 3482 1293 3555 
Q 1248 3629 1126 3629 
Q 1062 3629 947 3616 
Q 832 3603 704 3580 
Q 576 3558 474 3526 
L 474 3738 
L 1715 4090 
L 1901 4090 
L 1901 608 
Q 1901 371 2093 275 
Q 2285 179 2726 179 
L 2726 0 
z
" transform="scale(0.015625)"/>
       </defs>
       <use xlink:href="#STIXTwoText-31"/>
       <use xlink:href="#STIXTwoText-2e" transform="translate(49.499985 0)"/>
       <use xlink:href="#STIXTwoText-30" transform="translate(73.999969 0)"/>
      </g>
     </g>
    </g>
    <g id="xtick_4">
     <g id="line2d_4">
      <g>
       <use xlink:href="#m4ae3e2b08d" x="178.429928" y="170.532" style="fill: #d9d2c4; stroke: #d9d2c4; stroke-width: 0.8"/>
      </g>
     </g>
     <g id="text_4">
      <!-- 1.5 -->
      <g style="fill: #59616b" transform="translate(173.489928 182.6795) scale(0.08 -0.08)">
       <use xlink:href="#STIXTwoText-31"/>
       <use xlink:href="#STIXTwoText-2e" transform="translate(49.499985 0)"/>
       <use xlink:href="#STIXTwoText-35" transform="translate(73.999969 0)"/>
      </g>
     </g>
    </g>
    <g id="xtick_5">
     <g id="line2d_5">
      <g>
       <use xlink:href="#m4ae3e2b08d" x="227.855424" y="170.532" style="fill: #d9d2c4; stroke: #d9d2c4; stroke-width: 0.8"/>
      </g>
     </g>
     <g id="text_5">
      <!-- 2.0 -->
      <g style="fill: #59616b" transform="translate(222.915424 182.6795) scale(0.08 -0.08)">
       <defs>
        <path id="STIXTwoText-32" d="M 2765 0 
L 243 0 
L 243 218 
L 1216 1190 
Q 1536 1517 1747 1782 
Q 1958 2048 2064 2317 
Q 2170 2586 2170 2918 
Q 2170 3277 1955 3491 
Q 1741 3706 1370 3706 
Q 1056 3706 835 3571 
Q 614 3437 435 3078 
L 282 3142 
Q 429 3610 749 3866 
Q 1069 4122 1536 4122 
Q 1901 4122 2176 3984 
Q 2451 3846 2608 3600 
Q 2765 3354 2765 3014 
Q 2765 2733 2646 2473 
Q 2528 2214 2294 1939 
Q 2061 1664 1722 1318 
L 877 518 
L 877 486 
L 1325 506 
L 2214 506 
Q 2470 506 2572 621 
Q 2675 736 2784 1024 
L 2970 1024 
L 2765 0 
z
" transform="scale(0.015625)"/>
       </defs>
       <use xlink:href="#STIXTwoText-32"/>
       <use xlink:href="#STIXTwoText-2e" transform="translate(49.499985 0)"/>
       <use xlink:href="#STIXTwoText-30" transform="translate(73.999969 0)"/>
      </g>
     </g>
    </g>
    <g id="xtick_6">
     <g id="line2d_6">
      <g>
       <use xlink:href="#m4ae3e2b08d" x="277.280921" y="170.532" style="fill: #d9d2c4; stroke: #d9d2c4; stroke-width: 0.8"/>
      </g>
     </g>
     <g id="text_6">
      <!-- 2.5 -->
      <g style="fill: #59616b" transform="translate(272.340921 182.6795) scale(0.08 -0.08)">
       <use xlink:href="#STIXTwoText-32"/>
       <use xlink:href="#STIXTwoText-2e" transform="translate(49.499985 0)"/>
       <use xlink:href="#STIXTwoText-35" transform="translate(73.999969 0)"/>
      </g>
     </g>
    </g>
    <g id="xtick_7">
     <g id="line2d_7">
      <g>
       <use xlink:href="#m4ae3e2b08d" x="326.706418" y="170.532" style="fill: #d9d2c4; stroke: #d9d2c4; stroke-width: 0.8"/>
      </g>
     </g>
     <g id="text_7">
      <!-- 3.0 -->
      <g style="fill: #59616b" transform="translate(321.766418 182.6795) scale(0.08 -0.08)">
       <defs>
        <path id="STIXTwoText-33" d="M 1094 -83 
Q 806 -83 652 -28 
Q 499 26 438 106 
Q 378 186 378 269 
Q 378 371 442 460 
Q 506 550 627 550 
Q 723 550 828 502 
Q 934 454 1049 393 
Q 1165 333 1283 285 
Q 1402 237 1523 237 
Q 1728 237 1907 310 
Q 2086 384 2201 560 
Q 2317 736 2317 1050 
Q 2317 1338 2157 1549 
Q 1997 1760 1731 1878 
Q 1466 1997 1158 1997 
L 1030 1997 
L 1030 2240 
L 1152 2240 
Q 1370 2240 1574 2349 
Q 1779 2458 1910 2656 
Q 2042 2854 2042 3110 
Q 2042 3392 1866 3549 
Q 1690 3706 1389 3706 
Q 1101 3706 909 3574 
Q 717 3443 550 3187 
L 403 3270 
Q 582 3686 876 3904 
Q 1171 4122 1562 4122 
Q 2054 4122 2323 3875 
Q 2592 3629 2592 3264 
Q 2592 2931 2397 2726 
Q 2202 2522 1901 2330 
L 1901 2310 
Q 2157 2234 2371 2090 
Q 2586 1946 2714 1738 
Q 2842 1530 2842 1242 
Q 2842 806 2598 508 
Q 2355 211 1958 64 
Q 1562 -83 1094 -83 
z
" transform="scale(0.015625)"/>
       </defs>
       <use xlink:href="#STIXTwoText-33"/>
       <use xlink:href="#STIXTwoText-2e" transform="translate(49.499985 0)"/>
       <use xlink:href="#STIXTwoText-30" transform="translate(73.999969 0)"/>
      </g>
     </g>
    </g>
    <g id="text_8">
     <!-- aspect ratio $\gamma=p/n$ -->
     <g style="fill: #1d2126" transform="translate(144.543438 194.792937) scale(0.09 -0.09)">
      <defs>
       <path id="STIXTwoText-61" d="M 1005 -45 
Q 634 -45 438 160 
Q 243 365 243 672 
Q 243 928 361 1104 
Q 480 1280 675 1401 
Q 870 1523 1097 1606 
Q 1325 1690 1542 1747 
Q 1760 1805 1926 1856 
L 1926 2138 
Q 1926 2554 1782 2730 
Q 1638 2906 1350 2906 
Q 1075 2906 998 2790 
Q 922 2675 922 2387 
Q 922 2240 848 2166 
Q 774 2093 640 2093 
Q 544 2093 457 2166 
Q 371 2240 371 2400 
Q 371 2579 508 2739 
Q 646 2899 899 3001 
Q 1152 3104 1498 3104 
Q 2022 3104 2240 2861 
Q 2458 2618 2458 2118 
L 2458 666 
Q 2458 467 2502 409 
Q 2547 352 2650 352 
Q 2739 352 2812 397 
Q 2886 442 2950 512 
L 3046 410 
Q 2886 179 2742 73 
Q 2598 -32 2355 -32 
Q 2131 -32 2064 96 
Q 1997 224 1965 461 
L 1926 538 
L 1926 1645 
Q 1638 1574 1382 1478 
Q 1126 1382 966 1228 
Q 806 1075 806 826 
Q 806 589 934 448 
Q 1062 307 1267 307 
Q 1434 307 1616 390 
Q 1798 474 1971 627 
L 2022 397 
L 1946 397 
Q 1798 269 1660 166 
Q 1523 64 1366 9 
Q 1210 -45 1005 -45 
z
" transform="scale(0.015625)"/>
       <path id="STIXTwoText-73" d="M 269 -51 
L 250 1050 
L 416 1050 
Q 518 557 716 361 
Q 915 166 1267 166 
Q 1510 166 1664 265 
Q 1818 365 1818 589 
Q 1818 742 1763 844 
Q 1709 947 1555 1052 
Q 1402 1158 1101 1306 
Q 806 1453 620 1590 
Q 435 1728 345 1894 
Q 256 2061 256 2298 
Q 256 2694 541 2899 
Q 826 3104 1235 3104 
Q 1478 3104 1632 3049 
Q 1786 2995 1907 2938 
L 1914 2938 
L 2022 3072 
L 2150 3072 
L 2170 2093 
L 1997 2093 
Q 1894 2547 1708 2716 
Q 1523 2886 1229 2886 
Q 1011 2886 860 2784 
Q 710 2682 710 2464 
Q 710 2278 883 2131 
Q 1056 1984 1459 1779 
Q 1754 1626 1952 1482 
Q 2150 1338 2252 1168 
Q 2355 998 2355 762 
Q 2355 461 2208 278 
Q 2061 96 1814 13 
Q 1568 -70 1280 -70 
Q 1005 -70 841 -12 
Q 678 45 550 96 
L 538 96 
L 403 -51 
L 269 -51 
z
" transform="scale(0.015625)"/>
       <path id="STIXTwoText-70" d="M 1760 -1408 
L 141 -1408 
L 141 -1229 
Q 442 -1229 525 -1129 
Q 608 -1030 608 -762 
L 608 2406 
Q 608 2592 566 2662 
Q 525 2733 365 2733 
Q 301 2733 230 2726 
Q 160 2720 160 2720 
L 160 2906 
L 966 3085 
L 1126 3085 
L 1126 2547 
L 1146 2547 
Q 1376 2816 1616 2960 
Q 1856 3104 2138 3104 
Q 2458 3104 2698 2921 
Q 2938 2739 3075 2416 
Q 3213 2093 3213 1670 
Q 3213 1126 3024 739 
Q 2835 352 2515 144 
Q 2195 -64 1811 -64 
Q 1632 -64 1469 -22 
Q 1306 19 1165 115 
L 1139 115 
L 1139 -723 
Q 1139 -928 1190 -1037 
Q 1242 -1146 1376 -1184 
Q 1510 -1222 1760 -1222 
L 1760 -1408 
z
M 1843 186 
Q 2182 186 2406 506 
Q 2630 826 2630 1491 
Q 2630 2099 2432 2384 
Q 2234 2669 1875 2669 
Q 1619 2669 1424 2534 
Q 1229 2400 1139 2278 
L 1139 608 
Q 1203 544 1299 441 
Q 1395 339 1529 262 
Q 1664 186 1843 186 
z
" transform="scale(0.015625)"/>
       <path id="STIXTwoText-65" d="M 1581 -64 
Q 1197 -64 886 118 
Q 576 301 397 656 
Q 218 1011 218 1523 
Q 218 2061 400 2409 
Q 582 2758 889 2931 
Q 1197 3104 1568 3104 
Q 2093 3104 2413 2739 
Q 2733 2374 2758 1702 
L 678 1702 
L 672 1939 
L 2157 1939 
Q 2150 2176 2073 2384 
Q 1997 2592 1849 2720 
Q 1702 2848 1472 2848 
Q 1101 2848 915 2557 
Q 730 2266 730 1734 
Q 730 1293 870 998 
Q 1011 704 1241 560 
Q 1472 416 1734 416 
Q 1997 416 2160 486 
Q 2323 557 2438 669 
Q 2554 781 2656 915 
L 2778 826 
Q 2694 646 2585 483 
Q 2477 320 2339 198 
Q 2202 77 2016 6 
Q 1830 -64 1581 -64 
z
" transform="scale(0.015625)"/>
       <path id="STIXTwoText-63" d="M 2611 947 
L 2733 858 
Q 2611 602 2454 390 
Q 2298 179 2067 57 
Q 1837 -64 1491 -64 
Q 1094 -64 806 128 
Q 518 320 364 662 
Q 211 1005 211 1446 
Q 211 1952 380 2323 
Q 550 2694 873 2899 
Q 1197 3104 1658 3104 
Q 2112 3104 2371 2905 
Q 2630 2707 2630 2426 
Q 2630 2285 2563 2211 
Q 2496 2138 2362 2138 
Q 2221 2138 2147 2211 
Q 2074 2285 2029 2393 
Q 1984 2502 1936 2611 
Q 1888 2720 1801 2793 
Q 1715 2867 1549 2867 
Q 1158 2867 937 2582 
Q 717 2298 717 1747 
Q 717 1165 957 790 
Q 1197 416 1690 416 
Q 2003 416 2198 544 
Q 2394 672 2611 947 
z
" transform="scale(0.015625)"/>
       <path id="STIXTwoText-74" d="M 1875 576 
L 1997 474 
Q 1875 301 1769 182 
Q 1664 64 1536 0 
Q 1408 -64 1203 -64 
Q 883 -64 736 125 
Q 589 314 589 742 
L 589 2726 
L 237 2726 
L 237 2874 
Q 461 3014 624 3254 
Q 787 3494 960 3904 
L 1120 3904 
L 1120 2995 
L 1843 2995 
L 1843 2726 
L 1120 2726 
L 1120 922 
Q 1120 582 1181 448 
Q 1242 314 1427 314 
Q 1581 314 1667 378 
Q 1754 442 1875 576 
z
" transform="scale(0.015625)"/>
       <path id="STIXTwoText-20" transform="scale(0.015625)"/>
       <path id="STIXTwoText-72" d="M 1786 0 
L 186 0 
L 186 186 
Q 397 186 496 221 
Q 595 256 624 349 
Q 653 442 653 621 
L 653 2381 
Q 653 2554 624 2640 
Q 595 2726 422 2726 
Q 326 2726 275 2720 
Q 224 2714 224 2714 
L 224 2893 
L 1018 3085 
L 1171 3085 
L 1171 2426 
L 1190 2426 
Q 1357 2662 1485 2816 
Q 1613 2970 1737 3046 
Q 1862 3123 2016 3123 
Q 2202 3123 2294 3027 
Q 2387 2931 2387 2765 
Q 2387 2586 2300 2502 
Q 2214 2419 2106 2419 
Q 2003 2419 1923 2473 
Q 1843 2528 1785 2582 
Q 1728 2637 1690 2637 
Q 1581 2637 1440 2470 
Q 1299 2304 1184 2112 
L 1184 653 
Q 1184 454 1235 352 
Q 1286 250 1417 218 
Q 1549 186 1786 186 
L 1786 0 
z
" transform="scale(0.015625)"/>
       <path id="STIXTwoText-69" d="M 1645 0 
L 205 0 
L 205 179 
Q 422 179 515 220 
Q 608 262 630 364 
Q 653 467 653 646 
L 653 2432 
Q 653 2637 582 2685 
Q 512 2733 371 2733 
Q 307 2733 259 2726 
Q 211 2720 211 2720 
L 211 2906 
L 1018 3085 
L 1184 3085 
L 1184 646 
Q 1184 461 1209 358 
Q 1235 256 1334 217 
Q 1434 179 1645 179 
L 1645 0 
z
M 928 3584 
Q 768 3584 665 3693 
Q 563 3802 563 3949 
Q 563 4096 662 4201 
Q 762 4307 928 4307 
Q 1094 4307 1193 4201 
Q 1293 4096 1293 3949 
Q 1293 3802 1193 3693 
Q 1094 3584 928 3584 
z
" transform="scale(0.015625)"/>
       <path id="STIXTwoText-6f" d="M 1651 -64 
Q 979 -64 598 355 
Q 218 774 218 1549 
Q 218 2016 397 2365 
Q 576 2714 899 2909 
Q 1222 3104 1651 3104 
Q 2310 3104 2691 2694 
Q 3072 2285 3072 1574 
Q 3072 1037 2889 672 
Q 2707 307 2387 121 
Q 2067 -64 1651 -64 
z
M 1677 192 
Q 1939 192 2118 313 
Q 2298 435 2390 729 
Q 2483 1024 2483 1542 
Q 2483 2131 2268 2496 
Q 2054 2861 1626 2861 
Q 1261 2861 1037 2553 
Q 813 2246 813 1632 
Q 813 870 1040 528 
Q 1267 186 1677 192 
z
" transform="scale(0.015625)"/>
       <path id="STIXGeneral-Italic-3b3" d="M 2803 2739 
L 1050 250 
Q 1037 32 1030 -73 
Q 1024 -179 998 -406 
Q 973 -634 934 -758 
Q 896 -883 835 -1033 
Q 774 -1184 681 -1251 
Q 589 -1318 467 -1318 
Q 224 -1318 224 -998 
Q 224 -845 329 -608 
Q 435 -371 608 -57 
Q 781 256 845 397 
Q 941 1293 941 1555 
Q 941 2381 634 2381 
Q 538 2381 422 2259 
Q 307 2138 224 1894 
L 122 1894 
Q 358 2784 755 2784 
Q 986 2784 1075 2589 
Q 1165 2394 1165 2029 
Q 1165 1850 1145 1632 
Q 1126 1414 1091 1148 
Q 1056 883 1050 813 
L 2189 2739 
L 2803 2739 
z
" transform="scale(0.015625)"/>
       <path id="STIXGeneral-Regular-3d" d="M 4077 2048 
L 307 2048 
L 307 2470 
L 4077 2470 
L 4077 2048 
z
M 4077 768 
L 307 768 
L 307 1190 
L 4077 1190 
L 4077 768 
z
" transform="scale(0.015625)"/>
       <path id="STIXGeneral-Italic-70" d="M 1376 2739 
L 1190 2099 
Q 1670 2822 2285 2822 
Q 2637 2822 2829 2611 
Q 3021 2400 3021 2022 
Q 3021 1235 2422 582 
Q 1824 -70 1120 -70 
Q 890 -70 678 38 
Q 422 -1018 422 -1024 
Q 422 -1126 508 -1168 
Q 595 -1210 819 -1210 
L 819 -1312 
L -480 -1312 
L -480 -1210 
Q -275 -1203 -188 -1120 
Q -102 -1037 -45 -806 
L 691 1958 
Q 794 2330 794 2413 
Q 794 2586 512 2586 
L 371 2586 
L 358 2682 
L 1357 2822 
Q 1389 2822 1389 2797 
Q 1382 2765 1376 2739 
z
M 2445 2003 
Q 2445 2285 2352 2416 
Q 2259 2547 2048 2547 
Q 1798 2547 1548 2329 
Q 1299 2112 1184 1818 
Q 1043 1453 905 953 
Q 768 454 768 294 
Q 768 186 854 118 
Q 941 51 1075 51 
Q 1574 51 2003 659 
Q 2445 1274 2445 2003 
z
" transform="scale(0.015625)"/>
       <path id="STIXGeneral-Regular-2f" d="M 1837 4326 
L 378 -90 
L -58 -90 
L 1408 4326 
L 1837 4326 
z
" transform="scale(0.015625)"/>
       <path id="STIXGeneral-Italic-6e" d="M 2944 749 
L 3034 666 
Q 2707 218 2534 80 
Q 2362 -58 2138 -58 
Q 2010 -58 1923 28 
Q 1837 115 1837 288 
Q 1837 390 1939 768 
L 2221 1805 
Q 2310 2150 2310 2310 
Q 2310 2496 2157 2496 
Q 1971 2496 1750 2275 
Q 1530 2054 1210 1587 
Q 998 1274 899 1024 
Q 800 774 570 0 
L 90 0 
L 704 2240 
Q 717 2304 717 2349 
Q 717 2445 630 2480 
Q 544 2515 301 2522 
L 301 2624 
Q 550 2675 857 2729 
Q 1165 2784 1338 2822 
L 1363 2810 
L 934 1414 
Q 1408 2170 1753 2496 
Q 2099 2822 2413 2822 
Q 2611 2822 2720 2716 
Q 2829 2611 2829 2432 
Q 2829 2272 2765 2048 
L 2406 749 
Q 2317 429 2317 358 
Q 2317 243 2419 243 
Q 2541 243 2810 582 
Q 2854 634 2944 749 
z
" transform="scale(0.015625)"/>
      </defs>
      <use xlink:href="#STIXTwoText-61" transform="translate(0 0.40625)"/>
      <use xlink:href="#STIXTwoText-73" transform="translate(47.999985 0.40625)"/>
      <use xlink:href="#STIXTwoText-70" transform="translate(87.499969 0.40625)"/>
      <use xlink:href="#STIXTwoText-65" transform="translate(141.199966 0.40625)"/>
      <use xlink:href="#STIXTwoText-63" transform="translate(187.59996 0.40625)"/>
      <use xlink:href="#STIXTwoText-74" transform="translate(232.199951 0.40625)"/>
      <use xlink:href="#STIXTwoText-20" transform="translate(263.699936 0.40625)"/>
      <use xlink:href="#STIXTwoText-72" transform="translate(287.199921 0.40625)"/>
      <use xlink:href="#STIXTwoText-61" transform="translate(325.199905 0.40625)"/>
      <use xlink:href="#STIXTwoText-74" transform="translate(373.19989 0.40625)"/>
      <use xlink:href="#STIXTwoText-69" transform="translate(404.699875 0.40625)"/>
      <use xlink:href="#STIXTwoText-6f" transform="translate(433.19986 0.40625)"/>
      <use xlink:href="#STIXTwoText-20" transform="translate(484.599854 0.40625)"/>
      <use xlink:href="#STIXGeneral-Italic-3b3" transform="translate(508.099838 0.40625)"/>
      <use xlink:href="#STIXGeneral-Regular-3d" transform="translate(563.539819 0.40625)"/>
      <use xlink:href="#STIXGeneral-Italic-70" transform="translate(646.4798 0.40625)"/>
      <use xlink:href="#STIXGeneral-Regular-2f" transform="translate(696.879794 0.40625)"/>
      <use xlink:href="#STIXGeneral-Italic-6e" transform="translate(724.679782 0.40625)"/>
     </g>
    </g>
   </g>
   <g id="matplotlib.axis_2">
    <g id="ytick_1">
     <g id="line2d_8">
      <defs>
       <path id="m20ce8566ff" d="M 0 0 
L -3 0 
" style="stroke: #d9d2c4; stroke-width: 0.8"/>
      </defs>
      <g>
       <use xlink:href="#m20ce8566ff" x="30.153438" y="170.532" style="fill: #d9d2c4; stroke: #d9d2c4; stroke-width: 0.8"/>
      </g>
     </g>
     <g id="text_9">
      <!-- 0.0 -->
      <g style="fill: #59616b" transform="translate(13.773438 173.35575) scale(0.08 -0.08)">
       <use xlink:href="#STIXTwoText-30"/>
       <use xlink:href="#STIXTwoText-2e" transform="translate(49.499985 0)"/>
       <use xlink:href="#STIXTwoText-30" transform="translate(73.999969 0)"/>
      </g>
     </g>
    </g>
    <g id="ytick_2">
     <g id="line2d_9">
      <g>
       <use xlink:href="#m20ce8566ff" x="30.153438" y="135.3045" style="fill: #d9d2c4; stroke: #d9d2c4; stroke-width: 0.8"/>
      </g>
     </g>
     <g id="text_10">
      <!-- 0.5 -->
      <g style="fill: #59616b" transform="translate(13.773438 138.12825) scale(0.08 -0.08)">
       <use xlink:href="#STIXTwoText-30"/>
       <use xlink:href="#STIXTwoText-2e" transform="translate(49.499985 0)"/>
       <use xlink:href="#STIXTwoText-35" transform="translate(73.999969 0)"/>
      </g>
     </g>
    </g>
    <g id="ytick_3">
     <g id="line2d_10">
      <g>
       <use xlink:href="#m20ce8566ff" x="30.153438" y="100.077" style="fill: #d9d2c4; stroke: #d9d2c4; stroke-width: 0.8"/>
      </g>
     </g>
     <g id="text_11">
      <!-- 1.0 -->
      <g style="fill: #59616b" transform="translate(13.773438 102.90075) scale(0.08 -0.08)">
       <use xlink:href="#STIXTwoText-31"/>
       <use xlink:href="#STIXTwoText-2e" transform="translate(49.499985 0)"/>
       <use xlink:href="#STIXTwoText-30" transform="translate(73.999969 0)"/>
      </g>
     </g>
    </g>
    <g id="ytick_4">
     <g id="line2d_11">
      <g>
       <use xlink:href="#m20ce8566ff" x="30.153438" y="64.8495" style="fill: #d9d2c4; stroke: #d9d2c4; stroke-width: 0.8"/>
      </g>
     </g>
     <g id="text_12">
      <!-- 1.5 -->
      <g style="fill: #59616b" transform="translate(13.773438 67.67325) scale(0.08 -0.08)">
       <use xlink:href="#STIXTwoText-31"/>
       <use xlink:href="#STIXTwoText-2e" transform="translate(49.499985 0)"/>
       <use xlink:href="#STIXTwoText-35" transform="translate(73.999969 0)"/>
      </g>
     </g>
    </g>
    <g id="ytick_5">
     <g id="line2d_12">
      <g>
       <use xlink:href="#m20ce8566ff" x="30.153438" y="29.622" style="fill: #d9d2c4; stroke: #d9d2c4; stroke-width: 0.8"/>
      </g>
     </g>
     <g id="text_13">
      <!-- 2.0 -->
      <g style="fill: #59616b" transform="translate(13.773438 32.44575) scale(0.08 -0.08)">
       <use xlink:href="#STIXTwoText-32"/>
       <use xlink:href="#STIXTwoText-2e" transform="translate(49.499985 0)"/>
       <use xlink:href="#STIXTwoText-30" transform="translate(73.999969 0)"/>
      </g>
     </g>
    </g>
    <g id="text_14">
     <!-- test excess risk -->
     <g style="fill: #1d2126" transform="translate(7.793437 113.904984) rotate(-90) scale(0.09 -0.09)">
      <defs>
       <path id="STIXTwoText-78" d="M 3085 0 
L 1747 0 
L 1747 186 
Q 1914 186 1981 214 
Q 2048 243 2048 326 
Q 2048 390 2003 461 
L 1600 1082 
L 1440 1363 
L 1338 1453 
L 634 2458 
Q 525 2618 448 2701 
Q 371 2784 288 2813 
Q 205 2842 70 2842 
L 70 3027 
L 1446 3027 
L 1446 2848 
Q 1139 2848 1139 2701 
Q 1139 2650 1177 2579 
Q 1216 2509 1289 2397 
Q 1363 2285 1472 2106 
L 1651 1773 
L 1754 1715 
L 2573 557 
Q 2707 365 2806 275 
Q 2906 186 3085 186 
L 3085 0 
z
M 1056 0 
L -13 0 
L -13 186 
Q 154 186 262 253 
Q 371 320 531 506 
L 1338 1555 
L 1536 1306 
L 1446 1306 
L 922 550 
Q 877 474 822 397 
Q 768 320 768 282 
Q 768 230 832 208 
Q 896 186 1056 186 
L 1056 0 
z
M 2464 2541 
L 1754 1626 
L 1568 1824 
L 1651 1824 
L 1952 2259 
Q 2080 2438 2131 2528 
Q 2182 2618 2182 2694 
Q 2182 2765 2128 2806 
Q 2074 2848 1920 2848 
L 1920 3027 
L 2976 3027 
L 2976 2842 
Q 2816 2842 2694 2762 
Q 2573 2682 2464 2541 
z
" transform="scale(0.015625)"/>
       <path id="STIXTwoText-6b" d="M 1645 0 
L 192 0 
L 192 186 
Q 480 186 560 266 
Q 640 346 640 608 
L 640 3808 
Q 640 4013 592 4073 
Q 544 4134 384 4134 
Q 320 4134 243 4128 
Q 166 4122 166 4122 
L 166 4294 
L 998 4518 
L 1171 4518 
L 1171 1696 
L 1210 1696 
L 2035 2515 
Q 2054 2534 2102 2588 
Q 2150 2643 2150 2720 
Q 2150 2784 2086 2809 
Q 2022 2835 1837 2835 
L 1837 3027 
L 3219 3027 
L 3219 2835 
Q 3066 2835 2947 2806 
Q 2829 2778 2707 2698 
Q 2586 2618 2410 2470 
Q 2234 2323 1965 2086 
L 1645 1824 
L 2771 557 
Q 2925 384 3024 304 
Q 3123 224 3219 205 
Q 3315 186 3450 186 
L 3450 0 
L 2035 0 
L 2035 186 
Q 2176 186 2230 202 
Q 2285 218 2285 262 
Q 2285 307 2262 348 
Q 2240 390 2214 416 
L 1210 1555 
L 1171 1555 
L 1171 582 
Q 1171 339 1257 262 
Q 1344 186 1645 186 
L 1645 0 
z
" transform="scale(0.015625)"/>
      </defs>
      <use xlink:href="#STIXTwoText-74"/>
      <use xlink:href="#STIXTwoText-65" transform="translate(31.499985 0)"/>
      <use xlink:href="#STIXTwoText-73" transform="translate(77.899979 0)"/>
      <use xlink:href="#STIXTwoText-74" transform="translate(117.399963 0)"/>
      <use xlink:href="#STIXTwoText-20" transform="translate(148.899948 0)"/>
      <use xlink:href="#STIXTwoText-65" transform="translate(172.399933 0)"/>
      <use xlink:href="#STIXTwoText-78" transform="translate(218.799927 0)"/>
      <use xlink:href="#STIXTwoText-63" transform="translate(266.699921 0)"/>
      <use xlink:href="#STIXTwoText-65" transform="translate(311.299911 0)"/>
      <use xlink:href="#STIXTwoText-73" transform="translate(357.699905 0)"/>
      <use xlink:href="#STIXTwoText-73" transform="translate(397.19989 0)"/>
      <use xlink:href="#STIXTwoText-20" transform="translate(436.699875 0)"/>
      <use xlink:href="#STIXTwoText-72" transform="translate(460.19986 0)"/>
      <use xlink:href="#STIXTwoText-69" transform="translate(498.199844 0)"/>
      <use xlink:href="#STIXTwoText-73" transform="translate(526.699829 0)"/>
      <use xlink:href="#STIXTwoText-6b" transform="translate(566.199814 0)"/>
     </g>
    </g>
   </g>
   <g id="line2d_13">
    <path d="M 38.061517 169.429226 
L 45.708086 168.163799 
L 52.455058 166.837301 
L 58.752233 165.369356 
L 64.149811 163.88423 
L 69.097591 162.287769 
L 73.595572 160.589026 
L 77.643756 158.805763 
L 81.242141 156.966866 
L 84.390729 155.114497 
L 87.539316 152.980813 
L 90.238105 150.876082 
L 92.936894 148.456372 
L 95.185885 146.144938 
L 97.434876 143.504173 
L 99.683866 140.458297 
L 101.483059 137.663176 
L 103.282252 134.477033 
L 105.081444 130.811646 
L 106.880637 126.550091 
L 108.230032 122.869512 
L 109.579426 118.677575 
L 110.928821 113.859759 
L 112.278215 108.264585 
L 113.62761 101.6874 
L 114.977004 93.844806 
L 116.326399 84.332749 
L 117.675793 72.554662 
L 118.57539 63.009331 
L 119.474986 51.661809 
L 120.374582 37.9485 
L 121.274179 21.04346 
L 122.197613 -1 
L 122.197613 -1 
" clip-path="url(#pb6a8a5eb44)" style="fill: none; stroke: #1d2126; stroke-width: 2.2; stroke-linecap: square"/>
   </g>
   <g id="line2d_14">
    <path d="M 136.440516 -1 
L 136.475819 -0.128769 
L 137.245984 15.277731 
L 138.016148 28.008073 
L 138.786312 38.69521 
L 140.326641 55.610466 
L 141.86697 68.364238 
L 143.407299 78.295702 
L 144.947627 86.226309 
L 146.487956 92.687861 
L 148.028285 98.039779 
L 149.568613 102.533675 
L 151.108942 106.35092 
L 152.649271 109.62553 
L 154.1896 112.458651 
L 155.729928 114.928038 
L 157.270257 117.094435 
L 159.58075 119.878532 
L 161.891243 122.211619 
L 164.201736 124.185406 
L 166.512229 125.868818 
L 168.822723 127.314625 
L 171.90338 128.942432 
L 174.984038 130.29421 
L 178.064695 131.425347 
L 181.915517 132.592081 
L 185.766339 133.540782 
L 190.387325 134.454803 
L 195.778475 135.283111 
L 201.93979 135.994333 
L 208.87127 136.57406 
L 217.343078 137.056431 
L 228.125379 137.424828 
L 241.218173 137.634779 
L 258.931953 137.676043 
L 284.347377 137.489257 
L 326.706418 136.94845 
L 326.706418 136.94845 
" clip-path="url(#pb6a8a5eb44)" style="fill: none; stroke: #8a4c1f; stroke-width: 2.2; stroke-linecap: square"/>
   </g>
   <g id="line2d_15">
    <path d="M 129.004431 170.532 
L 129.004431 1.44 
" clip-path="url(#pb6a8a5eb44)" style="fill: none; stroke-dasharray: 4.07,1.76; stroke-dashoffset: 0; stroke: #c2553a; stroke-width: 1.1"/>
   </g>
   <g id="patch_3">
    <path d="M 30.153438 170.532 
L 30.153438 1.44 
" style="fill: none; stroke: #d9d2c4; stroke-width: 0.8; stroke-linejoin: miter; stroke-linecap: square"/>
   </g>
   <g id="patch_4">
    <path d="M 30.153438 170.532 
L 328.683438 170.532 
" style="fill: none; stroke: #d9d2c4; stroke-width: 0.8; stroke-linejoin: miter; stroke-linecap: square"/>
   </g>
   <g id="text_15">
    <!-- interpolation -->
    <g style="fill: #c2553a" transform="translate(131.969961 17.65575) scale(0.08 -0.08)">
     <defs>
      <path id="STIXTwoText-6e" d="M 3552 0 
L 2074 0 
L 2074 179 
Q 2304 179 2403 220 
Q 2502 262 2524 364 
Q 2547 467 2547 646 
L 2547 1805 
Q 2547 2189 2460 2381 
Q 2374 2573 2240 2633 
Q 2106 2694 1958 2694 
Q 1773 2694 1625 2620 
Q 1478 2547 1360 2444 
Q 1242 2342 1139 2253 
L 1094 2566 
L 1190 2566 
Q 1453 2797 1686 2950 
Q 1920 3104 2221 3104 
Q 2656 3104 2867 2809 
Q 3078 2515 3078 1965 
L 3078 646 
Q 3078 467 3107 364 
Q 3136 262 3238 220 
Q 3341 179 3552 179 
L 3552 0 
z
M 1670 0 
L 205 0 
L 205 179 
Q 422 179 515 220 
Q 608 262 630 364 
Q 653 467 653 646 
L 653 2445 
Q 653 2618 582 2672 
Q 512 2726 384 2726 
Q 301 2726 256 2720 
Q 211 2714 211 2714 
L 211 2899 
L 1024 3085 
L 1171 3085 
L 1165 2496 
L 1184 2362 
L 1184 646 
Q 1184 467 1209 364 
Q 1235 262 1337 220 
Q 1440 179 1670 179 
L 1670 0 
z
" transform="scale(0.015625)"/>
      <path id="STIXTwoText-6c" d="M 1664 0 
L 192 0 
L 192 186 
Q 403 186 499 227 
Q 595 269 617 368 
Q 640 467 640 646 
L 640 3859 
Q 640 4058 566 4096 
Q 493 4134 371 4134 
Q 288 4134 227 4128 
Q 166 4122 166 4122 
L 166 4294 
L 1011 4518 
L 1171 4518 
L 1171 646 
Q 1171 461 1200 361 
Q 1229 262 1331 224 
Q 1434 186 1664 186 
L 1664 0 
z
" transform="scale(0.015625)"/>
     </defs>
     <use xlink:href="#STIXTwoText-69"/>
     <use xlink:href="#STIXTwoText-6e" transform="translate(28.499985 0)"/>
     <use xlink:href="#STIXTwoText-74" transform="translate(86.099976 0)"/>
     <use xlink:href="#STIXTwoText-65" transform="translate(117.59996 0)"/>
     <use xlink:href="#STIXTwoText-72" transform="translate(163.999954 0)"/>
     <use xlink:href="#STIXTwoText-70" transform="translate(201.999939 0)"/>
     <use xlink:href="#STIXTwoText-6f" transform="translate(255.699936 0)"/>
     <use xlink:href="#STIXTwoText-6c" transform="translate(307.09993 0)"/>
     <use xlink:href="#STIXTwoText-61" transform="translate(335.399918 0)"/>
     <use xlink:href="#STIXTwoText-74" transform="translate(383.399902 0)"/>
     <use xlink:href="#STIXTwoText-69" transform="translate(414.899887 0)"/>
     <use xlink:href="#STIXTwoText-6f" transform="translate(443.399872 0)"/>
     <use xlink:href="#STIXTwoText-6e" transform="translate(494.799866 0)"/>
    </g>
    <!-- threshold -->
    <g style="fill: #c2553a" transform="translate(131.969961 26.19275) scale(0.08 -0.08)">
     <defs>
      <path id="STIXTwoText-68" d="M 3558 0 
L 2086 0 
L 2086 186 
Q 2310 186 2406 230 
Q 2502 275 2528 371 
Q 2554 467 2554 621 
L 2554 1728 
Q 2554 1990 2515 2211 
Q 2477 2432 2352 2563 
Q 2227 2694 1965 2694 
Q 1766 2694 1561 2588 
Q 1357 2483 1094 2227 
L 1101 2579 
L 1190 2579 
Q 1491 2861 1731 2982 
Q 1971 3104 2227 3104 
Q 2502 3104 2672 2995 
Q 2842 2886 2931 2710 
Q 3021 2534 3053 2326 
Q 3085 2118 3085 1920 
L 3085 646 
Q 3085 390 3171 288 
Q 3258 186 3558 186 
L 3558 0 
z
M 1645 0 
L 192 0 
L 192 186 
Q 442 186 541 256 
Q 640 326 640 595 
L 640 3872 
Q 640 4038 547 4083 
Q 454 4128 326 4128 
Q 250 4128 195 4121 
Q 141 4115 141 4115 
L 141 4294 
L 998 4518 
L 1171 4518 
L 1171 621 
Q 1171 454 1196 358 
Q 1222 262 1324 224 
Q 1427 186 1645 186 
L 1645 0 
z
" transform="scale(0.015625)"/>
      <path id="STIXTwoText-64" d="M 1306 -51 
Q 947 -51 700 141 
Q 454 333 332 662 
Q 211 992 211 1402 
Q 211 1933 409 2313 
Q 608 2694 944 2899 
Q 1280 3104 1683 3104 
Q 1837 3104 1987 3065 
Q 2138 3027 2278 2950 
L 2304 2950 
L 2304 3789 
Q 2304 4000 2256 4064 
Q 2208 4128 2022 4128 
Q 1978 4128 1917 4121 
Q 1856 4115 1856 4115 
L 1856 4294 
L 2662 4518 
L 2835 4518 
L 2835 685 
Q 2835 435 2905 361 
Q 2976 288 3155 288 
L 3290 288 
L 3290 115 
L 2470 -32 
L 2323 -32 
L 2323 410 
L 2298 410 
Q 2118 250 1872 99 
Q 1626 -51 1306 -51 
z
M 1606 410 
Q 1830 410 1984 470 
Q 2138 531 2304 646 
L 2304 2336 
Q 2266 2534 2118 2691 
Q 1971 2848 1670 2848 
Q 1267 2848 1017 2553 
Q 768 2259 768 1651 
Q 768 992 982 701 
Q 1197 410 1606 410 
z
" transform="scale(0.015625)"/>
     </defs>
     <use xlink:href="#STIXTwoText-74"/>
     <use xlink:href="#STIXTwoText-68" transform="translate(31.499985 0)"/>
     <use xlink:href="#STIXTwoText-72" transform="translate(89.199982 0)"/>
     <use xlink:href="#STIXTwoText-65" transform="translate(127.199966 0)"/>
     <use xlink:href="#STIXTwoText-73" transform="translate(173.59996 0)"/>
     <use xlink:href="#STIXTwoText-68" transform="translate(213.099945 0)"/>
     <use xlink:href="#STIXTwoText-6f" transform="translate(270.799942 0)"/>
     <use xlink:href="#STIXTwoText-6c" transform="translate(322.199936 0)"/>
     <use xlink:href="#STIXTwoText-64" transform="translate(350.499924 0)"/>
    </g>
   </g>
   <g id="patch_5">
    <path d="M 110.673513 53.908044 
Q 113.978847 55.349516 117.28418 56.790988 
" style="fill: none; stroke: #59616b; stroke-width: 0.8; stroke-linecap: round"/>
   </g>
   <g id="text_16">
    <!-- too few directions: -->
    <g style="fill: #59616b" transform="translate(54.866186 40.8124) scale(0.08 -0.08)">
     <defs>
      <path id="STIXTwoText-66" d="M 1837 0 
L 115 0 
L 115 186 
Q 352 186 464 227 
Q 576 269 614 390 
Q 653 512 653 762 
L 653 2797 
Q 653 3162 669 3395 
Q 685 3629 729 3789 
Q 774 3949 858 4096 
Q 986 4320 1181 4441 
Q 1376 4563 1709 4563 
Q 1920 4563 2080 4512 
Q 2240 4461 2333 4361 
Q 2426 4262 2426 4115 
Q 2426 3974 2349 3907 
Q 2272 3840 2163 3840 
Q 2042 3840 1965 3920 
Q 1888 4000 1818 4090 
Q 1754 4179 1680 4252 
Q 1606 4326 1491 4326 
Q 1312 4326 1248 4163 
Q 1184 4000 1184 3597 
L 1184 762 
Q 1184 512 1235 390 
Q 1286 269 1427 227 
Q 1568 186 1837 186 
L 1837 0 
z
M 1965 2726 
L 166 2726 
L 166 2995 
L 1965 2995 
L 1965 2726 
z
" transform="scale(0.015625)"/>
      <path id="STIXTwoText-77" d="M 3450 -38 
L 3142 -38 
L 2432 1914 
L 2342 2093 
L 2240 2374 
Q 2163 2586 2096 2685 
Q 2029 2784 1939 2813 
Q 1850 2842 1709 2842 
L 1709 3027 
L 3046 3027 
L 3046 2842 
Q 2867 2842 2796 2800 
Q 2726 2758 2726 2682 
Q 2726 2624 2742 2557 
Q 2758 2490 2784 2419 
L 3302 1018 
L 3418 646 
L 3456 646 
L 3584 1018 
L 4090 2451 
Q 4096 2477 4112 2537 
Q 4128 2598 4128 2682 
Q 4128 2771 4038 2806 
Q 3949 2842 3770 2842 
L 3770 3027 
L 4877 3027 
L 4877 2842 
Q 4691 2842 4595 2755 
Q 4499 2669 4403 2419 
L 3450 -38 
z
M 1690 -38 
L 1395 -38 
L 435 2374 
Q 352 2573 281 2672 
Q 211 2771 121 2806 
Q 32 2842 -109 2842 
L -109 3027 
L 1267 3027 
L 1267 2842 
Q 1075 2842 1001 2800 
Q 928 2758 928 2682 
Q 928 2618 950 2560 
Q 973 2502 998 2432 
L 1555 1018 
L 1670 646 
L 1715 646 
L 1850 1018 
L 2336 2246 
L 2547 1824 
L 2438 1824 
L 1690 -38 
z
" transform="scale(0.015625)"/>
      <path id="STIXTwoText-3a" d="M 838 -51 
Q 646 -51 553 57 
Q 461 166 461 326 
Q 461 493 563 611 
Q 666 730 845 730 
Q 1030 730 1132 608 
Q 1235 486 1235 320 
Q 1235 173 1132 61 
Q 1030 -51 838 -51 
z
M 838 2253 
Q 646 2253 553 2361 
Q 461 2470 461 2630 
Q 461 2797 563 2915 
Q 666 3034 845 3034 
Q 1030 3034 1132 2912 
Q 1235 2790 1235 2624 
Q 1235 2477 1132 2365 
Q 1030 2253 838 2253 
z
" transform="scale(0.015625)"/>
     </defs>
     <use xlink:href="#STIXTwoText-74"/>
     <use xlink:href="#STIXTwoText-6f" transform="translate(31.499985 0)"/>
     <use xlink:href="#STIXTwoText-6f" transform="translate(82.899979 0)"/>
     <use xlink:href="#STIXTwoText-20" transform="translate(134.299973 0)"/>
     <use xlink:href="#STIXTwoText-66" transform="translate(157.799957 0)"/>
     <use xlink:href="#STIXTwoText-65" transform="translate(188.499954 0)"/>
     <use xlink:href="#STIXTwoText-77" transform="translate(234.899948 0)"/>
     <use xlink:href="#STIXTwoText-20" transform="translate(309.799942 0)"/>
     <use xlink:href="#STIXTwoText-64" transform="translate(333.299927 0)"/>
     <use xlink:href="#STIXTwoText-69" transform="translate(387.199921 0)"/>
     <use xlink:href="#STIXTwoText-72" transform="translate(415.699905 0)"/>
     <use xlink:href="#STIXTwoText-65" transform="translate(453.69989 0)"/>
     <use xlink:href="#STIXTwoText-63" transform="translate(500.099884 0)"/>
     <use xlink:href="#STIXTwoText-74" transform="translate(544.699875 0)"/>
     <use xlink:href="#STIXTwoText-69" transform="translate(576.19986 0)"/>
     <use xlink:href="#STIXTwoText-6f" transform="translate(604.699844 0)"/>
     <use xlink:href="#STIXTwoText-6e" transform="translate(656.099838 0)"/>
     <use xlink:href="#STIXTwoText-73" transform="translate(713.699829 0)"/>
     <use xlink:href="#STIXTwoText-3a" transform="translate(753.199814 0)"/>
    </g>
    <!-- variance explodes -->
    <g style="fill: #59616b" transform="translate(54.866186 49.3494) scale(0.08 -0.08)">
     <defs>
      <path id="STIXTwoText-76" d="M 1696 -38 
L 1389 -38 
L 435 2374 
Q 352 2573 288 2672 
Q 224 2771 141 2806 
Q 58 2842 -83 2842 
L -83 3027 
L 1267 3027 
L 1267 2842 
Q 1082 2842 1008 2800 
Q 934 2758 934 2682 
Q 934 2618 953 2560 
Q 973 2502 998 2432 
L 1542 1005 
L 1664 621 
L 1702 621 
L 1837 1011 
L 2387 2458 
Q 2394 2483 2413 2537 
Q 2432 2592 2432 2669 
Q 2432 2778 2336 2810 
Q 2240 2842 2067 2842 
L 2067 3027 
L 3187 3027 
L 3187 2842 
Q 3002 2842 2902 2755 
Q 2803 2669 2707 2419 
L 1696 -38 
z
" transform="scale(0.015625)"/>
     </defs>
     <use xlink:href="#STIXTwoText-76"/>
     <use xlink:href="#STIXTwoText-61" transform="translate(48.099991 0)"/>
     <use xlink:href="#STIXTwoText-72" transform="translate(96.099976 0)"/>
     <use xlink:href="#STIXTwoText-69" transform="translate(134.09996 0)"/>
     <use xlink:href="#STIXTwoText-61" transform="translate(162.599945 0)"/>
     <use xlink:href="#STIXTwoText-6e" transform="translate(210.59993 0)"/>
     <use xlink:href="#STIXTwoText-63" transform="translate(268.199921 0)"/>
     <use xlink:href="#STIXTwoText-65" transform="translate(312.799911 0)"/>
     <use xlink:href="#STIXTwoText-20" transform="translate(359.199905 0)"/>
     <use xlink:href="#STIXTwoText-65" transform="translate(382.69989 0)"/>
     <use xlink:href="#STIXTwoText-78" transform="translate(429.099884 0)"/>
     <use xlink:href="#STIXTwoText-70" transform="translate(476.999878 0)"/>
     <use xlink:href="#STIXTwoText-6c" transform="translate(530.699875 0)"/>
     <use xlink:href="#STIXTwoText-6f" transform="translate(558.999863 0)"/>
     <use xlink:href="#STIXTwoText-64" transform="translate(610.399857 0)"/>
     <use xlink:href="#STIXTwoText-65" transform="translate(664.29985 0)"/>
     <use xlink:href="#STIXTwoText-73" transform="translate(710.699844 0)"/>
    </g>
   </g>
   <g id="patch_6">
    <path d="M 240.633831 84.649092 
Q 246.381385 110.190781 252.128939 135.732471 
" style="fill: none; stroke: #8a4c1f; stroke-width: 0.8; stroke-linecap: round"/>
   </g>
   <g id="text_17">
    <!-- extra directions spread the -->
    <g style="fill: #8a4c1f" transform="translate(193.257577 70.4035) scale(0.08 -0.08)">
     <use xlink:href="#STIXTwoText-65"/>
     <use xlink:href="#STIXTwoText-78" transform="translate(46.399994 0)"/>
     <use xlink:href="#STIXTwoText-74" transform="translate(94.299988 0)"/>
     <use xlink:href="#STIXTwoText-72" transform="translate(125.799973 0)"/>
     <use xlink:href="#STIXTwoText-61" transform="translate(163.799957 0)"/>
     <use xlink:href="#STIXTwoText-20" transform="translate(211.799942 0)"/>
     <use xlink:href="#STIXTwoText-64" transform="translate(235.299927 0)"/>
     <use xlink:href="#STIXTwoText-69" transform="translate(289.199921 0)"/>
     <use xlink:href="#STIXTwoText-72" transform="translate(317.699905 0)"/>
     <use xlink:href="#STIXTwoText-65" transform="translate(355.69989 0)"/>
     <use xlink:href="#STIXTwoText-63" transform="translate(402.099884 0)"/>
     <use xlink:href="#STIXTwoText-74" transform="translate(446.699875 0)"/>
     <use xlink:href="#STIXTwoText-69" transform="translate(478.19986 0)"/>
     <use xlink:href="#STIXTwoText-6f" transform="translate(506.699844 0)"/>
     <use xlink:href="#STIXTwoText-6e" transform="translate(558.099838 0)"/>
     <use xlink:href="#STIXTwoText-73" transform="translate(615.699829 0)"/>
     <use xlink:href="#STIXTwoText-20" transform="translate(655.199814 0)"/>
     <use xlink:href="#STIXTwoText-73" transform="translate(678.699799 0)"/>
     <use xlink:href="#STIXTwoText-70" transform="translate(718.199783 0)"/>
     <use xlink:href="#STIXTwoText-72" transform="translate(771.89978 0)"/>
     <use xlink:href="#STIXTwoText-65" transform="translate(809.899765 0)"/>
     <use xlink:href="#STIXTwoText-61" transform="translate(856.299759 0)"/>
     <use xlink:href="#STIXTwoText-64" transform="translate(904.299744 0)"/>
     <use xlink:href="#STIXTwoText-20" transform="translate(958.199738 0)"/>
     <use xlink:href="#STIXTwoText-74" transform="translate(981.699722 0)"/>
     <use xlink:href="#STIXTwoText-68" transform="translate(1013.199707 0)"/>
     <use xlink:href="#STIXTwoText-65" transform="translate(1070.899704 0)"/>
    </g>
    <!-- minimum-norm solution -->
    <g style="fill: #8a4c1f" transform="translate(193.257577 78.9405) scale(0.08 -0.08)">
     <defs>
      <path id="STIXTwoText-6d" d="M 3520 0 
L 2003 0 
L 2003 186 
Q 2234 186 2336 230 
Q 2438 275 2467 396 
Q 2496 518 2496 742 
L 2496 2010 
Q 2496 2419 2352 2556 
Q 2208 2694 1984 2694 
Q 1805 2694 1648 2617 
Q 1491 2541 1363 2438 
Q 1235 2336 1146 2246 
L 1094 2566 
L 1190 2566 
Q 1453 2790 1696 2947 
Q 1939 3104 2266 3104 
Q 2554 3104 2730 2937 
Q 2906 2771 2995 2522 
Q 3008 2502 3014 2480 
Q 3021 2458 3027 2432 
L 3027 742 
Q 3027 525 3056 403 
Q 3085 282 3187 234 
Q 3290 186 3520 186 
L 3520 0 
z
M 1664 0 
L 205 0 
L 205 186 
Q 410 186 502 221 
Q 595 256 624 355 
Q 653 454 653 646 
L 653 2438 
Q 653 2611 585 2668 
Q 518 2726 384 2726 
Q 314 2726 262 2720 
Q 211 2714 211 2714 
L 211 2899 
L 1011 3085 
L 1165 3085 
L 1165 2496 
L 1184 2355 
L 1184 621 
Q 1184 442 1222 349 
Q 1261 256 1363 221 
Q 1466 186 1664 186 
L 1664 0 
z
M 5306 0 
L 3859 0 
L 3859 186 
Q 4077 186 4173 243 
Q 4269 301 4291 425 
Q 4314 550 4314 742 
L 4314 1971 
Q 4314 2266 4240 2419 
Q 4166 2573 4041 2633 
Q 3917 2694 3763 2694 
Q 3552 2694 3347 2544 
Q 3142 2394 2976 2253 
L 2906 2573 
L 3002 2573 
Q 3264 2835 3513 2969 
Q 3763 3104 4019 3104 
Q 4397 3104 4621 2867 
Q 4845 2630 4845 2048 
L 4845 742 
Q 4845 544 4867 419 
Q 4890 294 4989 240 
Q 5088 186 5306 186 
L 5306 0 
z
" transform="scale(0.015625)"/>
      <path id="STIXTwoText-75" d="M 1421 -64 
Q 1024 -64 803 195 
Q 582 454 582 1107 
L 582 2406 
Q 582 2579 547 2659 
Q 512 2739 416 2761 
Q 320 2784 147 2784 
L 147 2963 
L 973 3059 
L 1114 3059 
L 1114 1190 
Q 1114 864 1187 681 
Q 1261 499 1392 422 
Q 1523 346 1690 346 
Q 1933 346 2109 454 
Q 2285 563 2477 730 
L 2477 2413 
Q 2477 2586 2432 2662 
Q 2387 2739 2275 2761 
Q 2163 2784 1958 2784 
L 1958 2963 
L 2854 3059 
L 3008 3059 
L 3008 710 
Q 3008 429 3085 358 
Q 3162 288 3392 288 
L 3456 288 
L 3456 115 
L 2643 -32 
L 2502 -32 
L 2502 461 
L 2470 461 
Q 2304 294 2141 176 
Q 1978 58 1802 -3 
Q 1626 -64 1421 -64 
z
" transform="scale(0.015625)"/>
      <path id="STIXTwoText-2d" d="M 1728 1395 
L 288 1395 
L 288 1811 
L 1728 1811 
L 1728 1395 
z
" transform="scale(0.015625)"/>
     </defs>
     <use xlink:href="#STIXTwoText-6d"/>
     <use xlink:href="#STIXTwoText-69" transform="translate(85.199982 0)"/>
     <use xlink:href="#STIXTwoText-6e" transform="translate(113.699966 0)"/>
     <use xlink:href="#STIXTwoText-69" transform="translate(171.299957 0)"/>
     <use xlink:href="#STIXTwoText-6d" transform="translate(199.799942 0)"/>
     <use xlink:href="#STIXTwoText-75" transform="translate(284.999924 0)"/>
     <use xlink:href="#STIXTwoText-6d" transform="translate(341.999908 0)"/>
     <use xlink:href="#STIXTwoText-2d" transform="translate(427.19989 0)"/>
     <use xlink:href="#STIXTwoText-6e" transform="translate(458.699875 0)"/>
     <use xlink:href="#STIXTwoText-6f" transform="translate(516.299866 0)"/>
     <use xlink:href="#STIXTwoText-72" transform="translate(567.69986 0)"/>
     <use xlink:href="#STIXTwoText-6d" transform="translate(605.699844 0)"/>
     <use xlink:href="#STIXTwoText-20" transform="translate(690.899826 0)"/>
     <use xlink:href="#STIXTwoText-73" transform="translate(714.399811 0)"/>
     <use xlink:href="#STIXTwoText-6f" transform="translate(753.899796 0)"/>
     <use xlink:href="#STIXTwoText-6c" transform="translate(805.299789 0)"/>
     <use xlink:href="#STIXTwoText-75" transform="translate(833.599777 0)"/>
     <use xlink:href="#STIXTwoText-74" transform="translate(890.599762 0)"/>
     <use xlink:href="#STIXTwoText-69" transform="translate(922.099747 0)"/>
     <use xlink:href="#STIXTwoText-6f" transform="translate(950.599731 0)"/>
     <use xlink:href="#STIXTwoText-6e" transform="translate(1001.999725 0)"/>
    </g>
   </g>
   <g id="legend_1">
    <g id="line2d_16">
     <path d="M 204.130938 11.4875 
L 212.130938 11.4875 
L 220.130938 11.4875 
" style="fill: none; stroke: #8a4c1f; stroke-width: 2.2; stroke-linecap: square"/>
    </g>
    <g id="text_18">
     <!-- minimum-norm interpolant -->
     <g style="fill: #1d2126" transform="translate(226.530938 14.2875) scale(0.08 -0.08)">
      <use xlink:href="#STIXTwoText-6d"/>
      <use xlink:href="#STIXTwoText-69" transform="translate(85.199982 0)"/>
      <use xlink:href="#STIXTwoText-6e" transform="translate(113.699966 0)"/>
      <use xlink:href="#STIXTwoText-69" transform="translate(171.299957 0)"/>
      <use xlink:href="#STIXTwoText-6d" transform="translate(199.799942 0)"/>
      <use xlink:href="#STIXTwoText-75" transform="translate(284.999924 0)"/>
      <use xlink:href="#STIXTwoText-6d" transform="translate(341.999908 0)"/>
      <use xlink:href="#STIXTwoText-2d" transform="translate(427.19989 0)"/>
      <use xlink:href="#STIXTwoText-6e" transform="translate(458.699875 0)"/>
      <use xlink:href="#STIXTwoText-6f" transform="translate(516.299866 0)"/>
      <use xlink:href="#STIXTwoText-72" transform="translate(567.69986 0)"/>
      <use xlink:href="#STIXTwoText-6d" transform="translate(605.699844 0)"/>
      <use xlink:href="#STIXTwoText-20" transform="translate(690.899826 0)"/>
      <use xlink:href="#STIXTwoText-69" transform="translate(714.399811 0)"/>
      <use xlink:href="#STIXTwoText-6e" transform="translate(742.899796 0)"/>
      <use xlink:href="#STIXTwoText-74" transform="translate(800.499786 0)"/>
      <use xlink:href="#STIXTwoText-65" transform="translate(831.999771 0)"/>
      <use xlink:href="#STIXTwoText-72" transform="translate(878.399765 0)"/>
      <use xlink:href="#STIXTwoText-70" transform="translate(916.39975 0)"/>
      <use xlink:href="#STIXTwoText-6f" transform="translate(970.099747 0)"/>
      <use xlink:href="#STIXTwoText-6c" transform="translate(1021.499741 0)"/>
      <use xlink:href="#STIXTwoText-61" transform="translate(1049.799728 0)"/>
      <use xlink:href="#STIXTwoText-6e" transform="translate(1097.799713 0)"/>
      <use xlink:href="#STIXTwoText-74" transform="translate(1155.399704 0)"/>
     </g>
    </g>
   </g>
  </g>
 </g>
 <defs>
  <clipPath id="pb6a8a5eb44">
   <rect x="30.153438" y="1.44" width="298.53" height="169.092"/>
  </clipPath>
 </defs>
</svg>
