<?xml version="1.0" encoding="utf-8" standalone="no"?>
<!DOCTYPE svg PUBLIC "-//W3C//DTD SVG 1.1//EN"
  "http://www.w3.org/Graphics/SVG/1.1/DTD/svg11.dtd">
<svg xmlns:xlink="http://www.w3.org/1999/xlink" width="345.876pt" height="196.439531pt" viewBox="0 0 345.876 196.439531" xmlns="http://www.w3.org/2000/svg" version="1.1">
 <metadata>
  <rdf:RDF xmlns:dc="http://purl.org/dc/elements/1.1/" xmlns:cc="http://creativecommons.org/ns#" xmlns:rdf="http://www.w3.org/1999/02/22-rdf-syntax-ns#">
   <cc:Work>
    <dc:type rdf:resource="http://purl.org/dc/dcmitype/StillImage"/>
    <dc:format>image/svg+xml</dc:format>
    <dc:creator>
     <cc:Agent>
      <dc:title>Kernels figure pipeline</dc:title>
     </cc:Agent>
    </dc:creator>
   </cc:Work>
  </rdf:RDF>
 </metadata>
 <defs>
  <style type="text/css">*{stroke-linejoin: round; stroke-linecap: butt}</style>
 </defs>
 <g id="figure_1">
  <g id="patch_1">
   <path d="M 0 196.439531 
L 345.876 196.439531 
L 345.876 0 
L 0 0 
z
" style="fill: #ffffff"/>
  </g>
  <g id="axes_1">
   <g id="patch_2">
    <path d="M 31.956 167.76 
L 344.436 167.76 
L 344.436 1.44 
L 31.956 1.44 
z
" style="fill: #ffffff"/>
   </g>
   <g id="matplotlib.axis_1">
    <g id="xtick_1">
     <g id="line2d_1">
      <defs>
       <path id="m33cb866227" d="M 0 0 
L 0 2.8 
" style="stroke: #18232d; stroke-width: 0.48"/>
      </defs>
      <g>
       <use xlink:href="#m33cb866227" x="46.159636" y="167.76" style="fill: #18232d; stroke: #18232d; stroke-width: 0.48"/>
      </g>
     </g>
     <g id="text_1">
      <!-- $\mathdefault{0.0}$ -->
      <g style="fill: #66727a" transform="translate(40.855636 179.293)">
       <text>
        <tspan x="0" y="-0.859375" style="font-size: 7.8px; font-family: 'Source Serif 4'; fill: #66727a">0</tspan>
        <tspan x="4.124542" y="-0.859375" style="font-size: 7.8px; font-family: 'Source Serif 4'; fill: #66727a">.</tspan>
        <tspan x="6.479187" y="-0.859375" style="font-size: 7.8px; font-family: 'Source Serif 4'; fill: #66727a">0</tspan>
       </text>
      </g>
     </g>
    </g>
    <g id="xtick_2">
     <g id="line2d_2">
      <g>
       <use xlink:href="#m33cb866227" x="102.974182" y="167.76" style="fill: #18232d; stroke: #18232d; stroke-width: 0.48"/>
      </g>
     </g>
     <g id="text_2">
      <!-- $\mathdefault{0.2}$ -->
      <g style="fill: #66727a" transform="translate(97.670182 179.293)">
       <text>
        <tspan x="0" y="-0.859375" style="font-size: 7.8px; font-family: 'Source Serif 4'; fill: #66727a">0</tspan>
        <tspan x="4.124542" y="-0.859375" style="font-size: 7.8px; font-family: 'Source Serif 4'; fill: #66727a">.</tspan>
        <tspan x="6.479187" y="-0.859375" style="font-size: 7.8px; font-family: 'Source Serif 4'; fill: #66727a">2</tspan>
       </text>
      </g>
     </g>
    </g>
    <g id="xtick_3">
     <g id="line2d_3">
      <g>
       <use xlink:href="#m33cb866227" x="159.788727" y="167.76" style="fill: #18232d; stroke: #18232d; stroke-width: 0.48"/>
      </g>
     </g>
     <g id="text_3">
      <!-- $\mathdefault{0.4}$ -->
      <g style="fill: #66727a" transform="translate(154.484727 179.293)">
       <text>
        <tspan x="0" y="-0.859375" style="font-size: 7.8px; font-family: 'Source Serif 4'; fill: #66727a">0</tspan>
        <tspan x="4.124542" y="-0.859375" style="font-size: 7.8px; font-family: 'Source Serif 4'; fill: #66727a">.</tspan>
        <tspan x="6.479187" y="-0.859375" style="font-size: 7.8px; font-family: 'Source Serif 4'; fill: #66727a">4</tspan>
       </text>
      </g>
     </g>
    </g>
    <g id="xtick_4">
     <g id="line2d_4">
      <g>
       <use xlink:href="#m33cb866227" x="216.603273" y="167.76" style="fill: #18232d; stroke: #18232d; stroke-width: 0.48"/>
      </g>
     </g>
     <g id="text_4">
      <!-- $\mathdefault{0.6}$ -->
      <g style="fill: #66727a" transform="translate(211.299273 179.293)">
       <text>
        <tspan x="0" y="-0.859375" style="font-size: 7.8px; font-family: 'Source Serif 4'; fill: #66727a">0</tspan>
        <tspan x="4.124542" y="-0.859375" style="font-size: 7.8px; font-family: 'Source Serif 4'; fill: #66727a">.</tspan>
        <tspan x="6.479187" y="-0.859375" style="font-size: 7.8px; font-family: 'Source Serif 4'; fill: #66727a">6</tspan>
       </text>
      </g>
     </g>
    </g>
    <g id="xtick_5">
     <g id="line2d_5">
      <g>
       <use xlink:href="#m33cb866227" x="273.417818" y="167.76" style="fill: #18232d; stroke: #18232d; stroke-width: 0.48"/>
      </g>
     </g>
     <g id="text_5">
      <!-- $\mathdefault{0.8}$ -->
      <g style="fill: #66727a" transform="translate(268.113818 179.293)">
       <text>
        <tspan x="0" y="-0.859375" style="font-size: 7.8px; font-family: 'Source Serif 4'; fill: #66727a">0</tspan>
        <tspan x="4.124542" y="-0.859375" style="font-size: 7.8px; font-family: 'Source Serif 4'; fill: #66727a">.</tspan>
        <tspan x="6.479187" y="-0.859375" style="font-size: 7.8px; font-family: 'Source Serif 4'; fill: #66727a">8</tspan>
       </text>
      </g>
     </g>
    </g>
    <g id="xtick_6">
     <g id="line2d_6">
      <g>
       <use xlink:href="#m33cb866227" x="330.232364" y="167.76" style="fill: #18232d; stroke: #18232d; stroke-width: 0.48"/>
      </g>
     </g>
     <g id="text_6">
      <!-- $\mathdefault{1.0}$ -->
      <g style="fill: #66727a" transform="translate(324.928364 179.293)">
       <text>
        <tspan x="0" y="-0.859375" style="font-size: 7.8px; font-family: 'Source Serif 4'; fill: #66727a">1</tspan>
        <tspan x="4.124542" y="-0.859375" style="font-size: 7.8px; font-family: 'Source Serif 4'; fill: #66727a">.</tspan>
        <tspan x="6.479187" y="-0.859375" style="font-size: 7.8px; font-family: 'Source Serif 4'; fill: #66727a">0</tspan>
       </text>
      </g>
     </g>
    </g>
    <g id="text_7">
     <!-- domain location $x$ -->
     <g style="fill: #18232d" transform="translate(149.28 192.864844)">
      <text>
       <tspan x="0" y="-0.25" style="font-size: 9.2px; font-family: 'Source Serif 4'; fill: #18232d">d</tspan>
       <tspan x="5.641113" y="-0.25" style="font-size: 9.2px; font-family: 'Source Serif 4'; fill: #18232d">o</tspan>
       <tspan x="10.960663" y="-0.25" style="font-size: 9.2px; font-family: 'Source Serif 4'; fill: #18232d">m</tspan>
       <tspan x="19.734711" y="-0.25" style="font-size: 9.2px; font-family: 'Source Serif 4'; fill: #18232d">a</tspan>
       <tspan x="24.705139" y="-0.25" style="font-size: 9.2px; font-family: 'Source Serif 4'; fill: #18232d">i</tspan>
       <tspan x="27.727814" y="-0.25" style="font-size: 9.2px; font-family: 'Source Serif 4'; fill: #18232d">n</tspan>
       <tspan x="33.635361" y="-0.25" style="font-size: 9.2px; font-family: 'Source Serif 4'; fill: #18232d"> </tspan>
       <tspan x="35.81279" y="-0.25" style="font-size: 9.2px; font-family: 'Source Serif 4'; fill: #18232d">l</tspan>
       <tspan x="38.835464" y="-0.25" style="font-size: 9.2px; font-family: 'Source Serif 4'; fill: #18232d">o</tspan>
       <tspan x="44.155014" y="-0.25" style="font-size: 9.2px; font-family: 'Source Serif 4'; fill: #18232d">c</tspan>
       <tspan x="48.932495" y="-0.25" style="font-size: 9.2px; font-family: 'Source Serif 4'; fill: #18232d">a</tspan>
       <tspan x="53.902924" y="-0.25" style="font-size: 9.2px; font-family: 'Source Serif 4'; fill: #18232d">t</tspan>
       <tspan x="57.201233" y="-0.25" style="font-size: 9.2px; font-family: 'Source Serif 4'; fill: #18232d">i</tspan>
       <tspan x="60.223907" y="-0.25" style="font-size: 9.2px; font-family: 'Source Serif 4'; fill: #18232d">o</tspan>
       <tspan x="65.543457" y="-0.25" style="font-size: 9.2px; font-family: 'Source Serif 4'; fill: #18232d">n</tspan>
       <tspan x="71.451004" y="-0.25" style="font-size: 9.2px; font-family: 'Source Serif 4'; fill: #18232d"> </tspan>
       <tspan x="73.628433" y="-0.25" style="font-style: italic; font-size: 9.2px; font-family: 'STIXGeneral'; fill: #18232d">x</tspan>
      </text>
     </g>
    </g>
   </g>
   <g id="matplotlib.axis_2">
    <g id="ytick_1">
     <g id="line2d_7">
      <defs>
       <path id="m898694350a" d="M 0 0 
L -2.8 0 
" style="stroke: #18232d; stroke-width: 0.48"/>
      </defs>
      <g>
       <use xlink:href="#m898694350a" x="31.956" y="157.176" style="fill: #18232d; stroke: #18232d; stroke-width: 0.48"/>
      </g>
     </g>
     <g id="text_8">
      <!-- $\mathdefault{0.0}$ -->
      <g style="fill: #66727a" transform="translate(15.548 160.0425)">
       <text>
        <tspan x="0" y="-0.859375" style="font-size: 7.8px; font-family: 'Source Serif 4'; fill: #66727a">0</tspan>
        <tspan x="4.124542" y="-0.859375" style="font-size: 7.8px; font-family: 'Source Serif 4'; fill: #66727a">.</tspan>
        <tspan x="6.479187" y="-0.859375" style="font-size: 7.8px; font-family: 'Source Serif 4'; fill: #66727a">0</tspan>
       </text>
      </g>
     </g>
    </g>
    <g id="ytick_2">
     <g id="line2d_8">
      <g>
       <use xlink:href="#m898694350a" x="31.956" y="126.936" style="fill: #18232d; stroke: #18232d; stroke-width: 0.48"/>
      </g>
     </g>
     <g id="text_9">
      <!-- $\mathdefault{0.2}$ -->
      <g style="fill: #66727a" transform="translate(15.548 129.8025)">
       <text>
        <tspan x="0" y="-0.859375" style="font-size: 7.8px; font-family: 'Source Serif 4'; fill: #66727a">0</tspan>
        <tspan x="4.124542" y="-0.859375" style="font-size: 7.8px; font-family: 'Source Serif 4'; fill: #66727a">.</tspan>
        <tspan x="6.479187" y="-0.859375" style="font-size: 7.8px; font-family: 'Source Serif 4'; fill: #66727a">2</tspan>
       </text>
      </g>
     </g>
    </g>
    <g id="ytick_3">
     <g id="line2d_9">
      <g>
       <use xlink:href="#m898694350a" x="31.956" y="96.696" style="fill: #18232d; stroke: #18232d; stroke-width: 0.48"/>
      </g>
     </g>
     <g id="text_10">
      <!-- $\mathdefault{0.4}$ -->
      <g style="fill: #66727a" transform="translate(15.548 99.5625)">
       <text>
        <tspan x="0" y="-0.859375" style="font-size: 7.8px; font-family: 'Source Serif 4'; fill: #66727a">0</tspan>
        <tspan x="4.124542" y="-0.859375" style="font-size: 7.8px; font-family: 'Source Serif 4'; fill: #66727a">.</tspan>
        <tspan x="6.479187" y="-0.859375" style="font-size: 7.8px; font-family: 'Source Serif 4'; fill: #66727a">4</tspan>
       </text>
      </g>
     </g>
    </g>
    <g id="ytick_4">
     <g id="line2d_10">
      <g>
       <use xlink:href="#m898694350a" x="31.956" y="66.456" style="fill: #18232d; stroke: #18232d; stroke-width: 0.48"/>
      </g>
     </g>
     <g id="text_11">
      <!-- $\mathdefault{0.6}$ -->
      <g style="fill: #66727a" transform="translate(15.548 69.3225)">
       <text>
        <tspan x="0" y="-0.859375" style="font-size: 7.8px; font-family: 'Source Serif 4'; fill: #66727a">0</tspan>
        <tspan x="4.124542" y="-0.859375" style="font-size: 7.8px; font-family: 'Source Serif 4'; fill: #66727a">.</tspan>
        <tspan x="6.479187" y="-0.859375" style="font-size: 7.8px; font-family: 'Source Serif 4'; fill: #66727a">6</tspan>
       </text>
      </g>
     </g>
    </g>
    <g id="ytick_5">
     <g id="line2d_11">
      <g>
       <use xlink:href="#m898694350a" x="31.956" y="36.216" style="fill: #18232d; stroke: #18232d; stroke-width: 0.48"/>
      </g>
     </g>
     <g id="text_12">
      <!-- $\mathdefault{0.8}$ -->
      <g style="fill: #66727a" transform="translate(15.548 39.0825)">
       <text>
        <tspan x="0" y="-0.859375" style="font-size: 7.8px; font-family: 'Source Serif 4'; fill: #66727a">0</tspan>
        <tspan x="4.124542" y="-0.859375" style="font-size: 7.8px; font-family: 'Source Serif 4'; fill: #66727a">.</tspan>
        <tspan x="6.479187" y="-0.859375" style="font-size: 7.8px; font-family: 'Source Serif 4'; fill: #66727a">8</tspan>
       </text>
      </g>
     </g>
    </g>
    <g id="ytick_6">
     <g id="line2d_12">
      <g>
       <use xlink:href="#m898694350a" x="31.956" y="5.976" style="fill: #18232d; stroke: #18232d; stroke-width: 0.48"/>
      </g>
     </g>
     <g id="text_13">
      <!-- $\mathdefault{1.0}$ -->
      <g style="fill: #66727a" transform="translate(15.548 8.8425)">
       <text>
        <tspan x="0" y="-0.859375" style="font-size: 7.8px; font-family: 'Source Serif 4'; fill: #66727a">1</tspan>
        <tspan x="4.124542" y="-0.859375" style="font-size: 7.8px; font-family: 'Source Serif 4'; fill: #66727a">.</tspan>
        <tspan x="6.479187" y="-0.859375" style="font-size: 7.8px; font-family: 'Source Serif 4'; fill: #66727a">0</tspan>
       </text>
      </g>
     </g>
    </g>
    <g id="text_14">
     <!-- power function $P_X(x)$ -->
     <g style="fill: #18232d" transform="translate(8.34 129.542) rotate(-90)">
      <text>
       <tspan x="0" y="-0.140625" style="font-size: 9.2px; font-family: 'Source Serif 4'; fill: #18232d">p</tspan>
       <tspan x="5.714615" y="-0.140625" style="font-size: 9.2px; font-family: 'Source Serif 4'; fill: #18232d">o</tspan>
       <tspan x="11.034164" y="-0.140625" style="font-size: 9.2px; font-family: 'Source Serif 4'; fill: #18232d">w</tspan>
       <tspan x="18.714905" y="-0.140625" style="font-size: 9.2px; font-family: 'Source Serif 4'; fill: #18232d">e</tspan>
       <tspan x="23.611832" y="-0.140625" style="font-size: 9.2px; font-family: 'Source Serif 4'; fill: #18232d">r</tspan>
       <tspan x="27.801315" y="-0.140625" style="font-size: 9.2px; font-family: 'Source Serif 4'; fill: #18232d"> </tspan>
       <tspan x="29.978745" y="-0.140625" style="font-size: 9.2px; font-family: 'Source Serif 4'; fill: #18232d">f</tspan>
       <tspan x="33.368927" y="-0.140625" style="font-size: 9.2px; font-family: 'Source Serif 4'; fill: #18232d">u</tspan>
       <tspan x="39.138657" y="-0.140625" style="font-size: 9.2px; font-family: 'Source Serif 4'; fill: #18232d">n</tspan>
       <tspan x="45.046204" y="-0.140625" style="font-size: 9.2px; font-family: 'Source Serif 4'; fill: #18232d">c</tspan>
       <tspan x="49.823685" y="-0.140625" style="font-size: 9.2px; font-family: 'Source Serif 4'; fill: #18232d">t</tspan>
       <tspan x="53.121994" y="-0.140625" style="font-size: 9.2px; font-family: 'Source Serif 4'; fill: #18232d">i</tspan>
       <tspan x="56.144669" y="-0.140625" style="font-size: 9.2px; font-family: 'Source Serif 4'; fill: #18232d">o</tspan>
       <tspan x="61.464218" y="-0.140625" style="font-size: 9.2px; font-family: 'Source Serif 4'; fill: #18232d">n</tspan>
       <tspan x="67.371765" y="-0.140625" style="font-size: 9.2px; font-family: 'Source Serif 4'; fill: #18232d"> </tspan>
       <tspan x="69.549194" y="-0.140625" style="font-style: italic; font-size: 9.2px; font-family: 'STIXGeneral'; fill: #18232d">P</tspan>
       <tspan x="82.634262" y="-0.140625" style="font-style: italic; font-size: 9.2px; font-family: 'STIXGeneral'; fill: #18232d">x</tspan>
       <tspan x="75.200928" y="1.05" style="font-style: italic; font-size: 6.44px; font-family: 'STIXGeneral'; fill: #18232d">X</tspan>
       <tspan x="79.554016" y="-0.140625" style="font-size: 9.2px; font-family: 'STIXGeneral'; fill: #18232d">(</tspan>
       <tspan x="86.741241" y="-0.140625" style="font-size: 9.2px; font-family: 'STIXGeneral'; fill: #18232d">)</tspan>
      </text>
     </g>
    </g>
   </g>
   <g id="PathCollection_1">
    <defs>
     <path id="mbbe36b6186" d="M 0 2.061553 
C 0.54673 2.061553 1.071141 1.844335 1.457738 1.457738 
C 1.844335 1.071141 2.061553 0.54673 2.061553 0 
C 2.061553 -0.54673 1.844335 -1.071141 1.457738 -1.457738 
C 1.071141 -1.844335 0.54673 -2.061553 0 -2.061553 
C -0.54673 -2.061553 -1.071141 -1.844335 -1.457738 -1.457738 
C -1.844335 -1.071141 -2.061553 -0.54673 -2.061553 0 
C -2.061553 0.54673 -1.844335 1.071141 -1.457738 1.457738 
C -1.071141 1.844335 -0.54673 2.061553 0 2.061553 
z
" style="stroke: #315f78; stroke-width: 0.48"/>
    </defs>
    <g clip-path="url(#p6f3cc48e18)">
     <use xlink:href="#mbbe36b6186" x="46.159636" y="157.176" style="fill: #315f78; stroke: #315f78; stroke-width: 0.48"/>
     <use xlink:href="#mbbe36b6186" x="74.566909" y="157.176" style="fill: #315f78; stroke: #315f78; stroke-width: 0.48"/>
     <use xlink:href="#mbbe36b6186" x="102.974182" y="157.176" style="fill: #315f78; stroke: #315f78; stroke-width: 0.48"/>
     <use xlink:href="#mbbe36b6186" x="131.381455" y="157.176" style="fill: #315f78; stroke: #315f78; stroke-width: 0.48"/>
     <use xlink:href="#mbbe36b6186" x="159.788727" y="157.176" style="fill: #315f78; stroke: #315f78; stroke-width: 0.48"/>
     <use xlink:href="#mbbe36b6186" x="188.196" y="157.176" style="fill: #315f78; stroke: #315f78; stroke-width: 0.48"/>
     <use xlink:href="#mbbe36b6186" x="216.603273" y="157.176" style="fill: #315f78; stroke: #315f78; stroke-width: 0.48"/>
     <use xlink:href="#mbbe36b6186" x="245.010545" y="157.176" style="fill: #315f78; stroke: #315f78; stroke-width: 0.48"/>
     <use xlink:href="#mbbe36b6186" x="273.417818" y="157.176" style="fill: #315f78; stroke: #315f78; stroke-width: 0.48"/>
     <use xlink:href="#mbbe36b6186" x="301.825091" y="157.176" style="fill: #315f78; stroke: #315f78; stroke-width: 0.48"/>
     <use xlink:href="#mbbe36b6186" x="330.232364" y="157.176" style="fill: #315f78; stroke: #315f78; stroke-width: 0.48"/>
    </g>
   </g>
   <g id="PathCollection_2">
    <defs>
     <path id="m2369ab8512" d="M 0 3.708099 
L 0 -3.708099 
" style="stroke: #98452f; stroke-width: 1.3"/>
    </defs>
    <g clip-path="url(#p6f3cc48e18)">
     <use xlink:href="#m2369ab8512" x="46.159636" y="162.468" style="fill: #98452f; stroke: #98452f; stroke-width: 1.3"/>
     <use xlink:href="#m2369ab8512" x="65.476582" y="162.468" style="fill: #98452f; stroke: #98452f; stroke-width: 1.3"/>
     <use xlink:href="#m2369ab8512" x="84.793527" y="162.468" style="fill: #98452f; stroke: #98452f; stroke-width: 1.3"/>
     <use xlink:href="#m2369ab8512" x="104.110473" y="162.468" style="fill: #98452f; stroke: #98452f; stroke-width: 1.3"/>
     <use xlink:href="#m2369ab8512" x="123.427418" y="162.468" style="fill: #98452f; stroke: #98452f; stroke-width: 1.3"/>
     <use xlink:href="#m2369ab8512" x="142.744364" y="162.468" style="fill: #98452f; stroke: #98452f; stroke-width: 1.3"/>
     <use xlink:href="#m2369ab8512" x="250.692" y="162.468" style="fill: #98452f; stroke: #98452f; stroke-width: 1.3"/>
     <use xlink:href="#m2369ab8512" x="270.577091" y="162.468" style="fill: #98452f; stroke: #98452f; stroke-width: 1.3"/>
     <use xlink:href="#m2369ab8512" x="290.462182" y="162.468" style="fill: #98452f; stroke: #98452f; stroke-width: 1.3"/>
     <use xlink:href="#m2369ab8512" x="310.347273" y="162.468" style="fill: #98452f; stroke: #98452f; stroke-width: 1.3"/>
     <use xlink:href="#m2369ab8512" x="330.232364" y="162.468" style="fill: #98452f; stroke: #98452f; stroke-width: 1.3"/>
    </g>
   </g>
   <g id="line2d_13">
    <path d="M 46.159636 157.175522 
L 48.056616 155.162801 
L 49.953596 153.55306 
L 51.376331 152.603326 
L 52.799066 151.866222 
L 54.221801 151.332411 
L 55.644535 150.990823 
L 57.06727 150.828803 
L 58.96425 150.867591 
L 60.86123 151.16375 
L 62.75821 151.677559 
L 65.129435 152.562093 
L 67.974904 153.86823 
L 74.614334 157.153541 
L 77.934048 155.715986 
L 80.779518 154.757695 
L 83.150743 154.197269 
L 85.521968 153.872248 
L 87.893192 153.785309 
L 90.264417 153.925501 
L 92.635642 154.269561 
L 95.481112 154.903503 
L 99.275071 156.001436 
L 103.069031 157.146219 
L 107.337235 155.91054 
L 110.65695 155.185101 
L 113.50242 154.795494 
L 116.34789 154.648975 
L 119.193359 154.749124 
L 122.038829 155.077234 
L 125.358544 155.695659 
L 130.100993 156.846361 
L 131.523728 157.139507 
L 136.740423 155.910778 
L 140.060137 155.345345 
L 142.905607 155.060707 
L 145.751077 154.985961 
L 148.596546 155.124233 
L 151.916261 155.531242 
L 155.710221 156.24736 
L 159.978425 157.131721 
L 165.669365 155.910918 
L 168.989079 155.406789 
L 172.308794 155.140535 
L 175.154264 155.127524 
L 177.999733 155.314181 
L 181.319448 155.758154 
L 185.587653 156.591616 
L 188.433122 157.122146 
L 194.124062 155.922494 
L 197.443777 155.418031 
L 200.763491 155.145047 
L 203.608961 155.124267 
L 206.454431 155.30437 
L 209.774145 155.745828 
L 213.568105 156.484473 
L 216.88782 157.109526 
L 223.053004 155.773939 
L 226.372719 155.268722 
L 229.218188 155.029069 
L 232.063658 154.996424 
L 234.909128 155.177779 
L 238.228843 155.64106 
L 242.022802 156.433477 
L 244.868272 157.139507 
L 245.816762 156.968523 
L 251.507701 155.59466 
L 254.827416 155.008136 
L 257.672886 154.715833 
L 260.518355 154.656078 
L 263.363825 154.84398 
L 266.209295 155.272145 
L 269.52901 156.034083 
L 273.322969 157.146219 
L 274.271459 156.905841 
L 280.910888 154.903503 
L 283.756358 154.269561 
L 286.601828 153.880245 
L 288.973053 153.783988 
L 291.344277 153.918088 
L 293.715502 154.290858 
L 296.086727 154.896787 
L 298.457952 155.715986 
L 301.303421 156.931498 
L 301.777666 157.153541 
L 303.200401 156.507874 
L 311.73681 152.367218 
L 314.108035 151.530962 
L 316.005015 151.067711 
L 317.901995 150.832274 
L 319.798975 150.8637 
L 321.22171 151.084078 
L 322.644444 151.488409 
L 324.067179 152.088837 
L 325.489914 152.895869 
L 326.912649 153.91824 
L 328.335384 155.162801 
L 330.232364 157.175522 
L 330.232364 157.175522 
" clip-path="url(#p6f3cc48e18)" style="fill: none; stroke: #315f78; stroke-width: 1.3; stroke-linecap: round"/>
   </g>
   <g id="line2d_14">
    <path d="M 46.159636 157.175522 
L 48.056616 156.610176 
L 49.953596 156.250551 
L 52.324821 156.043078 
L 55.17029 156.067197 
L 58.490005 156.34109 
L 66.077924 157.112651 
L 70.346129 156.778972 
L 74.614334 156.684221 
L 79.356783 156.832487 
L 85.996212 157.097708 
L 92.161397 156.816063 
L 96.903846 156.820132 
L 102.120541 157.049392 
L 104.966011 157.119062 
L 112.55393 156.716489 
L 116.822134 156.716566 
L 121.090339 156.953871 
L 123.935809 157.120956 
L 133.894953 156.088894 
L 136.740423 156.082993 
L 139.111647 156.303082 
L 141.008627 156.668176 
L 142.905607 157.119619 
L 144.802587 156.329612 
L 146.699567 155.289931 
L 148.596546 153.980377 
L 150.493526 152.385189 
L 152.390506 150.493713 
L 154.287486 148.300946 
L 156.184466 145.807948 
L 158.55569 142.281369 
L 160.926915 138.326251 
L 163.772385 133.077463 
L 167.0921 126.394897 
L 171.834549 116.214758 
L 177.999733 102.997732 
L 180.845203 97.355434 
L 183.216428 93.053274 
L 185.587653 89.215185 
L 187.484633 86.536468 
L 189.381612 84.248066 
L 190.804347 82.808129 
L 192.227082 81.618449 
L 193.649817 80.688914 
L 195.072552 80.027326 
L 196.495287 79.639324 
L 197.918022 79.528321 
L 199.340756 79.695477 
L 200.763491 80.139678 
L 202.186226 80.857554 
L 203.608961 81.843504 
L 205.031696 83.089752 
L 206.454431 84.586426 
L 208.351411 86.950738 
L 210.24839 89.705606 
L 212.619615 93.639019 
L 214.99084 98.036221 
L 217.83631 103.791187 
L 222.104514 113.033805 
L 229.218188 128.564226 
L 232.537903 135.246952 
L 235.383373 140.451674 
L 237.754598 144.339308 
L 240.125822 147.77131 
L 242.022802 150.170028 
L 243.919782 152.252985 
L 245.816762 154.02033 
L 247.713742 155.47855 
L 249.610722 156.640068 
L 250.559211 157.114936 
L 251.507701 156.829298 
L 253.404681 156.203008 
L 255.301661 155.806577 
L 257.198641 155.610455 
L 259.569866 155.598595 
L 262.415335 155.841687 
L 266.209295 156.422914 
L 270.477499 157.159914 
L 272.848724 156.84033 
L 276.642684 156.459717 
L 279.962399 156.353121 
L 283.282113 156.457678 
L 287.550318 156.834305 
L 290.870032 157.12668 
L 297.035217 156.493962 
L 300.829177 156.347478 
L 304.148891 156.444214 
L 307.468606 156.757595 
L 310.788321 157.103003 
L 319.798975 155.667041 
L 322.170199 155.53317 
L 324.541424 155.626318 
L 326.438404 155.90993 
L 328.335384 156.415938 
L 330.232364 157.175522 
L 330.232364 157.175522 
" clip-path="url(#p6f3cc48e18)" style="fill: none; stroke: #98452f; stroke-width: 1.3; stroke-linecap: round"/>
   </g>
   <g id="patch_3">
    <path d="M 31.956 167.76 
L 31.956 1.44 
" style="fill: none; stroke: #18232d; stroke-width: 0.48; stroke-linejoin: miter; stroke-linecap: square"/>
   </g>
   <g id="patch_4">
    <path d="M 31.956 167.76 
L 344.436 167.76 
" style="fill: none; stroke: #18232d; stroke-width: 0.48; stroke-linejoin: miter; stroke-linecap: square"/>
   </g>
   <g id="legend_1">
    <g id="line2d_15">
     <path d="M 243.573469 10.768312 
L 251.763469 10.768312 
L 259.953469 10.768312 
" style="fill: none; stroke: #315f78; stroke-width: 1.3; stroke-linecap: round"/>
    </g>
    <g id="text_15">
     <text style="font-size: 7.8px; font-family: 'Source Serif 4'; text-anchor: start; fill: #18232d" x="266.193469" y="13.498312" transform="rotate(-0 266.193469 13.498312)">quasi-uniform sites</text>
    </g>
    <g id="line2d_16">
     <path d="M 243.573469 22.211156 
L 251.763469 22.211156 
L 259.953469 22.211156 
" style="fill: none; stroke: #98452f; stroke-width: 1.3; stroke-linecap: round"/>
    </g>
    <g id="text_16">
     <text style="font-size: 7.8px; font-family: 'Source Serif 4'; text-anchor: start; fill: #18232d" x="266.193469" y="24.941156" transform="rotate(-0 266.193469 24.941156)">clustered sites</text>
    </g>
   </g>
  </g>
 </g>
 <defs>
  <clipPath id="p6f3cc48e18">
   <rect x="31.956" y="1.44" width="312.48" height="166.32"/>
  </clipPath>
 </defs>
</svg>
