<?xml version="1.0" encoding="utf-8" standalone="no"?>
<!DOCTYPE svg PUBLIC "-//W3C//DTD SVG 1.1//EN"
  "http://www.w3.org/Graphics/SVG/1.1/DTD/svg11.dtd">
<svg xmlns:xlink="http://www.w3.org/1999/xlink" width="439.330131pt" height="197.281219pt" viewBox="0 0 439.330131 197.281219" xmlns="http://www.w3.org/2000/svg" version="1.1">
 <metadata>
  <rdf:RDF xmlns:dc="http://purl.org/dc/elements/1.1/" xmlns:cc="http://creativecommons.org/ns#" xmlns:rdf="http://www.w3.org/1999/02/22-rdf-syntax-ns#">
   <cc:Work>
    <dc:type rdf:resource="http://purl.org/dc/dcmitype/StillImage"/>
    <dc:format>image/svg+xml</dc:format>
    <dc:creator>
     <cc:Agent>
      <dc:title>Kernels figure pipeline</dc:title>
     </cc:Agent>
    </dc:creator>
   </cc:Work>
  </rdf:RDF>
 </metadata>
 <defs>
  <style type="text/css">*{stroke-linejoin: round; stroke-linecap: butt}</style>
 </defs>
 <g id="figure_1">
  <g id="patch_1">
   <path d="M 0 197.281219 
L 439.330131 197.281219 
L 439.330131 0 
L 0 0 
z
" style="fill: #ffffff"/>
  </g>
  <g id="axes_1">
   <g id="patch_2">
    <path d="M 29.505313 168.501062 
L 212.123494 168.501062 
L 212.123494 13.269062 
L 29.505313 13.269062 
z
" style="fill: #ffffff"/>
   </g>
   <g id="matplotlib.axis_1">
    <g id="xtick_1">
     <g id="line2d_1">
      <defs>
       <path id="m33cb866227" d="M 0 0 
L 0 2.8 
" style="stroke: #18232d; stroke-width: 0.48"/>
      </defs>
      <g>
       <use xlink:href="#m33cb866227" x="45.646843" y="168.501062" style="fill: #18232d; stroke: #18232d; stroke-width: 0.48"/>
      </g>
     </g>
     <g id="text_1">
      <!-- $\mathdefault{0.77}$ -->
      <g style="fill: #66727a" transform="translate(38.275843 180.034062)">
       <text>
        <tspan x="0" y="-0.859375" style="font-size: 7.8px; font-family: 'Source Serif 4'; fill: #66727a">0</tspan>
        <tspan x="4.124542" y="-0.859375" style="font-size: 7.8px; font-family: 'Source Serif 4'; fill: #66727a">.</tspan>
        <tspan x="6.479187" y="-0.859375" style="font-size: 7.8px; font-family: 'Source Serif 4'; fill: #66727a">7</tspan>
        <tspan x="10.603729" y="-0.859375" style="font-size: 7.8px; font-family: 'Source Serif 4'; fill: #66727a">7</tspan>
       </text>
      </g>
     </g>
    </g>
    <g id="xtick_2">
     <g id="line2d_2">
      <g>
       <use xlink:href="#m33cb866227" x="71.95693" y="168.501062" style="fill: #18232d; stroke: #18232d; stroke-width: 0.48"/>
      </g>
     </g>
     <g id="text_2">
      <!-- $\mathdefault{0.78}$ -->
      <g style="fill: #66727a" transform="translate(64.58593 180.034062)">
       <text>
        <tspan x="0" y="-0.859375" style="font-size: 7.8px; font-family: 'Source Serif 4'; fill: #66727a">0</tspan>
        <tspan x="4.124542" y="-0.859375" style="font-size: 7.8px; font-family: 'Source Serif 4'; fill: #66727a">.</tspan>
        <tspan x="6.479187" y="-0.859375" style="font-size: 7.8px; font-family: 'Source Serif 4'; fill: #66727a">7</tspan>
        <tspan x="10.603729" y="-0.859375" style="font-size: 7.8px; font-family: 'Source Serif 4'; fill: #66727a">8</tspan>
       </text>
      </g>
     </g>
    </g>
    <g id="xtick_3">
     <g id="line2d_3">
      <g>
       <use xlink:href="#m33cb866227" x="98.267017" y="168.501062" style="fill: #18232d; stroke: #18232d; stroke-width: 0.48"/>
      </g>
     </g>
     <g id="text_3">
      <!-- $\mathdefault{0.79}$ -->
      <g style="fill: #66727a" transform="translate(90.896017 180.034062)">
       <text>
        <tspan x="0" y="-0.859375" style="font-size: 7.8px; font-family: 'Source Serif 4'; fill: #66727a">0</tspan>
        <tspan x="4.124542" y="-0.859375" style="font-size: 7.8px; font-family: 'Source Serif 4'; fill: #66727a">.</tspan>
        <tspan x="6.479187" y="-0.859375" style="font-size: 7.8px; font-family: 'Source Serif 4'; fill: #66727a">7</tspan>
        <tspan x="10.603729" y="-0.859375" style="font-size: 7.8px; font-family: 'Source Serif 4'; fill: #66727a">9</tspan>
       </text>
      </g>
     </g>
    </g>
    <g id="xtick_4">
     <g id="line2d_4">
      <g>
       <use xlink:href="#m33cb866227" x="124.577104" y="168.501062" style="fill: #18232d; stroke: #18232d; stroke-width: 0.48"/>
      </g>
     </g>
     <g id="text_4">
      <!-- $\mathdefault{0.80}$ -->
      <g style="fill: #66727a" transform="translate(117.206104 180.034062)">
       <text>
        <tspan x="0" y="-0.859375" style="font-size: 7.8px; font-family: 'Source Serif 4'; fill: #66727a">0</tspan>
        <tspan x="4.124542" y="-0.859375" style="font-size: 7.8px; font-family: 'Source Serif 4'; fill: #66727a">.</tspan>
        <tspan x="6.479187" y="-0.859375" style="font-size: 7.8px; font-family: 'Source Serif 4'; fill: #66727a">8</tspan>
        <tspan x="10.603729" y="-0.859375" style="font-size: 7.8px; font-family: 'Source Serif 4'; fill: #66727a">0</tspan>
       </text>
      </g>
     </g>
    </g>
    <g id="xtick_5">
     <g id="line2d_5">
      <g>
       <use xlink:href="#m33cb866227" x="150.887191" y="168.501062" style="fill: #18232d; stroke: #18232d; stroke-width: 0.48"/>
      </g>
     </g>
     <g id="text_5">
      <!-- $\mathdefault{0.81}$ -->
      <g style="fill: #66727a" transform="translate(143.516191 180.034062)">
       <text>
        <tspan x="0" y="-0.859375" style="font-size: 7.8px; font-family: 'Source Serif 4'; fill: #66727a">0</tspan>
        <tspan x="4.124542" y="-0.859375" style="font-size: 7.8px; font-family: 'Source Serif 4'; fill: #66727a">.</tspan>
        <tspan x="6.479187" y="-0.859375" style="font-size: 7.8px; font-family: 'Source Serif 4'; fill: #66727a">8</tspan>
        <tspan x="10.603729" y="-0.859375" style="font-size: 7.8px; font-family: 'Source Serif 4'; fill: #66727a">1</tspan>
       </text>
      </g>
     </g>
    </g>
    <g id="xtick_6">
     <g id="line2d_6">
      <g>
       <use xlink:href="#m33cb866227" x="177.197278" y="168.501062" style="fill: #18232d; stroke: #18232d; stroke-width: 0.48"/>
      </g>
     </g>
     <g id="text_6">
      <!-- $\mathdefault{0.82}$ -->
      <g style="fill: #66727a" transform="translate(169.826278 180.034062)">
       <text>
        <tspan x="0" y="-0.859375" style="font-size: 7.8px; font-family: 'Source Serif 4'; fill: #66727a">0</tspan>
        <tspan x="4.124542" y="-0.859375" style="font-size: 7.8px; font-family: 'Source Serif 4'; fill: #66727a">.</tspan>
        <tspan x="6.479187" y="-0.859375" style="font-size: 7.8px; font-family: 'Source Serif 4'; fill: #66727a">8</tspan>
        <tspan x="10.603729" y="-0.859375" style="font-size: 7.8px; font-family: 'Source Serif 4'; fill: #66727a">2</tspan>
       </text>
      </g>
     </g>
    </g>
    <g id="xtick_7">
     <g id="line2d_7">
      <g>
       <use xlink:href="#m33cb866227" x="203.507365" y="168.501062" style="fill: #18232d; stroke: #18232d; stroke-width: 0.48"/>
      </g>
     </g>
     <g id="text_7">
      <!-- $\mathdefault{0.83}$ -->
      <g style="fill: #66727a" transform="translate(196.136365 180.034062)">
       <text>
        <tspan x="0" y="-0.859375" style="font-size: 7.8px; font-family: 'Source Serif 4'; fill: #66727a">0</tspan>
        <tspan x="4.124542" y="-0.859375" style="font-size: 7.8px; font-family: 'Source Serif 4'; fill: #66727a">.</tspan>
        <tspan x="6.479187" y="-0.859375" style="font-size: 7.8px; font-family: 'Source Serif 4'; fill: #66727a">8</tspan>
        <tspan x="10.603729" y="-0.859375" style="font-size: 7.8px; font-family: 'Source Serif 4'; fill: #66727a">3</tspan>
       </text>
      </g>
     </g>
    </g>
    <g id="text_8">
     <text style="font-size: 9.2px; font-family: 'Source Serif 4'; text-anchor: middle; fill: #18232d" x="120.814403" y="193.605906" transform="rotate(-0 120.814403 193.605906)">RKHS imbalance</text>
    </g>
   </g>
   <g id="matplotlib.axis_2">
    <g id="ytick_1">
     <g id="line2d_8">
      <defs>
       <path id="m898694350a" d="M 0 0 
L -2.8 0 
" style="stroke: #18232d; stroke-width: 0.48"/>
      </defs>
      <g>
       <use xlink:href="#m898694350a" x="29.505313" y="161.44702" style="fill: #18232d; stroke: #18232d; stroke-width: 0.48"/>
      </g>
     </g>
     <g id="text_9">
      <!-- $\mathdefault{0}$ -->
      <g style="fill: #66727a" transform="translate(19.571313 164.31352)">
       <text>
        <tspan x="0" y="-0.859375" style="font-size: 7.8px; font-family: 'Source Serif 4'; fill: #66727a">0</tspan>
       </text>
      </g>
     </g>
    </g>
    <g id="ytick_2">
     <g id="line2d_9">
      <g>
       <use xlink:href="#m898694350a" x="29.505313" y="128.566849" style="fill: #18232d; stroke: #18232d; stroke-width: 0.48"/>
      </g>
     </g>
     <g id="text_10">
      <!-- $\mathdefault{10}$ -->
      <g style="fill: #66727a" transform="translate(15.437313 131.433349)">
       <text>
        <tspan x="0" y="-0.859375" style="font-size: 7.8px; font-family: 'Source Serif 4'; fill: #66727a">1</tspan>
        <tspan x="4.124542" y="-0.859375" style="font-size: 7.8px; font-family: 'Source Serif 4'; fill: #66727a">0</tspan>
       </text>
      </g>
     </g>
    </g>
    <g id="ytick_3">
     <g id="line2d_10">
      <g>
       <use xlink:href="#m898694350a" x="29.505313" y="95.686679" style="fill: #18232d; stroke: #18232d; stroke-width: 0.48"/>
      </g>
     </g>
     <g id="text_11">
      <!-- $\mathdefault{20}$ -->
      <g style="fill: #66727a" transform="translate(15.437313 98.553179)">
       <text>
        <tspan x="0" y="-0.859375" style="font-size: 7.8px; font-family: 'Source Serif 4'; fill: #66727a">2</tspan>
        <tspan x="4.124542" y="-0.859375" style="font-size: 7.8px; font-family: 'Source Serif 4'; fill: #66727a">0</tspan>
       </text>
      </g>
     </g>
    </g>
    <g id="ytick_4">
     <g id="line2d_11">
      <g>
       <use xlink:href="#m898694350a" x="29.505313" y="62.806508" style="fill: #18232d; stroke: #18232d; stroke-width: 0.48"/>
      </g>
     </g>
     <g id="text_12">
      <!-- $\mathdefault{30}$ -->
      <g style="fill: #66727a" transform="translate(15.437313 65.673008)">
       <text>
        <tspan x="0" y="-0.859375" style="font-size: 7.8px; font-family: 'Source Serif 4'; fill: #66727a">3</tspan>
        <tspan x="4.124542" y="-0.859375" style="font-size: 7.8px; font-family: 'Source Serif 4'; fill: #66727a">0</tspan>
       </text>
      </g>
     </g>
    </g>
    <g id="ytick_5">
     <g id="line2d_12">
      <g>
       <use xlink:href="#m898694350a" x="29.505313" y="29.926338" style="fill: #18232d; stroke: #18232d; stroke-width: 0.48"/>
      </g>
     </g>
     <g id="text_13">
      <!-- $\mathdefault{40}$ -->
      <g style="fill: #66727a" transform="translate(15.437313 32.792838)">
       <text>
        <tspan x="0" y="-0.859375" style="font-size: 7.8px; font-family: 'Source Serif 4'; fill: #66727a">4</tspan>
        <tspan x="4.124542" y="-0.859375" style="font-size: 7.8px; font-family: 'Source Serif 4'; fill: #66727a">0</tspan>
       </text>
      </g>
     </g>
    </g>
    <g id="text_14">
     <text style="font-size: 9.2px; font-family: 'Source Serif 4'; text-anchor: middle; fill: #18232d" x="8.302625" y="90.885062" transform="rotate(-90 8.302625 90.885062)">effective sample size</text>
    </g>
   </g>
   <g id="line2d_13">
    <path d="M 37.806139 161.445062 
L 38.307865 161.444741 
L 38.826506 161.444365 
L 39.359959 161.443923 
L 39.90562 161.443407 
L 40.460935 161.442806 
L 41.023974 161.442106 
L 41.593902 161.441296 
L 42.171205 161.440356 
L 42.757636 161.439266 
L 43.355885 161.437997 
L 43.969066 161.436517 
L 44.600146 161.434786 
L 45.251491 161.432757 
L 45.924625 161.430379 
L 46.620277 161.427595 
L 47.338675 161.424345 
L 48.079974 161.420561 
L 48.844673 161.416168 
L 49.63386 161.411074 
L 50.449175 161.405169 
L 51.2925 161.398313 
L 52.165427 161.390335 
L 53.06868 161.381028 
L 54.00168 161.370151 
L 54.962413 161.357427 
L 55.94769 161.342551 
L 56.953775 161.325183 
L 57.977229 161.304945 
L 59.015743 161.281406 
L 60.068746 161.254053 
L 61.137612 161.22227 
L 62.225417 161.185305 
L 63.336348 161.142252 
L 64.474929 161.092041 
L 65.645325 161.033439 
L 66.850897 160.965063 
L 68.094124 160.885382 
L 69.376846 160.7927 
L 70.700659 160.685111 
L 72.067266 160.560419 
L 73.478576 160.416023 
L 74.936474 160.2488 
L 76.442326 160.055007 
L 77.996402 159.830218 
L 79.597472 159.569306 
L 81.242789 159.266458 
L 82.928567 158.915168 
L 84.650866 158.50818 
L 86.40665 158.037343 
L 88.194701 157.493377 
L 90.016122 156.865604 
L 91.874261 156.141734 
L 93.774138 155.307799 
L 95.721571 154.348297 
L 97.722302 153.246534 
L 99.781372 151.985077 
L 101.902849 150.546179 
L 104.089866 148.912055 
L 106.344775 147.064986 
L 108.669234 144.987354 
L 111.064121 142.661825 
L 113.529313 140.071882 
L 116.063534 137.202793 
L 118.664461 134.042861 
L 121.329256 130.584649 
L 124.055475 126.825863 
L 126.842138 122.769713 
L 129.690658 118.424887 
L 132.605311 113.805392 
L 135.593113 108.930579 
L 138.663105 103.82539 
L 141.825242 98.520687 
L 145.089059 93.053373 
L 148.462303 87.466129 
L 151.949593 81.80676 
L 155.551171 76.127247 
L 159.261814 70.482543 
L 163.070068 64.928987 
L 166.957994 59.522167 
L 170.901593 54.314172 
L 174.87189 49.350515 
L 178.836551 44.667213 
L 182.761744 40.288636 
L 186.613993 36.226543 
L 190.361838 32.480436 
L 193.97726 29.039099 
L 197.436833 25.883028 
L 200.722616 22.987379 
L 203.822668 20.325063 
" clip-path="url(#pf80ed3772d)" style="fill: none; stroke: #315f78; stroke-width: 1.3; stroke-linecap: round"/>
   </g>
   <g id="patch_3">
    <path d="M 29.505313 168.501062 
L 29.505313 13.269063 
" style="fill: none; stroke: #18232d; stroke-width: 0.48; stroke-linejoin: miter; stroke-linecap: square"/>
   </g>
   <g id="patch_4">
    <path d="M 29.505312 168.501062 
L 212.123494 168.501062 
" style="fill: none; stroke: #18232d; stroke-width: 0.48; stroke-linejoin: miter; stroke-linecap: square"/>
   </g>
   <g id="PathCollection_1">
    <defs>
     <path id="C0_0_9a1f18bd0c" d="M 0 2.44949 
C 0.649612 2.44949 1.272706 2.191396 1.732051 1.732051 
C 2.191396 1.272706 2.44949 0.649612 2.44949 -0 
C 2.44949 -0.649612 2.191396 -1.272706 1.732051 -1.732051 
C 1.272706 -2.191396 0.649612 -2.44949 0 -2.44949 
C -0.649612 -2.44949 -1.272706 -2.191396 -1.732051 -1.732051 
C -2.191396 -1.272706 -2.44949 -0.649612 -2.44949 0 
C -2.44949 0.649612 -2.191396 1.272706 -1.732051 1.732051 
C -1.272706 2.191396 -0.649612 2.44949 0 2.44949 
z
"/>
    </defs>
    <g clip-path="url(#pf80ed3772d)">
     <use xlink:href="#C0_0_9a1f18bd0c" x="37.806139" y="161.445062" style="fill: #ffffff; stroke: #ffffff; stroke-width: 0.48"/>
    </g>
    <g clip-path="url(#pf80ed3772d)">
     <use xlink:href="#C0_0_9a1f18bd0c" x="45.924625" y="161.430379" style="fill: #f1f3f2; stroke: #f1f3f2; stroke-width: 0.48"/>
    </g>
    <g clip-path="url(#pf80ed3772d)">
     <use xlink:href="#C0_0_9a1f18bd0c" x="57.977229" y="161.304945" style="fill: #dee6e7; stroke: #dee6e7; stroke-width: 0.48"/>
    </g>
    <g clip-path="url(#pf80ed3772d)">
     <use xlink:href="#C0_0_9a1f18bd0c" x="74.936474" y="160.2488" style="fill: #bdced4; stroke: #bdced4; stroke-width: 0.48"/>
    </g>
    <g clip-path="url(#pf80ed3772d)">
     <use xlink:href="#C0_0_9a1f18bd0c" x="99.781372" y="151.985077" style="fill: #90adb9; stroke: #90adb9; stroke-width: 0.48"/>
    </g>
    <g clip-path="url(#pf80ed3772d)">
     <use xlink:href="#C0_0_9a1f18bd0c" x="135.593113" y="108.930579" style="fill: #608698; stroke: #608698; stroke-width: 0.48"/>
    </g>
    <g clip-path="url(#pf80ed3772d)">
     <use xlink:href="#C0_0_9a1f18bd0c" x="186.613993" y="36.226543" style="fill: #315f78; stroke: #315f78; stroke-width: 0.48"/>
    </g>
   </g>
   <g id="text_15">
    <text style="font-weight: 600; font-size: 8.6px; font-family: 'Source Serif 4'; text-anchor: start; fill: #18232d" x="29.505313" y="7.769062" transform="rotate(-0 29.505313 7.769062)">Exact balance is purchased with variance</text>
   </g>
  </g>
  <g id="axes_2">
   <g id="patch_5">
    <path d="M 248.647131 168.501062 
L 431.265312 168.501062 
L 431.265312 13.269062 
L 248.647131 13.269062 
z
" style="fill: #ffffff"/>
   </g>
   <g id="matplotlib.axis_3">
    <g id="xtick_8">
     <g id="line2d_14">
      <g>
       <use xlink:href="#m33cb866227" x="280.664604" y="168.501062" style="fill: #18232d; stroke: #18232d; stroke-width: 0.48"/>
      </g>
     </g>
     <g id="text_16">
      <!-- $\mathdefault{10^{-5}}$ -->
      <g style="fill: #66727a" transform="translate(273.488604 180.034062)">
       <text>
        <tspan x="0" y="-0.776563" style="font-size: 7.8px; font-family: 'Source Serif 4'; fill: #66727a">1</tspan>
        <tspan x="4.124542" y="-0.776563" style="font-size: 7.8px; font-family: 'Source Serif 4'; fill: #66727a">0</tspan>
        <tspan x="8.31635" y="-3.467188" style="font-size: 5.46px; font-family: 'Source Serif 4'; fill: #66727a">−</tspan>
        <tspan x="11.23082" y="-3.467188" style="font-size: 5.46px; font-family: 'Source Serif 4'; fill: #66727a">5</tspan>
       </text>
      </g>
     </g>
    </g>
    <g id="xtick_9">
     <g id="line2d_15">
      <g>
       <use xlink:href="#m33cb866227" x="328.097898" y="168.501062" style="fill: #18232d; stroke: #18232d; stroke-width: 0.48"/>
      </g>
     </g>
     <g id="text_17">
      <!-- $\mathdefault{10^{-3}}$ -->
      <g style="fill: #66727a" transform="translate(320.921898 180.034062)">
       <text>
        <tspan x="0" y="-0.710938" style="font-size: 7.8px; font-family: 'Source Serif 4'; fill: #66727a">1</tspan>
        <tspan x="4.124542" y="-0.710938" style="font-size: 7.8px; font-family: 'Source Serif 4'; fill: #66727a">0</tspan>
        <tspan x="8.31635" y="-3.401562" style="font-size: 5.46px; font-family: 'Source Serif 4'; fill: #66727a">−</tspan>
        <tspan x="11.23082" y="-3.401562" style="font-size: 5.46px; font-family: 'Source Serif 4'; fill: #66727a">3</tspan>
       </text>
      </g>
     </g>
    </g>
    <g id="xtick_10">
     <g id="line2d_16">
      <g>
       <use xlink:href="#m33cb866227" x="375.531192" y="168.501062" style="fill: #18232d; stroke: #18232d; stroke-width: 0.48"/>
      </g>
     </g>
     <g id="text_18">
      <!-- $\mathdefault{10^{-1}}$ -->
      <g style="fill: #66727a" transform="translate(368.355192 180.034062)">
       <text>
        <tspan x="0" y="-0.754688" style="font-size: 7.8px; font-family: 'Source Serif 4'; fill: #66727a">1</tspan>
        <tspan x="4.124542" y="-0.754688" style="font-size: 7.8px; font-family: 'Source Serif 4'; fill: #66727a">0</tspan>
        <tspan x="8.31635" y="-3.445313" style="font-size: 5.46px; font-family: 'Source Serif 4'; fill: #66727a">−</tspan>
        <tspan x="11.23082" y="-3.445313" style="font-size: 5.46px; font-family: 'Source Serif 4'; fill: #66727a">1</tspan>
       </text>
      </g>
     </g>
    </g>
    <g id="xtick_11">
     <g id="line2d_17">
      <g>
       <use xlink:href="#m33cb866227" x="422.964486" y="168.501062" style="fill: #18232d; stroke: #18232d; stroke-width: 0.48"/>
      </g>
     </g>
     <g id="text_19">
      <!-- $\mathdefault{10^{1}}$ -->
      <g style="fill: #66727a" transform="translate(417.231486 180.034062)">
       <text>
        <tspan x="0" y="-0.754688" style="font-size: 7.8px; font-family: 'Source Serif 4'; fill: #66727a">1</tspan>
        <tspan x="4.124542" y="-0.754688" style="font-size: 7.8px; font-family: 'Source Serif 4'; fill: #66727a">0</tspan>
        <tspan x="8.31635" y="-3.445313" style="font-size: 5.46px; font-family: 'Source Serif 4'; fill: #66727a">1</tspan>
       </text>
      </g>
     </g>
    </g>
    <g id="text_20">
     <text style="font-size: 9.2px; font-family: 'Source Serif 4'; text-anchor: middle; fill: #18232d" x="339.956222" y="193.605906" transform="rotate(-0 339.956222 193.605906)">weight penalty</text>
    </g>
   </g>
   <g id="matplotlib.axis_4">
    <g id="ytick_6">
     <g id="line2d_18">
      <g>
       <use xlink:href="#m898694350a" x="248.647131" y="143.066914" style="fill: #18232d; stroke: #18232d; stroke-width: 0.48"/>
      </g>
     </g>
     <g id="text_21">
      <!-- $\mathdefault{10^{-1}}$ -->
      <g style="fill: #66727a" transform="translate(228.495131 145.933414)">
       <text>
        <tspan x="0" y="-0.754688" style="font-size: 7.8px; font-family: 'Source Serif 4'; fill: #66727a">1</tspan>
        <tspan x="4.124542" y="-0.754688" style="font-size: 7.8px; font-family: 'Source Serif 4'; fill: #66727a">0</tspan>
        <tspan x="8.31635" y="-3.445313" style="font-size: 5.46px; font-family: 'Source Serif 4'; fill: #66727a">−</tspan>
        <tspan x="11.23082" y="-3.445313" style="font-size: 5.46px; font-family: 'Source Serif 4'; fill: #66727a">1</tspan>
       </text>
      </g>
     </g>
    </g>
    <g id="ytick_7">
     <g id="line2d_19">
      <g>
       <use xlink:href="#m898694350a" x="248.647131" y="114.017924" style="fill: #18232d; stroke: #18232d; stroke-width: 0.48"/>
      </g>
     </g>
     <g id="text_22">
      <!-- $\mathdefault{10^{0}}$ -->
      <g style="fill: #66727a" transform="translate(231.381131 116.884424)">
       <text>
        <tspan x="0" y="-0.710938" style="font-size: 7.8px; font-family: 'Source Serif 4'; fill: #66727a">1</tspan>
        <tspan x="4.124542" y="-0.710938" style="font-size: 7.8px; font-family: 'Source Serif 4'; fill: #66727a">0</tspan>
        <tspan x="8.31635" y="-3.401562" style="font-size: 5.46px; font-family: 'Source Serif 4'; fill: #66727a">0</tspan>
       </text>
      </g>
     </g>
    </g>
    <g id="ytick_8">
     <g id="line2d_20">
      <g>
       <use xlink:href="#m898694350a" x="248.647131" y="84.968935" style="fill: #18232d; stroke: #18232d; stroke-width: 0.48"/>
      </g>
     </g>
     <g id="text_23">
      <!-- $\mathdefault{10^{1}}$ -->
      <g style="fill: #66727a" transform="translate(231.381131 87.835435)">
       <text>
        <tspan x="0" y="-0.754688" style="font-size: 7.8px; font-family: 'Source Serif 4'; fill: #66727a">1</tspan>
        <tspan x="4.124542" y="-0.754688" style="font-size: 7.8px; font-family: 'Source Serif 4'; fill: #66727a">0</tspan>
        <tspan x="8.31635" y="-3.445313" style="font-size: 5.46px; font-family: 'Source Serif 4'; fill: #66727a">1</tspan>
       </text>
      </g>
     </g>
    </g>
    <g id="ytick_9">
     <g id="line2d_21">
      <g>
       <use xlink:href="#m898694350a" x="248.647131" y="55.919946" style="fill: #18232d; stroke: #18232d; stroke-width: 0.48"/>
      </g>
     </g>
     <g id="text_24">
      <!-- $\mathdefault{10^{2}}$ -->
      <g style="fill: #66727a" transform="translate(231.381131 58.786446)">
       <text>
        <tspan x="0" y="-0.710938" style="font-size: 7.8px; font-family: 'Source Serif 4'; fill: #66727a">1</tspan>
        <tspan x="4.124542" y="-0.710938" style="font-size: 7.8px; font-family: 'Source Serif 4'; fill: #66727a">0</tspan>
        <tspan x="8.31635" y="-3.401562" style="font-size: 5.46px; font-family: 'Source Serif 4'; fill: #66727a">2</tspan>
       </text>
      </g>
     </g>
    </g>
    <g id="ytick_10">
     <g id="line2d_22">
      <g>
       <use xlink:href="#m898694350a" x="248.647131" y="26.870956" style="fill: #18232d; stroke: #18232d; stroke-width: 0.48"/>
      </g>
     </g>
     <g id="text_25">
      <!-- $\mathdefault{10^{3}}$ -->
      <g style="fill: #66727a" transform="translate(231.381131 29.737456)">
       <text>
        <tspan x="0" y="-0.710938" style="font-size: 7.8px; font-family: 'Source Serif 4'; fill: #66727a">1</tspan>
        <tspan x="4.124542" y="-0.710938" style="font-size: 7.8px; font-family: 'Source Serif 4'; fill: #66727a">0</tspan>
        <tspan x="8.31635" y="-3.401562" style="font-size: 5.46px; font-family: 'Source Serif 4'; fill: #66727a">3</tspan>
       </text>
      </g>
     </g>
    </g>
    <g id="ytick_11">
     <g id="line2d_23">
      <defs>
       <path id="md97c196699" d="M 0 0 
L -2 0 
" style="stroke: #66727a; stroke-width: 0.6"/>
      </defs>
      <g>
       <use xlink:href="#md97c196699" x="248.647131" y="163.371286" style="fill: #66727a; stroke: #66727a; stroke-width: 0.6"/>
      </g>
     </g>
    </g>
    <g id="ytick_12">
     <g id="line2d_24">
      <g>
       <use xlink:href="#md97c196699" x="248.647131" y="158.256013" style="fill: #66727a; stroke: #66727a; stroke-width: 0.6"/>
      </g>
     </g>
    </g>
    <g id="ytick_13">
     <g id="line2d_25">
      <g>
       <use xlink:href="#md97c196699" x="248.647131" y="154.626669" style="fill: #66727a; stroke: #66727a; stroke-width: 0.6"/>
      </g>
     </g>
    </g>
    <g id="ytick_14">
     <g id="line2d_26">
      <g>
       <use xlink:href="#md97c196699" x="248.647131" y="151.811531" style="fill: #66727a; stroke: #66727a; stroke-width: 0.6"/>
      </g>
     </g>
    </g>
    <g id="ytick_15">
     <g id="line2d_27">
      <g>
       <use xlink:href="#md97c196699" x="248.647131" y="149.511395" style="fill: #66727a; stroke: #66727a; stroke-width: 0.6"/>
      </g>
     </g>
    </g>
    <g id="ytick_16">
     <g id="line2d_28">
      <g>
       <use xlink:href="#md97c196699" x="248.647131" y="147.566659" style="fill: #66727a; stroke: #66727a; stroke-width: 0.6"/>
      </g>
     </g>
    </g>
    <g id="ytick_17">
     <g id="line2d_29">
      <g>
       <use xlink:href="#md97c196699" x="248.647131" y="145.882051" style="fill: #66727a; stroke: #66727a; stroke-width: 0.6"/>
      </g>
     </g>
    </g>
    <g id="ytick_18">
     <g id="line2d_30">
      <g>
       <use xlink:href="#md97c196699" x="248.647131" y="144.396122" style="fill: #66727a; stroke: #66727a; stroke-width: 0.6"/>
      </g>
     </g>
    </g>
    <g id="ytick_19">
     <g id="line2d_31">
      <g>
       <use xlink:href="#md97c196699" x="248.647131" y="134.322296" style="fill: #66727a; stroke: #66727a; stroke-width: 0.6"/>
      </g>
     </g>
    </g>
    <g id="ytick_20">
     <g id="line2d_32">
      <g>
       <use xlink:href="#md97c196699" x="248.647131" y="129.207023" style="fill: #66727a; stroke: #66727a; stroke-width: 0.6"/>
      </g>
     </g>
    </g>
    <g id="ytick_21">
     <g id="line2d_33">
      <g>
       <use xlink:href="#md97c196699" x="248.647131" y="125.577679" style="fill: #66727a; stroke: #66727a; stroke-width: 0.6"/>
      </g>
     </g>
    </g>
    <g id="ytick_22">
     <g id="line2d_34">
      <g>
       <use xlink:href="#md97c196699" x="248.647131" y="122.762541" style="fill: #66727a; stroke: #66727a; stroke-width: 0.6"/>
      </g>
     </g>
    </g>
    <g id="ytick_23">
     <g id="line2d_35">
      <g>
       <use xlink:href="#md97c196699" x="248.647131" y="120.462406" style="fill: #66727a; stroke: #66727a; stroke-width: 0.6"/>
      </g>
     </g>
    </g>
    <g id="ytick_24">
     <g id="line2d_36">
      <g>
       <use xlink:href="#md97c196699" x="248.647131" y="118.51767" style="fill: #66727a; stroke: #66727a; stroke-width: 0.6"/>
      </g>
     </g>
    </g>
    <g id="ytick_25">
     <g id="line2d_37">
      <g>
       <use xlink:href="#md97c196699" x="248.647131" y="116.833062" style="fill: #66727a; stroke: #66727a; stroke-width: 0.6"/>
      </g>
     </g>
    </g>
    <g id="ytick_26">
     <g id="line2d_38">
      <g>
       <use xlink:href="#md97c196699" x="248.647131" y="115.347133" style="fill: #66727a; stroke: #66727a; stroke-width: 0.6"/>
      </g>
     </g>
    </g>
    <g id="ytick_27">
     <g id="line2d_39">
      <g>
       <use xlink:href="#md97c196699" x="248.647131" y="105.273307" style="fill: #66727a; stroke: #66727a; stroke-width: 0.6"/>
      </g>
     </g>
    </g>
    <g id="ytick_28">
     <g id="line2d_40">
      <g>
       <use xlink:href="#md97c196699" x="248.647131" y="100.158034" style="fill: #66727a; stroke: #66727a; stroke-width: 0.6"/>
      </g>
     </g>
    </g>
    <g id="ytick_29">
     <g id="line2d_41">
      <g>
       <use xlink:href="#md97c196699" x="248.647131" y="96.52869" style="fill: #66727a; stroke: #66727a; stroke-width: 0.6"/>
      </g>
     </g>
    </g>
    <g id="ytick_30">
     <g id="line2d_42">
      <g>
       <use xlink:href="#md97c196699" x="248.647131" y="93.713552" style="fill: #66727a; stroke: #66727a; stroke-width: 0.6"/>
      </g>
     </g>
    </g>
    <g id="ytick_31">
     <g id="line2d_43">
      <g>
       <use xlink:href="#md97c196699" x="248.647131" y="91.413417" style="fill: #66727a; stroke: #66727a; stroke-width: 0.6"/>
      </g>
     </g>
    </g>
    <g id="ytick_32">
     <g id="line2d_44">
      <g>
       <use xlink:href="#md97c196699" x="248.647131" y="89.46868" style="fill: #66727a; stroke: #66727a; stroke-width: 0.6"/>
      </g>
     </g>
    </g>
    <g id="ytick_33">
     <g id="line2d_45">
      <g>
       <use xlink:href="#md97c196699" x="248.647131" y="87.784073" style="fill: #66727a; stroke: #66727a; stroke-width: 0.6"/>
      </g>
     </g>
    </g>
    <g id="ytick_34">
     <g id="line2d_46">
      <g>
       <use xlink:href="#md97c196699" x="248.647131" y="86.298144" style="fill: #66727a; stroke: #66727a; stroke-width: 0.6"/>
      </g>
     </g>
    </g>
    <g id="ytick_35">
     <g id="line2d_47">
      <g>
       <use xlink:href="#md97c196699" x="248.647131" y="76.224318" style="fill: #66727a; stroke: #66727a; stroke-width: 0.6"/>
      </g>
     </g>
    </g>
    <g id="ytick_36">
     <g id="line2d_48">
      <g>
       <use xlink:href="#md97c196699" x="248.647131" y="71.109045" style="fill: #66727a; stroke: #66727a; stroke-width: 0.6"/>
      </g>
     </g>
    </g>
    <g id="ytick_37">
     <g id="line2d_49">
      <g>
       <use xlink:href="#md97c196699" x="248.647131" y="67.479701" style="fill: #66727a; stroke: #66727a; stroke-width: 0.6"/>
      </g>
     </g>
    </g>
    <g id="ytick_38">
     <g id="line2d_50">
      <g>
       <use xlink:href="#md97c196699" x="248.647131" y="64.664563" style="fill: #66727a; stroke: #66727a; stroke-width: 0.6"/>
      </g>
     </g>
    </g>
    <g id="ytick_39">
     <g id="line2d_51">
      <g>
       <use xlink:href="#md97c196699" x="248.647131" y="62.364428" style="fill: #66727a; stroke: #66727a; stroke-width: 0.6"/>
      </g>
     </g>
    </g>
    <g id="ytick_40">
     <g id="line2d_52">
      <g>
       <use xlink:href="#md97c196699" x="248.647131" y="60.419691" style="fill: #66727a; stroke: #66727a; stroke-width: 0.6"/>
      </g>
     </g>
    </g>
    <g id="ytick_41">
     <g id="line2d_53">
      <g>
       <use xlink:href="#md97c196699" x="248.647131" y="58.735084" style="fill: #66727a; stroke: #66727a; stroke-width: 0.6"/>
      </g>
     </g>
    </g>
    <g id="ytick_42">
     <g id="line2d_54">
      <g>
       <use xlink:href="#md97c196699" x="248.647131" y="57.249155" style="fill: #66727a; stroke: #66727a; stroke-width: 0.6"/>
      </g>
     </g>
    </g>
    <g id="ytick_43">
     <g id="line2d_55">
      <g>
       <use xlink:href="#md97c196699" x="248.647131" y="47.175329" style="fill: #66727a; stroke: #66727a; stroke-width: 0.6"/>
      </g>
     </g>
    </g>
    <g id="ytick_44">
     <g id="line2d_56">
      <g>
       <use xlink:href="#md97c196699" x="248.647131" y="42.060056" style="fill: #66727a; stroke: #66727a; stroke-width: 0.6"/>
      </g>
     </g>
    </g>
    <g id="ytick_45">
     <g id="line2d_57">
      <g>
       <use xlink:href="#md97c196699" x="248.647131" y="38.430712" style="fill: #66727a; stroke: #66727a; stroke-width: 0.6"/>
      </g>
     </g>
    </g>
    <g id="ytick_46">
     <g id="line2d_58">
      <g>
       <use xlink:href="#md97c196699" x="248.647131" y="35.615574" style="fill: #66727a; stroke: #66727a; stroke-width: 0.6"/>
      </g>
     </g>
    </g>
    <g id="ytick_47">
     <g id="line2d_59">
      <g>
       <use xlink:href="#md97c196699" x="248.647131" y="33.315438" style="fill: #66727a; stroke: #66727a; stroke-width: 0.6"/>
      </g>
     </g>
    </g>
    <g id="ytick_48">
     <g id="line2d_60">
      <g>
       <use xlink:href="#md97c196699" x="248.647131" y="31.370702" style="fill: #66727a; stroke: #66727a; stroke-width: 0.6"/>
      </g>
     </g>
    </g>
    <g id="ytick_49">
     <g id="line2d_61">
      <g>
       <use xlink:href="#md97c196699" x="248.647131" y="29.686094" style="fill: #66727a; stroke: #66727a; stroke-width: 0.6"/>
      </g>
     </g>
    </g>
    <g id="ytick_50">
     <g id="line2d_62">
      <g>
       <use xlink:href="#md97c196699" x="248.647131" y="28.200165" style="fill: #66727a; stroke: #66727a; stroke-width: 0.6"/>
      </g>
     </g>
    </g>
    <g id="ytick_51">
     <g id="line2d_63">
      <g>
       <use xlink:href="#md97c196699" x="248.647131" y="18.126339" style="fill: #66727a; stroke: #66727a; stroke-width: 0.6"/>
      </g>
     </g>
    </g>
    <g id="text_26">
     <text style="font-size: 9.2px; font-family: 'Source Serif 4'; text-anchor: middle; fill: #18232d" x="221.259818" y="90.885062" transform="rotate(-90 221.259818 90.885062)">instability diagnostic</text>
    </g>
   </g>
   <g id="line2d_64">
    <path d="M 256.947957 74.940635 
L 258.813311 75.782106 
L 260.678666 76.626583 
L 262.54402 77.473901 
L 264.409374 78.323621 
L 266.274728 79.175182 
L 268.140083 80.028086 
L 270.005437 80.882044 
L 271.870791 81.737061 
L 273.736145 82.593418 
L 275.6015 83.451578 
L 277.466854 84.312029 
L 279.332208 85.175125 
L 281.197562 86.040949 
L 283.062917 86.90927 
L 284.928271 87.779571 
L 286.793625 88.651178 
L 288.65898 89.523417 
L 290.524334 90.395785 
L 292.389688 91.268071 
L 294.255042 92.1404 
L 296.120397 93.013191 
L 297.985751 93.887039 
L 299.851105 94.762562 
L 301.716459 95.64026 
L 303.581814 96.520416 
L 305.447168 97.403071 
L 307.312522 98.288073 
L 309.177876 99.175175 
L 311.043231 100.06415 
L 312.908585 100.954877 
L 314.773939 101.84738 
L 316.639293 102.741795 
L 318.504648 103.638293 
L 320.370002 104.53698 
L 322.235356 105.437814 
L 324.10071 106.340574 
L 325.966065 107.244884 
L 327.831419 108.150299 
L 329.696773 109.056418 
L 331.562127 109.962991 
L 333.427482 110.869983 
L 335.292836 111.777583 
L 337.15819 112.68615 
L 339.023544 113.596123 
L 340.888899 114.507923 
L 342.754253 115.421873 
L 344.619607 116.338165 
L 346.484961 117.256871 
L 348.350316 118.177978 
L 350.21567 119.101438 
L 352.081024 120.027199 
L 353.946379 120.955198 
L 355.811733 121.885345 
L 357.677087 122.817476 
L 359.542441 123.751328 
L 361.407796 124.686545 
L 363.27315 125.622707 
L 365.138504 126.559393 
L 367.003858 127.496251 
L 368.869213 128.433041 
L 370.734567 129.369659 
L 372.599921 130.306117 
L 374.465275 131.242497 
L 376.33063 132.178899 
L 378.195984 133.115399 
L 380.061338 134.052016 
L 381.926692 134.98871 
L 383.792047 135.925385 
L 385.657401 136.861894 
L 387.522755 137.798047 
L 389.388109 138.733602 
L 391.253464 139.668268 
L 393.118818 140.601691 
L 394.984172 141.533457 
L 396.849526 142.46307 
L 398.714881 143.389936 
L 400.580235 144.313316 
L 402.445589 145.232271 
L 404.310943 146.145599 
L 406.176298 147.051773 
L 408.041652 147.948903 
L 409.907006 148.834719 
L 411.772361 149.706588 
L 413.637715 150.561564 
L 415.503069 151.396454 
L 417.368423 152.207919 
L 419.233778 152.992578 
L 421.099132 153.747119 
L 422.964486 154.468411 
" clip-path="url(#p5a8c29a32d)" style="fill: none; stroke: #98452f; stroke-width: 1.3; stroke-linecap: round"/>
   </g>
   <g id="line2d_65">
    <path d="M 256.947957 20.325063 
L 258.813311 22.241532 
L 260.678666 24.171555 
L 262.54402 26.111922 
L 264.409374 28.05708 
L 266.274728 30.000716 
L 268.140083 31.937529 
L 270.005437 33.864681 
L 271.870791 35.782525 
L 273.736145 37.694392 
L 275.6015 39.605527 
L 277.466854 41.521511 
L 279.332208 43.446628 
L 281.197562 45.382651 
L 283.062917 47.328352 
L 284.928271 49.279866 
L 286.793625 51.23179 
L 288.65898 53.178707 
L 290.524334 55.116705 
L 292.389688 57.044428 
L 294.255042 58.963354 
L 296.120397 60.877237 
L 297.985751 62.790899 
L 299.851105 64.70878 
L 301.716459 66.633679 
L 303.581814 68.566051 
L 305.447168 70.504053 
L 307.312522 72.444273 
L 309.177876 74.382921 
L 311.043231 76.317058 
L 312.908585 78.245491 
L 314.773939 80.16902 
L 316.639293 82.089991 
L 318.504648 84.011318 
L 320.370002 85.935353 
L 322.235356 87.862972 
L 324.10071 89.793199 
L 325.966065 91.723463 
L 327.831419 93.650403 
L 329.696773 95.570911 
L 331.562127 97.483066 
L 333.427482 99.386624 
L 335.292836 101.282912 
L 337.15819 103.174198 
L 339.023544 105.062782 
L 340.888899 106.950168 
L 342.754253 108.83658 
L 344.619607 110.720986 
L 346.484961 112.601547 
L 348.350316 114.47629 
L 350.21567 116.343683 
L 352.081024 118.202885 
L 353.946379 120.05357 
L 355.811733 121.895405 
L 357.677087 123.727437 
L 359.542441 125.547628 
L 361.407796 127.352754 
L 363.27315 129.138677 
L 365.138504 130.900879 
L 367.003858 132.635022 
L 368.869213 134.337313 
L 370.734567 136.004571 
L 372.599921 137.634022 
L 374.465275 139.222985 
L 376.33063 140.768628 
L 378.195984 142.267927 
L 380.061338 143.717829 
L 381.926692 145.115511 
L 383.792047 146.458612 
L 385.657401 147.745327 
L 387.522755 148.974352 
L 389.388109 150.144743 
L 391.253464 151.255776 
L 393.118818 152.306865 
L 394.984172 153.297546 
L 396.849526 154.227495 
L 398.714881 155.096554 
L 400.580235 155.904759 
L 402.445589 156.652382 
L 404.310943 157.340019 
L 406.176298 157.968714 
L 408.041652 158.54009 
L 409.907006 159.056456 
L 411.772361 159.520825 
L 413.637715 159.936861 
L 415.503069 160.308742 
L 417.368423 160.640968 
L 419.233778 160.938151 
L 421.099132 161.204787 
L 422.964486 161.445062 
" clip-path="url(#p5a8c29a32d)" style="fill: none; stroke: #315f78; stroke-width: 1.3; stroke-linecap: round"/>
   </g>
   <g id="patch_6">
    <path d="M 248.647131 168.501062 
L 248.647131 13.269062 
" style="fill: none; stroke: #18232d; stroke-width: 0.48; stroke-linejoin: miter; stroke-linecap: square"/>
   </g>
   <g id="patch_7">
    <path d="M 248.647131 168.501062 
L 431.265312 168.501062 
" style="fill: none; stroke: #18232d; stroke-width: 0.48; stroke-linejoin: miter; stroke-linecap: square"/>
   </g>
   <g id="text_27">
    <text style="font-weight: 600; font-size: 8.6px; font-family: 'Source Serif 4'; text-anchor: start; fill: #18232d" x="248.647131" y="7.769062" transform="rotate(-0 248.647131 7.769062)">Regularization controls weight concentration</text>
   </g>
   <g id="legend_1">
    <g id="line2d_66">
     <path d="M 359.496781 22.512063 
L 367.686781 22.512063 
L 375.876781 22.512063 
" style="fill: none; stroke: #98452f; stroke-width: 1.3; stroke-linecap: round"/>
    </g>
    <g id="text_28">
     <!-- $\max_i|w_i|$ -->
     <g style="fill: #18232d" transform="translate(382.116781 25.242063)">
      <text>
       <tspan x="0" y="-0.59375" style="font-size: 7.8px; font-family: 'STIXGeneral'; fill: #18232d">m</tspan>
       <tspan x="6.029495" y="-0.59375" style="font-size: 7.8px; font-family: 'STIXGeneral'; fill: #18232d">a</tspan>
       <tspan x="9.47049" y="-0.59375" style="font-size: 7.8px; font-family: 'STIXGeneral'; fill: #18232d">x</tspan>
       <tspan x="13.34549" y="-0.59375" style="font-size: 7.8px; font-family: 'STIXGeneral'; fill: #18232d">|</tspan>
       <tspan x="22.8586" y="-0.59375" style="font-size: 7.8px; font-family: 'STIXGeneral'; fill: #18232d">|</tspan>
       <tspan x="6" y="4.610938" style="font-style: italic; font-size: 5.46px; font-family: 'STIXGeneral'; fill: #18232d">i</tspan>
       <tspan x="20.064728" y="0.465625" style="font-style: italic; font-size: 5.46px; font-family: 'STIXGeneral'; fill: #18232d">i</tspan>
       <tspan x="14.895477" y="-0.59375" style="font-style: italic; font-size: 7.8px; font-family: 'STIXGeneral'; fill: #18232d">w</tspan>
      </text>
     </g>
    </g>
    <g id="line2d_67">
     <path d="M 359.496781 37.371063 
L 367.686781 37.371063 
L 375.876781 37.371063 
" style="fill: none; stroke: #315f78; stroke-width: 1.3; stroke-linecap: round"/>
    </g>
    <g id="text_29">
     <text style="font-size: 7.8px; font-family: 'Source Serif 4'; text-anchor: start; fill: #18232d" x="382.116781" y="40.101063" transform="rotate(-0 382.116781 40.101063)">inverse ESS</text>
    </g>
   </g>
  </g>
 </g>
 <defs>
  <clipPath id="pf80ed3772d">
   <rect x="29.505313" y="13.269062" width="182.618182" height="155.232"/>
  </clipPath>
  <clipPath id="p5a8c29a32d">
   <rect x="248.647131" y="13.269062" width="182.618182" height="155.232"/>
  </clipPath>
 </defs>
</svg>
