<?xml version="1.0" encoding="utf-8" standalone="no"?>
<!DOCTYPE svg PUBLIC "-//W3C//DTD SVG 1.1//EN"
  "http://www.w3.org/Graphics/SVG/1.1/DTD/svg11.dtd">
<svg xmlns:xlink="http://www.w3.org/1999/xlink" width="334.913437pt" height="222.871906pt" viewBox="0 0 334.913437 222.871906" xmlns="http://www.w3.org/2000/svg" version="1.1">
 <metadata>
  <rdf:RDF xmlns:dc="http://purl.org/dc/elements/1.1/" xmlns:cc="http://creativecommons.org/ns#" xmlns:rdf="http://www.w3.org/1999/02/22-rdf-syntax-ns#">
   <cc:Work>
    <dc:type rdf:resource="http://purl.org/dc/dcmitype/StillImage"/>
    <dc:format>image/svg+xml</dc:format>
    <dc:creator>
     <cc:Agent>
      <dc:title>Kernels figure pipeline</dc:title>
     </cc:Agent>
    </dc:creator>
   </cc:Work>
  </rdf:RDF>
 </metadata>
 <defs>
  <style type="text/css">*{stroke-linejoin: round; stroke-linecap: butt}</style>
 </defs>
 <g id="figure_1">
  <g id="patch_1">
   <path d="M 0 222.871906 
L 334.913437 222.871906 
L 334.913437 0 
L 0 0 
L 0 222.871906 
z
" style="fill: none"/>
  </g>
  <g id="axes_1">
   <g id="patch_2">
    <path d="M 32.153438 191.554406 
L 333.473438 191.554406 
L 333.473438 14.146406 
L 32.153438 14.146406 
L 32.153438 191.554406 
z
" style="fill: none"/>
   </g>
   <g id="matplotlib.axis_1">
    <g id="xtick_1">
     <g id="line2d_1">
      <defs>
       <path id="m4ae3e2b08d" d="M 0 0 
L 0 3 
" style="stroke: #d9d2c4; stroke-width: 0.8"/>
      </defs>
      <g>
       <use xlink:href="#m4ae3e2b08d" x="39.206412" y="191.554406" style="fill: #d9d2c4; stroke: #d9d2c4; stroke-width: 0.8"/>
      </g>
     </g>
     <g id="text_1">
      <!-- −0.05 -->
      <g style="fill: #59616b" transform="translate(29.406412 203.701906) scale(0.08 -0.08)">
       <defs>
        <path id="STIXTwoText-2212" d="M 4211 1434 
L 397 1434 
L 397 1869 
L 4211 1869 
L 4211 1434 
z
" transform="scale(0.015625)"/>
        <path id="STIXTwoText-30" d="M 1581 -70 
Q 1197 -70 928 99 
Q 659 269 492 563 
Q 326 858 249 1242 
Q 173 1626 173 2048 
Q 173 2656 336 3120 
Q 499 3584 816 3846 
Q 1133 4109 1594 4109 
Q 2010 4109 2323 3862 
Q 2637 3616 2816 3152 
Q 2995 2688 2995 2029 
Q 2995 1619 2915 1241 
Q 2835 864 2665 569 
Q 2496 275 2227 102 
Q 1958 -70 1581 -70 
z
M 1581 160 
Q 1958 160 2166 614 
Q 2374 1069 2374 1990 
Q 2374 2963 2172 3427 
Q 1971 3891 1574 3891 
Q 1197 3891 992 3430 
Q 787 2970 787 2016 
Q 787 1088 992 624 
Q 1197 160 1581 160 
z
" transform="scale(0.015625)"/>
        <path id="STIXTwoText-2e" d="M 774 -51 
Q 582 -51 489 57 
Q 397 166 397 326 
Q 397 493 499 611 
Q 602 730 781 730 
Q 966 730 1068 608 
Q 1171 486 1171 320 
Q 1171 173 1068 61 
Q 966 -51 774 -51 
z
" transform="scale(0.015625)"/>
        <path id="STIXTwoText-35" d="M 1114 -83 
Q 742 -83 560 6 
Q 378 96 378 275 
Q 378 384 445 467 
Q 512 550 634 550 
Q 730 550 822 502 
Q 915 454 1014 393 
Q 1114 333 1235 285 
Q 1357 237 1510 237 
Q 1741 237 1936 326 
Q 2131 416 2249 614 
Q 2368 813 2368 1146 
Q 2368 1504 2227 1721 
Q 2086 1939 1849 2054 
Q 1613 2170 1315 2214 
Q 1018 2259 698 2266 
L 621 2362 
L 1018 4032 
L 2771 4032 
L 2669 3514 
L 1165 3514 
L 992 2784 
Q 1312 2758 1590 2704 
Q 1869 2650 2096 2554 
Q 2323 2458 2489 2301 
Q 2656 2144 2745 1923 
Q 2835 1702 2835 1402 
Q 2835 1030 2710 752 
Q 2586 474 2355 288 
Q 2125 102 1811 9 
Q 1498 -83 1114 -83 
z
" transform="scale(0.015625)"/>
       </defs>
       <use xlink:href="#STIXTwoText-2212"/>
       <use xlink:href="#STIXTwoText-30" transform="translate(71.999985 0)"/>
       <use xlink:href="#STIXTwoText-2e" transform="translate(121.499969 0)"/>
       <use xlink:href="#STIXTwoText-30" transform="translate(145.999954 0)"/>
       <use xlink:href="#STIXTwoText-35" transform="translate(195.499939 0)"/>
      </g>
     </g>
    </g>
    <g id="xtick_2">
     <g id="line2d_2">
      <g>
       <use xlink:href="#m4ae3e2b08d" x="81.480636" y="191.554406" style="fill: #d9d2c4; stroke: #d9d2c4; stroke-width: 0.8"/>
      </g>
     </g>
     <g id="text_2">
      <!-- 0.00 -->
      <g style="fill: #59616b" transform="translate(74.560636 203.701906) scale(0.08 -0.08)">
       <use xlink:href="#STIXTwoText-30"/>
       <use xlink:href="#STIXTwoText-2e" transform="translate(49.499985 0)"/>
       <use xlink:href="#STIXTwoText-30" transform="translate(73.999969 0)"/>
       <use xlink:href="#STIXTwoText-30" transform="translate(123.499954 0)"/>
      </g>
     </g>
    </g>
    <g id="xtick_3">
     <g id="line2d_3">
      <g>
       <use xlink:href="#m4ae3e2b08d" x="123.75486" y="191.554406" style="fill: #d9d2c4; stroke: #d9d2c4; stroke-width: 0.8"/>
      </g>
     </g>
     <g id="text_3">
      <!-- 0.05 -->
      <g style="fill: #59616b" transform="translate(116.83486 203.701906) scale(0.08 -0.08)">
       <use xlink:href="#STIXTwoText-30"/>
       <use xlink:href="#STIXTwoText-2e" transform="translate(49.499985 0)"/>
       <use xlink:href="#STIXTwoText-30" transform="translate(73.999969 0)"/>
       <use xlink:href="#STIXTwoText-35" transform="translate(123.499954 0)"/>
      </g>
     </g>
    </g>
    <g id="xtick_4">
     <g id="line2d_4">
      <g>
       <use xlink:href="#m4ae3e2b08d" x="166.029084" y="191.554406" style="fill: #d9d2c4; stroke: #d9d2c4; stroke-width: 0.8"/>
      </g>
     </g>
     <g id="text_4">
      <!-- 0.10 -->
      <g style="fill: #59616b" transform="translate(159.109084 203.701906) scale(0.08 -0.08)">
       <defs>
        <path id="STIXTwoText-31" d="M 2726 0 
L 512 0 
L 512 179 
Q 966 179 1152 275 
Q 1338 371 1338 608 
L 1338 3315 
Q 1338 3482 1293 3555 
Q 1248 3629 1126 3629 
Q 1062 3629 947 3616 
Q 832 3603 704 3580 
Q 576 3558 474 3526 
L 474 3738 
L 1715 4090 
L 1901 4090 
L 1901 608 
Q 1901 371 2093 275 
Q 2285 179 2726 179 
L 2726 0 
z
" transform="scale(0.015625)"/>
       </defs>
       <use xlink:href="#STIXTwoText-30"/>
       <use xlink:href="#STIXTwoText-2e" transform="translate(49.499985 0)"/>
       <use xlink:href="#STIXTwoText-31" transform="translate(73.999969 0)"/>
       <use xlink:href="#STIXTwoText-30" transform="translate(123.499954 0)"/>
      </g>
     </g>
    </g>
    <g id="xtick_5">
     <g id="line2d_5">
      <g>
       <use xlink:href="#m4ae3e2b08d" x="208.303308" y="191.554406" style="fill: #d9d2c4; stroke: #d9d2c4; stroke-width: 0.8"/>
      </g>
     </g>
     <g id="text_5">
      <!-- 0.15 -->
      <g style="fill: #59616b" transform="translate(201.383308 203.701906) scale(0.08 -0.08)">
       <use xlink:href="#STIXTwoText-30"/>
       <use xlink:href="#STIXTwoText-2e" transform="translate(49.499985 0)"/>
       <use xlink:href="#STIXTwoText-31" transform="translate(73.999969 0)"/>
       <use xlink:href="#STIXTwoText-35" transform="translate(123.499954 0)"/>
      </g>
     </g>
    </g>
    <g id="xtick_6">
     <g id="line2d_6">
      <g>
       <use xlink:href="#m4ae3e2b08d" x="250.577531" y="191.554406" style="fill: #d9d2c4; stroke: #d9d2c4; stroke-width: 0.8"/>
      </g>
     </g>
     <g id="text_6">
      <!-- 0.20 -->
      <g style="fill: #59616b" transform="translate(243.657531 203.701906) scale(0.08 -0.08)">
       <defs>
        <path id="STIXTwoText-32" d="M 2765 0 
L 243 0 
L 243 218 
L 1216 1190 
Q 1536 1517 1747 1782 
Q 1958 2048 2064 2317 
Q 2170 2586 2170 2918 
Q 2170 3277 1955 3491 
Q 1741 3706 1370 3706 
Q 1056 3706 835 3571 
Q 614 3437 435 3078 
L 282 3142 
Q 429 3610 749 3866 
Q 1069 4122 1536 4122 
Q 1901 4122 2176 3984 
Q 2451 3846 2608 3600 
Q 2765 3354 2765 3014 
Q 2765 2733 2646 2473 
Q 2528 2214 2294 1939 
Q 2061 1664 1722 1318 
L 877 518 
L 877 486 
L 1325 506 
L 2214 506 
Q 2470 506 2572 621 
Q 2675 736 2784 1024 
L 2970 1024 
L 2765 0 
z
" transform="scale(0.015625)"/>
       </defs>
       <use xlink:href="#STIXTwoText-30"/>
       <use xlink:href="#STIXTwoText-2e" transform="translate(49.499985 0)"/>
       <use xlink:href="#STIXTwoText-32" transform="translate(73.999969 0)"/>
       <use xlink:href="#STIXTwoText-30" transform="translate(123.499954 0)"/>
      </g>
     </g>
    </g>
    <g id="xtick_7">
     <g id="line2d_7">
      <g>
       <use xlink:href="#m4ae3e2b08d" x="292.851755" y="191.554406" style="fill: #d9d2c4; stroke: #d9d2c4; stroke-width: 0.8"/>
      </g>
     </g>
     <g id="text_7">
      <!-- 0.25 -->
      <g style="fill: #59616b" transform="translate(285.931755 203.701906) scale(0.08 -0.08)">
       <use xlink:href="#STIXTwoText-30"/>
       <use xlink:href="#STIXTwoText-2e" transform="translate(49.499985 0)"/>
       <use xlink:href="#STIXTwoText-32" transform="translate(73.999969 0)"/>
       <use xlink:href="#STIXTwoText-35" transform="translate(123.499954 0)"/>
      </g>
     </g>
    </g>
    <g id="text_8">
     <!-- $\widehat{\mathrm{MMD}}^2_U$ under relabelings of the pooled sample -->
     <g style="fill: #1d2126" transform="translate(94.343438 218.911906) scale(0.09 -0.09)">
      <defs>
       <path id="STIXSizeFiveSym-Regular-302" d="M -1005 3859 
L -1037 3661 
L -8461 4826 
L -15872 3661 
L -15904 3859 
L -8454 5222 
L -1005 3859 
z
" transform="scale(0.015625)"/>
       <path id="STIXGeneral-Regular-4d" d="M 5530 0 
L 3738 0 
L 3738 122 
Q 4115 147 4214 265 
Q 4314 384 4314 787 
L 4314 3661 
L 2682 0 
L 2592 0 
L 979 3514 
L 979 966 
Q 979 448 1088 294 
Q 1197 141 1574 122 
L 1574 0 
L 77 0 
L 77 122 
Q 358 141 480 205 
Q 602 269 650 432 
Q 698 595 698 966 
L 698 3514 
Q 698 3878 589 3984 
Q 480 4090 90 4115 
L 90 4237 
L 1357 4237 
L 2835 1024 
L 4250 4237 
L 5523 4237 
L 5523 4115 
Q 5178 4109 5072 3993 
Q 4966 3878 4966 3520 
L 4966 717 
Q 4966 378 5072 262 
Q 5178 147 5530 122 
L 5530 0 
z
" transform="scale(0.015625)"/>
       <path id="STIXGeneral-Regular-44" d="M 102 4237 
L 1830 4237 
Q 3078 4237 3750 3654 
Q 4384 3110 4384 2138 
Q 4384 966 3514 410 
Q 2880 0 1901 0 
L 102 0 
L 102 122 
Q 474 147 570 252 
Q 666 358 666 736 
L 666 3520 
Q 666 3891 570 3990 
Q 474 4090 102 4115 
L 102 4237 
z
M 1318 3731 
L 1318 538 
Q 1318 365 1379 301 
Q 1440 237 1626 237 
Q 2125 237 2432 307 
Q 2739 378 3021 570 
Q 3686 1018 3686 2099 
Q 3686 3027 3078 3558 
Q 2803 3802 2476 3901 
Q 2150 4000 1658 4000 
Q 1472 4000 1395 3942 
Q 1318 3885 1318 3731 
z
" transform="scale(0.015625)"/>
       <path id="STIXGeneral-Regular-32" d="M 3034 877 
L 2688 0 
L 186 0 
L 186 77 
L 1325 1286 
Q 1773 1754 1965 2144 
Q 2157 2534 2157 2950 
Q 2157 3379 1920 3616 
Q 1683 3853 1267 3853 
Q 922 3853 720 3673 
Q 518 3494 326 3021 
L 192 3053 
Q 301 3648 630 3987 
Q 960 4326 1523 4326 
Q 2054 4326 2380 4006 
Q 2707 3686 2707 3200 
Q 2707 2477 1888 1613 
L 832 486 
L 2330 486 
Q 2541 486 2665 569 
Q 2790 653 2944 915 
L 3034 877 
z
" transform="scale(0.015625)"/>
       <path id="STIXGeneral-Italic-55" d="M 4896 4179 
L 4896 4077 
Q 4762 4045 4694 4016 
Q 4627 3987 4563 3945 
Q 4499 3904 4451 3789 
Q 4403 3674 4358 3539 
Q 4314 3405 4230 3123 
L 3699 1299 
Q 3482 557 3078 218 
Q 2694 -115 2067 -115 
Q 1440 -115 1046 179 
Q 653 474 653 934 
Q 653 1286 934 2317 
L 1267 3526 
Q 1325 3731 1325 3814 
Q 1325 3942 1213 4006 
Q 1101 4070 813 4077 
L 813 4179 
L 2554 4179 
L 2554 4077 
Q 2227 4045 2102 3936 
Q 1978 3827 1888 3494 
L 1485 2048 
Q 1229 1146 1229 902 
Q 1229 563 1481 355 
Q 1734 147 2112 147 
Q 2650 147 2976 492 
Q 3302 838 3520 1632 
L 3930 3123 
Q 4077 3667 4077 3782 
Q 4077 3923 3981 3987 
Q 3885 4051 3629 4077 
L 3629 4179 
L 4896 4179 
z
" transform="scale(0.015625)"/>
       <path id="STIXTwoText-20" transform="scale(0.015625)"/>
       <path id="STIXTwoText-75" d="M 1421 -64 
Q 1024 -64 803 195 
Q 582 454 582 1107 
L 582 2406 
Q 582 2579 547 2659 
Q 512 2739 416 2761 
Q 320 2784 147 2784 
L 147 2963 
L 973 3059 
L 1114 3059 
L 1114 1190 
Q 1114 864 1187 681 
Q 1261 499 1392 422 
Q 1523 346 1690 346 
Q 1933 346 2109 454 
Q 2285 563 2477 730 
L 2477 2413 
Q 2477 2586 2432 2662 
Q 2387 2739 2275 2761 
Q 2163 2784 1958 2784 
L 1958 2963 
L 2854 3059 
L 3008 3059 
L 3008 710 
Q 3008 429 3085 358 
Q 3162 288 3392 288 
L 3456 288 
L 3456 115 
L 2643 -32 
L 2502 -32 
L 2502 461 
L 2470 461 
Q 2304 294 2141 176 
Q 1978 58 1802 -3 
Q 1626 -64 1421 -64 
z
" transform="scale(0.015625)"/>
       <path id="STIXTwoText-6e" d="M 3552 0 
L 2074 0 
L 2074 179 
Q 2304 179 2403 220 
Q 2502 262 2524 364 
Q 2547 467 2547 646 
L 2547 1805 
Q 2547 2189 2460 2381 
Q 2374 2573 2240 2633 
Q 2106 2694 1958 2694 
Q 1773 2694 1625 2620 
Q 1478 2547 1360 2444 
Q 1242 2342 1139 2253 
L 1094 2566 
L 1190 2566 
Q 1453 2797 1686 2950 
Q 1920 3104 2221 3104 
Q 2656 3104 2867 2809 
Q 3078 2515 3078 1965 
L 3078 646 
Q 3078 467 3107 364 
Q 3136 262 3238 220 
Q 3341 179 3552 179 
L 3552 0 
z
M 1670 0 
L 205 0 
L 205 179 
Q 422 179 515 220 
Q 608 262 630 364 
Q 653 467 653 646 
L 653 2445 
Q 653 2618 582 2672 
Q 512 2726 384 2726 
Q 301 2726 256 2720 
Q 211 2714 211 2714 
L 211 2899 
L 1024 3085 
L 1171 3085 
L 1165 2496 
L 1184 2362 
L 1184 646 
Q 1184 467 1209 364 
Q 1235 262 1337 220 
Q 1440 179 1670 179 
L 1670 0 
z
" transform="scale(0.015625)"/>
       <path id="STIXTwoText-64" d="M 1306 -51 
Q 947 -51 700 141 
Q 454 333 332 662 
Q 211 992 211 1402 
Q 211 1933 409 2313 
Q 608 2694 944 2899 
Q 1280 3104 1683 3104 
Q 1837 3104 1987 3065 
Q 2138 3027 2278 2950 
L 2304 2950 
L 2304 3789 
Q 2304 4000 2256 4064 
Q 2208 4128 2022 4128 
Q 1978 4128 1917 4121 
Q 1856 4115 1856 4115 
L 1856 4294 
L 2662 4518 
L 2835 4518 
L 2835 685 
Q 2835 435 2905 361 
Q 2976 288 3155 288 
L 3290 288 
L 3290 115 
L 2470 -32 
L 2323 -32 
L 2323 410 
L 2298 410 
Q 2118 250 1872 99 
Q 1626 -51 1306 -51 
z
M 1606 410 
Q 1830 410 1984 470 
Q 2138 531 2304 646 
L 2304 2336 
Q 2266 2534 2118 2691 
Q 1971 2848 1670 2848 
Q 1267 2848 1017 2553 
Q 768 2259 768 1651 
Q 768 992 982 701 
Q 1197 410 1606 410 
z
" transform="scale(0.015625)"/>
       <path id="STIXTwoText-65" d="M 1581 -64 
Q 1197 -64 886 118 
Q 576 301 397 656 
Q 218 1011 218 1523 
Q 218 2061 400 2409 
Q 582 2758 889 2931 
Q 1197 3104 1568 3104 
Q 2093 3104 2413 2739 
Q 2733 2374 2758 1702 
L 678 1702 
L 672 1939 
L 2157 1939 
Q 2150 2176 2073 2384 
Q 1997 2592 1849 2720 
Q 1702 2848 1472 2848 
Q 1101 2848 915 2557 
Q 730 2266 730 1734 
Q 730 1293 870 998 
Q 1011 704 1241 560 
Q 1472 416 1734 416 
Q 1997 416 2160 486 
Q 2323 557 2438 669 
Q 2554 781 2656 915 
L 2778 826 
Q 2694 646 2585 483 
Q 2477 320 2339 198 
Q 2202 77 2016 6 
Q 1830 -64 1581 -64 
z
" transform="scale(0.015625)"/>
       <path id="STIXTwoText-72" d="M 1786 0 
L 186 0 
L 186 186 
Q 397 186 496 221 
Q 595 256 624 349 
Q 653 442 653 621 
L 653 2381 
Q 653 2554 624 2640 
Q 595 2726 422 2726 
Q 326 2726 275 2720 
Q 224 2714 224 2714 
L 224 2893 
L 1018 3085 
L 1171 3085 
L 1171 2426 
L 1190 2426 
Q 1357 2662 1485 2816 
Q 1613 2970 1737 3046 
Q 1862 3123 2016 3123 
Q 2202 3123 2294 3027 
Q 2387 2931 2387 2765 
Q 2387 2586 2300 2502 
Q 2214 2419 2106 2419 
Q 2003 2419 1923 2473 
Q 1843 2528 1785 2582 
Q 1728 2637 1690 2637 
Q 1581 2637 1440 2470 
Q 1299 2304 1184 2112 
L 1184 653 
Q 1184 454 1235 352 
Q 1286 250 1417 218 
Q 1549 186 1786 186 
L 1786 0 
z
" transform="scale(0.015625)"/>
       <path id="STIXTwoText-6c" d="M 1664 0 
L 192 0 
L 192 186 
Q 403 186 499 227 
Q 595 269 617 368 
Q 640 467 640 646 
L 640 3859 
Q 640 4058 566 4096 
Q 493 4134 371 4134 
Q 288 4134 227 4128 
Q 166 4122 166 4122 
L 166 4294 
L 1011 4518 
L 1171 4518 
L 1171 646 
Q 1171 461 1200 361 
Q 1229 262 1331 224 
Q 1434 186 1664 186 
L 1664 0 
z
" transform="scale(0.015625)"/>
       <path id="STIXTwoText-61" d="M 1005 -45 
Q 634 -45 438 160 
Q 243 365 243 672 
Q 243 928 361 1104 
Q 480 1280 675 1401 
Q 870 1523 1097 1606 
Q 1325 1690 1542 1747 
Q 1760 1805 1926 1856 
L 1926 2138 
Q 1926 2554 1782 2730 
Q 1638 2906 1350 2906 
Q 1075 2906 998 2790 
Q 922 2675 922 2387 
Q 922 2240 848 2166 
Q 774 2093 640 2093 
Q 544 2093 457 2166 
Q 371 2240 371 2400 
Q 371 2579 508 2739 
Q 646 2899 899 3001 
Q 1152 3104 1498 3104 
Q 2022 3104 2240 2861 
Q 2458 2618 2458 2118 
L 2458 666 
Q 2458 467 2502 409 
Q 2547 352 2650 352 
Q 2739 352 2812 397 
Q 2886 442 2950 512 
L 3046 410 
Q 2886 179 2742 73 
Q 2598 -32 2355 -32 
Q 2131 -32 2064 96 
Q 1997 224 1965 461 
L 1926 538 
L 1926 1645 
Q 1638 1574 1382 1478 
Q 1126 1382 966 1228 
Q 806 1075 806 826 
Q 806 589 934 448 
Q 1062 307 1267 307 
Q 1434 307 1616 390 
Q 1798 474 1971 627 
L 2022 397 
L 1946 397 
Q 1798 269 1660 166 
Q 1523 64 1366 9 
Q 1210 -45 1005 -45 
z
" transform="scale(0.015625)"/>
       <path id="STIXTwoText-62" d="M 877 4518 
L 1043 4518 
L 1043 2560 
L 1062 2560 
Q 1229 2765 1478 2934 
Q 1728 3104 2048 3104 
Q 2368 3104 2608 2921 
Q 2848 2739 2982 2419 
Q 3117 2099 3117 1683 
Q 3117 1114 2918 723 
Q 2720 333 2374 134 
Q 2029 -64 1581 -64 
Q 1171 -64 899 32 
Q 627 128 512 192 
L 512 3789 
Q 512 4006 464 4067 
Q 416 4128 230 4128 
Q 154 4128 102 4121 
Q 51 4115 51 4115 
L 51 4294 
L 877 4518 
z
M 1043 2278 
L 1043 499 
Q 1133 390 1286 294 
Q 1440 198 1696 198 
Q 2003 198 2185 371 
Q 2368 544 2451 835 
Q 2534 1126 2534 1478 
Q 2534 1786 2470 2058 
Q 2406 2330 2240 2499 
Q 2074 2669 1766 2669 
Q 1523 2669 1328 2531 
Q 1133 2394 1043 2278 
z
" transform="scale(0.015625)"/>
       <path id="STIXTwoText-69" d="M 1645 0 
L 205 0 
L 205 179 
Q 422 179 515 220 
Q 608 262 630 364 
Q 653 467 653 646 
L 653 2432 
Q 653 2637 582 2685 
Q 512 2733 371 2733 
Q 307 2733 259 2726 
Q 211 2720 211 2720 
L 211 2906 
L 1018 3085 
L 1184 3085 
L 1184 646 
Q 1184 461 1209 358 
Q 1235 256 1334 217 
Q 1434 179 1645 179 
L 1645 0 
z
M 928 3584 
Q 768 3584 665 3693 
Q 563 3802 563 3949 
Q 563 4096 662 4201 
Q 762 4307 928 4307 
Q 1094 4307 1193 4201 
Q 1293 4096 1293 3949 
Q 1293 3802 1193 3693 
Q 1094 3584 928 3584 
z
" transform="scale(0.015625)"/>
       <path id="STIXTwoText-67" d="M 1222 -1504 
Q 806 -1504 566 -1401 
Q 326 -1299 230 -1136 
Q 134 -973 134 -800 
Q 134 -640 265 -464 
Q 397 -288 653 -38 
L 653 32 
L 845 -6 
Q 723 -211 678 -342 
Q 634 -474 634 -582 
Q 634 -858 870 -998 
Q 1107 -1139 1594 -1139 
Q 1971 -1139 2204 -1043 
Q 2438 -947 2544 -806 
Q 2650 -666 2650 -531 
Q 2650 -358 2538 -265 
Q 2426 -173 2253 -134 
Q 2080 -96 1888 -86 
Q 1696 -77 1536 -77 
Q 1248 -70 1101 -70 
Q 954 -70 890 -67 
Q 826 -64 774 -64 
L 710 -32 
Q 614 0 518 70 
Q 422 141 358 240 
Q 294 339 294 448 
Q 294 563 361 688 
Q 429 813 550 937 
Q 672 1062 819 1178 
L 819 1235 
L 986 1114 
Q 954 1082 909 998 
Q 864 915 832 822 
Q 800 730 800 666 
Q 800 570 867 515 
Q 934 461 1097 435 
Q 1261 410 1555 410 
Q 1958 410 2281 371 
Q 2605 333 2790 173 
Q 2976 13 2976 -352 
Q 2976 -672 2819 -893 
Q 2662 -1114 2403 -1248 
Q 2144 -1382 1833 -1443 
Q 1523 -1504 1222 -1504 
z
M 1517 998 
Q 1350 998 1206 1030 
Q 1062 1062 928 1107 
L 858 1171 
Q 691 1261 572 1382 
Q 454 1504 390 1673 
Q 326 1843 326 2061 
Q 326 2381 473 2614 
Q 621 2848 883 2976 
Q 1146 3104 1485 3104 
Q 1677 3104 1846 3069 
Q 2016 3034 2163 2963 
Q 2310 2893 2419 2797 
L 2419 2630 
Q 2490 2534 2570 2374 
Q 2650 2214 2650 1971 
Q 2650 1677 2506 1456 
Q 2362 1235 2109 1116 
Q 1856 998 1517 998 
z
M 1523 1222 
Q 1766 1222 1923 1388 
Q 2080 1555 2080 2010 
Q 2080 2400 1913 2637 
Q 1747 2874 1440 2874 
Q 1190 2874 1040 2682 
Q 890 2490 890 2086 
Q 890 1677 1050 1449 
Q 1210 1222 1523 1222 
z
M 3021 2989 
L 3021 2643 
L 2330 2662 
L 2106 2938 
L 3021 2989 
z
" transform="scale(0.015625)"/>
       <path id="STIXTwoText-73" d="M 269 -51 
L 250 1050 
L 416 1050 
Q 518 557 716 361 
Q 915 166 1267 166 
Q 1510 166 1664 265 
Q 1818 365 1818 589 
Q 1818 742 1763 844 
Q 1709 947 1555 1052 
Q 1402 1158 1101 1306 
Q 806 1453 620 1590 
Q 435 1728 345 1894 
Q 256 2061 256 2298 
Q 256 2694 541 2899 
Q 826 3104 1235 3104 
Q 1478 3104 1632 3049 
Q 1786 2995 1907 2938 
L 1914 2938 
L 2022 3072 
L 2150 3072 
L 2170 2093 
L 1997 2093 
Q 1894 2547 1708 2716 
Q 1523 2886 1229 2886 
Q 1011 2886 860 2784 
Q 710 2682 710 2464 
Q 710 2278 883 2131 
Q 1056 1984 1459 1779 
Q 1754 1626 1952 1482 
Q 2150 1338 2252 1168 
Q 2355 998 2355 762 
Q 2355 461 2208 278 
Q 2061 96 1814 13 
Q 1568 -70 1280 -70 
Q 1005 -70 841 -12 
Q 678 45 550 96 
L 538 96 
L 403 -51 
L 269 -51 
z
" transform="scale(0.015625)"/>
       <path id="STIXTwoText-6f" d="M 1651 -64 
Q 979 -64 598 355 
Q 218 774 218 1549 
Q 218 2016 397 2365 
Q 576 2714 899 2909 
Q 1222 3104 1651 3104 
Q 2310 3104 2691 2694 
Q 3072 2285 3072 1574 
Q 3072 1037 2889 672 
Q 2707 307 2387 121 
Q 2067 -64 1651 -64 
z
M 1677 192 
Q 1939 192 2118 313 
Q 2298 435 2390 729 
Q 2483 1024 2483 1542 
Q 2483 2131 2268 2496 
Q 2054 2861 1626 2861 
Q 1261 2861 1037 2553 
Q 813 2246 813 1632 
Q 813 870 1040 528 
Q 1267 186 1677 192 
z
" transform="scale(0.015625)"/>
       <path id="STIXTwoText-66" d="M 1837 0 
L 115 0 
L 115 186 
Q 352 186 464 227 
Q 576 269 614 390 
Q 653 512 653 762 
L 653 2797 
Q 653 3162 669 3395 
Q 685 3629 729 3789 
Q 774 3949 858 4096 
Q 986 4320 1181 4441 
Q 1376 4563 1709 4563 
Q 1920 4563 2080 4512 
Q 2240 4461 2333 4361 
Q 2426 4262 2426 4115 
Q 2426 3974 2349 3907 
Q 2272 3840 2163 3840 
Q 2042 3840 1965 3920 
Q 1888 4000 1818 4090 
Q 1754 4179 1680 4252 
Q 1606 4326 1491 4326 
Q 1312 4326 1248 4163 
Q 1184 4000 1184 3597 
L 1184 762 
Q 1184 512 1235 390 
Q 1286 269 1427 227 
Q 1568 186 1837 186 
L 1837 0 
z
M 1965 2726 
L 166 2726 
L 166 2995 
L 1965 2995 
L 1965 2726 
z
" transform="scale(0.015625)"/>
       <path id="STIXTwoText-74" d="M 1875 576 
L 1997 474 
Q 1875 301 1769 182 
Q 1664 64 1536 0 
Q 1408 -64 1203 -64 
Q 883 -64 736 125 
Q 589 314 589 742 
L 589 2726 
L 237 2726 
L 237 2874 
Q 461 3014 624 3254 
Q 787 3494 960 3904 
L 1120 3904 
L 1120 2995 
L 1843 2995 
L 1843 2726 
L 1120 2726 
L 1120 922 
Q 1120 582 1181 448 
Q 1242 314 1427 314 
Q 1581 314 1667 378 
Q 1754 442 1875 576 
z
" transform="scale(0.015625)"/>
       <path id="STIXTwoText-68" d="M 3558 0 
L 2086 0 
L 2086 186 
Q 2310 186 2406 230 
Q 2502 275 2528 371 
Q 2554 467 2554 621 
L 2554 1728 
Q 2554 1990 2515 2211 
Q 2477 2432 2352 2563 
Q 2227 2694 1965 2694 
Q 1766 2694 1561 2588 
Q 1357 2483 1094 2227 
L 1101 2579 
L 1190 2579 
Q 1491 2861 1731 2982 
Q 1971 3104 2227 3104 
Q 2502 3104 2672 2995 
Q 2842 2886 2931 2710 
Q 3021 2534 3053 2326 
Q 3085 2118 3085 1920 
L 3085 646 
Q 3085 390 3171 288 
Q 3258 186 3558 186 
L 3558 0 
z
M 1645 0 
L 192 0 
L 192 186 
Q 442 186 541 256 
Q 640 326 640 595 
L 640 3872 
Q 640 4038 547 4083 
Q 454 4128 326 4128 
Q 250 4128 195 4121 
Q 141 4115 141 4115 
L 141 4294 
L 998 4518 
L 1171 4518 
L 1171 621 
Q 1171 454 1196 358 
Q 1222 262 1324 224 
Q 1427 186 1645 186 
L 1645 0 
z
" transform="scale(0.015625)"/>
       <path id="STIXTwoText-70" d="M 1760 -1408 
L 141 -1408 
L 141 -1229 
Q 442 -1229 525 -1129 
Q 608 -1030 608 -762 
L 608 2406 
Q 608 2592 566 2662 
Q 525 2733 365 2733 
Q 301 2733 230 2726 
Q 160 2720 160 2720 
L 160 2906 
L 966 3085 
L 1126 3085 
L 1126 2547 
L 1146 2547 
Q 1376 2816 1616 2960 
Q 1856 3104 2138 3104 
Q 2458 3104 2698 2921 
Q 2938 2739 3075 2416 
Q 3213 2093 3213 1670 
Q 3213 1126 3024 739 
Q 2835 352 2515 144 
Q 2195 -64 1811 -64 
Q 1632 -64 1469 -22 
Q 1306 19 1165 115 
L 1139 115 
L 1139 -723 
Q 1139 -928 1190 -1037 
Q 1242 -1146 1376 -1184 
Q 1510 -1222 1760 -1222 
L 1760 -1408 
z
M 1843 186 
Q 2182 186 2406 506 
Q 2630 826 2630 1491 
Q 2630 2099 2432 2384 
Q 2234 2669 1875 2669 
Q 1619 2669 1424 2534 
Q 1229 2400 1139 2278 
L 1139 608 
Q 1203 544 1299 441 
Q 1395 339 1529 262 
Q 1664 186 1843 186 
z
" transform="scale(0.015625)"/>
       <path id="STIXTwoText-6d" d="M 3520 0 
L 2003 0 
L 2003 186 
Q 2234 186 2336 230 
Q 2438 275 2467 396 
Q 2496 518 2496 742 
L 2496 2010 
Q 2496 2419 2352 2556 
Q 2208 2694 1984 2694 
Q 1805 2694 1648 2617 
Q 1491 2541 1363 2438 
Q 1235 2336 1146 2246 
L 1094 2566 
L 1190 2566 
Q 1453 2790 1696 2947 
Q 1939 3104 2266 3104 
Q 2554 3104 2730 2937 
Q 2906 2771 2995 2522 
Q 3008 2502 3014 2480 
Q 3021 2458 3027 2432 
L 3027 742 
Q 3027 525 3056 403 
Q 3085 282 3187 234 
Q 3290 186 3520 186 
L 3520 0 
z
M 1664 0 
L 205 0 
L 205 186 
Q 410 186 502 221 
Q 595 256 624 355 
Q 653 454 653 646 
L 653 2438 
Q 653 2611 585 2668 
Q 518 2726 384 2726 
Q 314 2726 262 2720 
Q 211 2714 211 2714 
L 211 2899 
L 1011 3085 
L 1165 3085 
L 1165 2496 
L 1184 2355 
L 1184 621 
Q 1184 442 1222 349 
Q 1261 256 1363 221 
Q 1466 186 1664 186 
L 1664 0 
z
M 5306 0 
L 3859 0 
L 3859 186 
Q 4077 186 4173 243 
Q 4269 301 4291 425 
Q 4314 550 4314 742 
L 4314 1971 
Q 4314 2266 4240 2419 
Q 4166 2573 4041 2633 
Q 3917 2694 3763 2694 
Q 3552 2694 3347 2544 
Q 3142 2394 2976 2253 
L 2906 2573 
L 3002 2573 
Q 3264 2835 3513 2969 
Q 3763 3104 4019 3104 
Q 4397 3104 4621 2867 
Q 4845 2630 4845 2048 
L 4845 742 
Q 4845 544 4867 419 
Q 4890 294 4989 240 
Q 5088 186 5306 186 
L 5306 0 
z
" transform="scale(0.015625)"/>
      </defs>
      <use xlink:href="#STIXSizeFiveSym-Regular-302" transform="translate(298.328117 17.6875) scale(1.073897)"/>
      <use xlink:href="#STIXGeneral-Regular-4d" transform="translate(0 0.1875)"/>
      <use xlink:href="#STIXGeneral-Regular-4d" transform="translate(88.899994 0.1875)"/>
      <use xlink:href="#STIXGeneral-Regular-44" transform="translate(177.799988 0.1875)"/>
      <use xlink:href="#STIXGeneral-Regular-32" transform="translate(251.543251 35.4625) scale(0.7)"/>
      <use xlink:href="#STIXGeneral-Italic-55" transform="translate(251.543251 -26.26875) scale(0.7)"/>
      <use xlink:href="#STIXTwoText-20" transform="translate(306.492613 0.1875)"/>
      <use xlink:href="#STIXTwoText-75" transform="translate(329.992598 0.1875)"/>
      <use xlink:href="#STIXTwoText-6e" transform="translate(386.992582 0.1875)"/>
      <use xlink:href="#STIXTwoText-64" transform="translate(444.592573 0.1875)"/>
      <use xlink:href="#STIXTwoText-65" transform="translate(498.492567 0.1875)"/>
      <use xlink:href="#STIXTwoText-72" transform="translate(544.892561 0.1875)"/>
      <use xlink:href="#STIXTwoText-20" transform="translate(582.892546 0.1875)"/>
      <use xlink:href="#STIXTwoText-72" transform="translate(606.392531 0.1875)"/>
      <use xlink:href="#STIXTwoText-65" transform="translate(644.392515 0.1875)"/>
      <use xlink:href="#STIXTwoText-6c" transform="translate(690.792509 0.1875)"/>
      <use xlink:href="#STIXTwoText-61" transform="translate(719.092497 0.1875)"/>
      <use xlink:href="#STIXTwoText-62" transform="translate(767.092482 0.1875)"/>
      <use xlink:href="#STIXTwoText-65" transform="translate(819.292479 0.1875)"/>
      <use xlink:href="#STIXTwoText-6c" transform="translate(865.692473 0.1875)"/>
      <use xlink:href="#STIXTwoText-69" transform="translate(893.99246 0.1875)"/>
      <use xlink:href="#STIXTwoText-6e" transform="translate(922.492445 0.1875)"/>
      <use xlink:href="#STIXTwoText-67" transform="translate(980.092436 0.1875)"/>
      <use xlink:href="#STIXTwoText-73" transform="translate(1028.49243 0.1875)"/>
      <use xlink:href="#STIXTwoText-20" transform="translate(1067.992415 0.1875)"/>
      <use xlink:href="#STIXTwoText-6f" transform="translate(1091.492399 0.1875)"/>
      <use xlink:href="#STIXTwoText-66" transform="translate(1142.892393 0.1875)"/>
      <use xlink:href="#STIXTwoText-20" transform="translate(1173.59239 0.1875)"/>
      <use xlink:href="#STIXTwoText-74" transform="translate(1197.092375 0.1875)"/>
      <use xlink:href="#STIXTwoText-68" transform="translate(1228.59236 0.1875)"/>
      <use xlink:href="#STIXTwoText-65" transform="translate(1286.292357 0.1875)"/>
      <use xlink:href="#STIXTwoText-20" transform="translate(1332.69235 0.1875)"/>
      <use xlink:href="#STIXTwoText-70" transform="translate(1356.192335 0.1875)"/>
      <use xlink:href="#STIXTwoText-6f" transform="translate(1409.892332 0.1875)"/>
      <use xlink:href="#STIXTwoText-6f" transform="translate(1461.292326 0.1875)"/>
      <use xlink:href="#STIXTwoText-6c" transform="translate(1512.69232 0.1875)"/>
      <use xlink:href="#STIXTwoText-65" transform="translate(1540.992308 0.1875)"/>
      <use xlink:href="#STIXTwoText-64" transform="translate(1587.392302 0.1875)"/>
      <use xlink:href="#STIXTwoText-20" transform="translate(1641.292296 0.1875)"/>
      <use xlink:href="#STIXTwoText-73" transform="translate(1664.79228 0.1875)"/>
      <use xlink:href="#STIXTwoText-61" transform="translate(1704.292265 0.1875)"/>
      <use xlink:href="#STIXTwoText-6d" transform="translate(1752.29225 0.1875)"/>
      <use xlink:href="#STIXTwoText-70" transform="translate(1837.492231 0.1875)"/>
      <use xlink:href="#STIXTwoText-6c" transform="translate(1891.192228 0.1875)"/>
      <use xlink:href="#STIXTwoText-65" transform="translate(1919.492216 0.1875)"/>
     </g>
    </g>
   </g>
   <g id="matplotlib.axis_2">
    <g id="ytick_1">
     <g id="line2d_8">
      <defs>
       <path id="m20ce8566ff" d="M 0 0 
L -3 0 
" style="stroke: #d9d2c4; stroke-width: 0.8"/>
      </defs>
      <g>
       <use xlink:href="#m20ce8566ff" x="32.153438" y="191.554406" style="fill: #d9d2c4; stroke: #d9d2c4; stroke-width: 0.8"/>
      </g>
     </g>
     <g id="text_9">
      <!-- 0 -->
      <g style="fill: #59616b" transform="translate(21.693438 194.378156) scale(0.08 -0.08)">
       <use xlink:href="#STIXTwoText-30"/>
      </g>
     </g>
    </g>
    <g id="ytick_2">
     <g id="line2d_9">
      <g>
       <use xlink:href="#m20ce8566ff" x="32.153438" y="171.72342" style="fill: #d9d2c4; stroke: #d9d2c4; stroke-width: 0.8"/>
      </g>
     </g>
     <g id="text_10">
      <!-- 25 -->
      <g style="fill: #59616b" transform="translate(17.733438 174.54717) scale(0.08 -0.08)">
       <use xlink:href="#STIXTwoText-32"/>
       <use xlink:href="#STIXTwoText-35" transform="translate(49.499985 0)"/>
      </g>
     </g>
    </g>
    <g id="ytick_3">
     <g id="line2d_10">
      <g>
       <use xlink:href="#m20ce8566ff" x="32.153438" y="151.892434" style="fill: #d9d2c4; stroke: #d9d2c4; stroke-width: 0.8"/>
      </g>
     </g>
     <g id="text_11">
      <!-- 50 -->
      <g style="fill: #59616b" transform="translate(17.733438 154.716184) scale(0.08 -0.08)">
       <use xlink:href="#STIXTwoText-35"/>
       <use xlink:href="#STIXTwoText-30" transform="translate(49.499985 0)"/>
      </g>
     </g>
    </g>
    <g id="ytick_4">
     <g id="line2d_11">
      <g>
       <use xlink:href="#m20ce8566ff" x="32.153438" y="132.061449" style="fill: #d9d2c4; stroke: #d9d2c4; stroke-width: 0.8"/>
      </g>
     </g>
     <g id="text_12">
      <!-- 75 -->
      <g style="fill: #59616b" transform="translate(17.733438 134.885199) scale(0.08 -0.08)">
       <defs>
        <path id="STIXTwoText-37" d="M 1472 -51 
L 966 -51 
L 2477 3514 
L 1050 3514 
Q 870 3514 774 3482 
Q 678 3450 617 3347 
Q 557 3245 467 3034 
L 269 3053 
L 525 4032 
L 2970 4032 
L 2970 3834 
L 1472 -51 
z
" transform="scale(0.015625)"/>
       </defs>
       <use xlink:href="#STIXTwoText-37"/>
       <use xlink:href="#STIXTwoText-35" transform="translate(49.499985 0)"/>
      </g>
     </g>
    </g>
    <g id="ytick_5">
     <g id="line2d_12">
      <g>
       <use xlink:href="#m20ce8566ff" x="32.153438" y="112.230463" style="fill: #d9d2c4; stroke: #d9d2c4; stroke-width: 0.8"/>
      </g>
     </g>
     <g id="text_13">
      <!-- 100 -->
      <g style="fill: #59616b" transform="translate(13.773438 115.054213) scale(0.08 -0.08)">
       <use xlink:href="#STIXTwoText-31"/>
       <use xlink:href="#STIXTwoText-30" transform="translate(49.499985 0)"/>
       <use xlink:href="#STIXTwoText-30" transform="translate(98.999969 0)"/>
      </g>
     </g>
    </g>
    <g id="ytick_6">
     <g id="line2d_13">
      <g>
       <use xlink:href="#m20ce8566ff" x="32.153438" y="92.399477" style="fill: #d9d2c4; stroke: #d9d2c4; stroke-width: 0.8"/>
      </g>
     </g>
     <g id="text_14">
      <!-- 125 -->
      <g style="fill: #59616b" transform="translate(13.773438 95.223227) scale(0.08 -0.08)">
       <use xlink:href="#STIXTwoText-31"/>
       <use xlink:href="#STIXTwoText-32" transform="translate(49.499985 0)"/>
       <use xlink:href="#STIXTwoText-35" transform="translate(98.999969 0)"/>
      </g>
     </g>
    </g>
    <g id="ytick_7">
     <g id="line2d_14">
      <g>
       <use xlink:href="#m20ce8566ff" x="32.153438" y="72.568491" style="fill: #d9d2c4; stroke: #d9d2c4; stroke-width: 0.8"/>
      </g>
     </g>
     <g id="text_15">
      <!-- 150 -->
      <g style="fill: #59616b" transform="translate(13.773438 75.392241) scale(0.08 -0.08)">
       <use xlink:href="#STIXTwoText-31"/>
       <use xlink:href="#STIXTwoText-35" transform="translate(49.499985 0)"/>
       <use xlink:href="#STIXTwoText-30" transform="translate(98.999969 0)"/>
      </g>
     </g>
    </g>
    <g id="ytick_8">
     <g id="line2d_15">
      <g>
       <use xlink:href="#m20ce8566ff" x="32.153438" y="52.737505" style="fill: #d9d2c4; stroke: #d9d2c4; stroke-width: 0.8"/>
      </g>
     </g>
     <g id="text_16">
      <!-- 175 -->
      <g style="fill: #59616b" transform="translate(13.773438 55.561255) scale(0.08 -0.08)">
       <use xlink:href="#STIXTwoText-31"/>
       <use xlink:href="#STIXTwoText-37" transform="translate(49.499985 0)"/>
       <use xlink:href="#STIXTwoText-35" transform="translate(98.999969 0)"/>
      </g>
     </g>
    </g>
    <g id="ytick_9">
     <g id="line2d_16">
      <g>
       <use xlink:href="#m20ce8566ff" x="32.153438" y="32.906519" style="fill: #d9d2c4; stroke: #d9d2c4; stroke-width: 0.8"/>
      </g>
     </g>
     <g id="text_17">
      <!-- 200 -->
      <g style="fill: #59616b" transform="translate(13.773438 35.730269) scale(0.08 -0.08)">
       <use xlink:href="#STIXTwoText-32"/>
       <use xlink:href="#STIXTwoText-30" transform="translate(49.499985 0)"/>
       <use xlink:href="#STIXTwoText-30" transform="translate(98.999969 0)"/>
      </g>
     </g>
    </g>
    <g id="text_18">
     <!-- count -->
     <g style="fill: #1d2126" transform="translate(7.793438 113.744625) rotate(-90) scale(0.09 -0.09)">
      <defs>
       <path id="STIXTwoText-63" d="M 2611 947 
L 2733 858 
Q 2611 602 2454 390 
Q 2298 179 2067 57 
Q 1837 -64 1491 -64 
Q 1094 -64 806 128 
Q 518 320 364 662 
Q 211 1005 211 1446 
Q 211 1952 380 2323 
Q 550 2694 873 2899 
Q 1197 3104 1658 3104 
Q 2112 3104 2371 2905 
Q 2630 2707 2630 2426 
Q 2630 2285 2563 2211 
Q 2496 2138 2362 2138 
Q 2221 2138 2147 2211 
Q 2074 2285 2029 2393 
Q 1984 2502 1936 2611 
Q 1888 2720 1801 2793 
Q 1715 2867 1549 2867 
Q 1158 2867 937 2582 
Q 717 2298 717 1747 
Q 717 1165 957 790 
Q 1197 416 1690 416 
Q 2003 416 2198 544 
Q 2394 672 2611 947 
z
" transform="scale(0.015625)"/>
      </defs>
      <use xlink:href="#STIXTwoText-63"/>
      <use xlink:href="#STIXTwoText-6f" transform="translate(44.599991 0)"/>
      <use xlink:href="#STIXTwoText-75" transform="translate(95.999985 0)"/>
      <use xlink:href="#STIXTwoText-6e" transform="translate(152.999969 0)"/>
      <use xlink:href="#STIXTwoText-74" transform="translate(210.59996 0)"/>
     </g>
    </g>
   </g>
   <g id="patch_3">
    <path d="M 42.197438 191.554406 
L 45.963938 191.554406 
L 45.963938 191.554406 
L 42.197438 191.554406 
z
" clip-path="url(#peef924615f)" style="fill: #59616b; opacity: 0.55; stroke: #fbf8f1; stroke-width: 0.3; stroke-linejoin: miter"/>
   </g>
   <g id="patch_4">
    <path d="M 45.963938 191.554406 
L 49.730438 191.554406 
L 49.730438 191.554406 
L 45.963938 191.554406 
z
" clip-path="url(#peef924615f)" style="fill: #59616b; opacity: 0.55; stroke: #fbf8f1; stroke-width: 0.3; stroke-linejoin: miter"/>
   </g>
   <g id="patch_5">
    <path d="M 49.730438 191.554406 
L 53.496938 191.554406 
L 53.496938 170.136941 
L 49.730438 170.136941 
z
" clip-path="url(#peef924615f)" style="fill: #59616b; opacity: 0.55; stroke: #fbf8f1; stroke-width: 0.3; stroke-linejoin: miter"/>
   </g>
   <g id="patch_6">
    <path d="M 53.496938 191.554406 
L 57.263438 191.554406 
L 57.263438 44.80511 
L 53.496938 44.80511 
z
" clip-path="url(#peef924615f)" style="fill: #59616b; opacity: 0.55; stroke: #fbf8f1; stroke-width: 0.3; stroke-linejoin: miter"/>
   </g>
   <g id="patch_7">
    <path d="M 57.263438 191.554406 
L 61.029938 191.554406 
L 61.029938 22.594406 
L 57.263438 22.594406 
z
" clip-path="url(#peef924615f)" style="fill: #59616b; opacity: 0.55; stroke: #fbf8f1; stroke-width: 0.3; stroke-linejoin: miter"/>
   </g>
   <g id="patch_8">
    <path d="M 61.029938 191.554406 
L 64.796438 191.554406 
L 64.796438 35.286237 
L 61.029938 35.286237 
z
" clip-path="url(#peef924615f)" style="fill: #59616b; opacity: 0.55; stroke: #fbf8f1; stroke-width: 0.3; stroke-linejoin: miter"/>
   </g>
   <g id="patch_9">
    <path d="M 64.796438 191.554406 
L 68.562938 191.554406 
L 68.562938 59.08342 
L 64.796438 59.08342 
z
" clip-path="url(#peef924615f)" style="fill: #59616b; opacity: 0.55; stroke: #fbf8f1; stroke-width: 0.3; stroke-linejoin: miter"/>
   </g>
   <g id="patch_10">
    <path d="M 68.562938 191.554406 
L 72.329438 191.554406 
L 72.329438 59.08342 
L 68.562938 59.08342 
z
" clip-path="url(#peef924615f)" style="fill: #59616b; opacity: 0.55; stroke: #fbf8f1; stroke-width: 0.3; stroke-linejoin: miter"/>
   </g>
   <g id="patch_11">
    <path d="M 72.329438 191.554406 
L 76.095938 191.554406 
L 76.095938 86.053561 
L 72.329438 86.053561 
z
" clip-path="url(#peef924615f)" style="fill: #59616b; opacity: 0.55; stroke: #fbf8f1; stroke-width: 0.3; stroke-linejoin: miter"/>
   </g>
   <g id="patch_12">
    <path d="M 76.095938 191.554406 
L 79.862438 191.554406 
L 79.862438 108.264265 
L 76.095938 108.264265 
z
" clip-path="url(#peef924615f)" style="fill: #59616b; opacity: 0.55; stroke: #fbf8f1; stroke-width: 0.3; stroke-linejoin: miter"/>
   </g>
   <g id="patch_13">
    <path d="M 79.862438 191.554406 
L 83.628938 191.554406 
L 83.628938 118.576378 
L 79.862438 118.576378 
z
" clip-path="url(#peef924615f)" style="fill: #59616b; opacity: 0.55; stroke: #fbf8f1; stroke-width: 0.3; stroke-linejoin: miter"/>
   </g>
   <g id="patch_14">
    <path d="M 83.628938 191.554406 
L 87.395438 191.554406 
L 87.395438 113.816941 
L 83.628938 113.816941 
z
" clip-path="url(#peef924615f)" style="fill: #59616b; opacity: 0.55; stroke: #fbf8f1; stroke-width: 0.3; stroke-linejoin: miter"/>
   </g>
   <g id="patch_15">
    <path d="M 87.395438 191.554406 
L 91.161938 191.554406 
L 91.161938 130.47497 
L 87.395438 130.47497 
z
" clip-path="url(#peef924615f)" style="fill: #59616b; opacity: 0.55; stroke: #fbf8f1; stroke-width: 0.3; stroke-linejoin: miter"/>
   </g>
   <g id="patch_16">
    <path d="M 91.161938 191.554406 
L 94.928438 191.554406 
L 94.928438 143.96004 
L 91.161938 143.96004 
z
" clip-path="url(#peef924615f)" style="fill: #59616b; opacity: 0.55; stroke: #fbf8f1; stroke-width: 0.3; stroke-linejoin: miter"/>
   </g>
   <g id="patch_17">
    <path d="M 94.928438 191.554406 
L 98.694938 191.554406 
L 98.694938 143.96004 
L 94.928438 143.96004 
z
" clip-path="url(#peef924615f)" style="fill: #59616b; opacity: 0.55; stroke: #fbf8f1; stroke-width: 0.3; stroke-linejoin: miter"/>
   </g>
   <g id="patch_18">
    <path d="M 98.694938 191.554406 
L 102.461438 191.554406 
L 102.461438 165.377505 
L 98.694938 165.377505 
z
" clip-path="url(#peef924615f)" style="fill: #59616b; opacity: 0.55; stroke: #fbf8f1; stroke-width: 0.3; stroke-linejoin: miter"/>
   </g>
   <g id="patch_19">
    <path d="M 102.461438 191.554406 
L 106.227938 191.554406 
L 106.227938 156.651871 
L 102.461438 156.651871 
z
" clip-path="url(#peef924615f)" style="fill: #59616b; opacity: 0.55; stroke: #fbf8f1; stroke-width: 0.3; stroke-linejoin: miter"/>
   </g>
   <g id="patch_20">
    <path d="M 106.227938 191.554406 
L 109.994438 191.554406 
L 109.994438 151.099195 
L 106.227938 151.099195 
z
" clip-path="url(#peef924615f)" style="fill: #59616b; opacity: 0.55; stroke: #fbf8f1; stroke-width: 0.3; stroke-linejoin: miter"/>
   </g>
   <g id="patch_21">
    <path d="M 109.994438 191.554406 
L 113.760938 191.554406 
L 113.760938 166.963984 
L 109.994438 166.963984 
z
" clip-path="url(#peef924615f)" style="fill: #59616b; opacity: 0.55; stroke: #fbf8f1; stroke-width: 0.3; stroke-linejoin: miter"/>
   </g>
   <g id="patch_22">
    <path d="M 113.760938 191.554406 
L 117.527438 191.554406 
L 117.527438 161.411308 
L 113.760938 161.411308 
z
" clip-path="url(#peef924615f)" style="fill: #59616b; opacity: 0.55; stroke: #fbf8f1; stroke-width: 0.3; stroke-linejoin: miter"/>
   </g>
   <g id="patch_23">
    <path d="M 117.527438 191.554406 
L 121.293938 191.554406 
L 121.293938 164.584265 
L 117.527438 164.584265 
z
" clip-path="url(#peef924615f)" style="fill: #59616b; opacity: 0.55; stroke: #fbf8f1; stroke-width: 0.3; stroke-linejoin: miter"/>
   </g>
   <g id="patch_24">
    <path d="M 121.293938 191.554406 
L 125.060438 191.554406 
L 125.060438 174.896378 
L 121.293938 174.896378 
z
" clip-path="url(#peef924615f)" style="fill: #59616b; opacity: 0.55; stroke: #fbf8f1; stroke-width: 0.3; stroke-linejoin: miter"/>
   </g>
   <g id="patch_25">
    <path d="M 125.060438 191.554406 
L 128.826938 191.554406 
L 128.826938 174.896378 
L 125.060438 174.896378 
z
" clip-path="url(#peef924615f)" style="fill: #59616b; opacity: 0.55; stroke: #fbf8f1; stroke-width: 0.3; stroke-linejoin: miter"/>
   </g>
   <g id="patch_26">
    <path d="M 128.826938 191.554406 
L 132.593438 191.554406 
L 132.593438 170.136941 
L 128.826938 170.136941 
z
" clip-path="url(#peef924615f)" style="fill: #59616b; opacity: 0.55; stroke: #fbf8f1; stroke-width: 0.3; stroke-linejoin: miter"/>
   </g>
   <g id="patch_27">
    <path d="M 132.593438 191.554406 
L 136.359938 191.554406 
L 136.359938 182.035533 
L 132.593438 182.035533 
z
" clip-path="url(#peef924615f)" style="fill: #59616b; opacity: 0.55; stroke: #fbf8f1; stroke-width: 0.3; stroke-linejoin: miter"/>
   </g>
   <g id="patch_28">
    <path d="M 136.359938 191.554406 
L 140.126438 191.554406 
L 140.126438 183.622012 
L 136.359938 183.622012 
z
" clip-path="url(#peef924615f)" style="fill: #59616b; opacity: 0.55; stroke: #fbf8f1; stroke-width: 0.3; stroke-linejoin: miter"/>
   </g>
   <g id="patch_29">
    <path d="M 140.126438 191.554406 
L 143.892938 191.554406 
L 143.892938 178.862575 
L 140.126438 178.862575 
z
" clip-path="url(#peef924615f)" style="fill: #59616b; opacity: 0.55; stroke: #fbf8f1; stroke-width: 0.3; stroke-linejoin: miter"/>
   </g>
   <g id="patch_30">
    <path d="M 143.892938 191.554406 
L 147.659438 191.554406 
L 147.659438 186.00173 
L 143.892938 186.00173 
z
" clip-path="url(#peef924615f)" style="fill: #59616b; opacity: 0.55; stroke: #fbf8f1; stroke-width: 0.3; stroke-linejoin: miter"/>
   </g>
   <g id="patch_31">
    <path d="M 147.659438 191.554406 
L 151.425938 191.554406 
L 151.425938 185.208491 
L 147.659438 185.208491 
z
" clip-path="url(#peef924615f)" style="fill: #59616b; opacity: 0.55; stroke: #fbf8f1; stroke-width: 0.3; stroke-linejoin: miter"/>
   </g>
   <g id="patch_32">
    <path d="M 151.425938 191.554406 
L 155.192438 191.554406 
L 155.192438 187.588209 
L 151.425938 187.588209 
z
" clip-path="url(#peef924615f)" style="fill: #59616b; opacity: 0.55; stroke: #fbf8f1; stroke-width: 0.3; stroke-linejoin: miter"/>
   </g>
   <g id="patch_33">
    <path d="M 155.192438 191.554406 
L 158.958938 191.554406 
L 158.958938 187.588209 
L 155.192438 187.588209 
z
" clip-path="url(#peef924615f)" style="fill: #59616b; opacity: 0.55; stroke: #fbf8f1; stroke-width: 0.3; stroke-linejoin: miter"/>
   </g>
   <g id="patch_34">
    <path d="M 158.958938 191.554406 
L 162.725438 191.554406 
L 162.725438 184.415251 
L 158.958938 184.415251 
z
" clip-path="url(#peef924615f)" style="fill: #59616b; opacity: 0.55; stroke: #fbf8f1; stroke-width: 0.3; stroke-linejoin: miter"/>
   </g>
   <g id="patch_35">
    <path d="M 162.725438 191.554406 
L 166.491938 191.554406 
L 166.491938 186.00173 
L 162.725438 186.00173 
z
" clip-path="url(#peef924615f)" style="fill: #59616b; opacity: 0.55; stroke: #fbf8f1; stroke-width: 0.3; stroke-linejoin: miter"/>
   </g>
   <g id="patch_36">
    <path d="M 166.491938 191.554406 
L 170.258438 191.554406 
L 170.258438 188.381449 
L 166.491938 188.381449 
z
" clip-path="url(#peef924615f)" style="fill: #59616b; opacity: 0.55; stroke: #fbf8f1; stroke-width: 0.3; stroke-linejoin: miter"/>
   </g>
   <g id="patch_37">
    <path d="M 170.258438 191.554406 
L 174.024938 191.554406 
L 174.024938 189.174688 
L 170.258438 189.174688 
z
" clip-path="url(#peef924615f)" style="fill: #59616b; opacity: 0.55; stroke: #fbf8f1; stroke-width: 0.3; stroke-linejoin: miter"/>
   </g>
   <g id="patch_38">
    <path d="M 174.024938 191.554406 
L 177.791438 191.554406 
L 177.791438 186.79497 
L 174.024938 186.79497 
z
" clip-path="url(#peef924615f)" style="fill: #59616b; opacity: 0.55; stroke: #fbf8f1; stroke-width: 0.3; stroke-linejoin: miter"/>
   </g>
   <g id="patch_39">
    <path d="M 177.791438 191.554406 
L 181.557938 191.554406 
L 181.557938 189.967927 
L 177.791438 189.967927 
z
" clip-path="url(#peef924615f)" style="fill: #59616b; opacity: 0.55; stroke: #fbf8f1; stroke-width: 0.3; stroke-linejoin: miter"/>
   </g>
   <g id="patch_40">
    <path d="M 181.557938 191.554406 
L 185.324438 191.554406 
L 185.324438 186.00173 
L 181.557938 186.00173 
z
" clip-path="url(#peef924615f)" style="fill: #59616b; opacity: 0.55; stroke: #fbf8f1; stroke-width: 0.3; stroke-linejoin: miter"/>
   </g>
   <g id="patch_41">
    <path d="M 185.324438 191.554406 
L 189.090938 191.554406 
L 189.090938 190.761167 
L 185.324438 190.761167 
z
" clip-path="url(#peef924615f)" style="fill: #59616b; opacity: 0.55; stroke: #fbf8f1; stroke-width: 0.3; stroke-linejoin: miter"/>
   </g>
   <g id="patch_42">
    <path d="M 189.090938 191.554406 
L 192.857438 191.554406 
L 192.857438 189.967927 
L 189.090938 189.967927 
z
" clip-path="url(#peef924615f)" style="fill: #59616b; opacity: 0.55; stroke: #fbf8f1; stroke-width: 0.3; stroke-linejoin: miter"/>
   </g>
   <g id="patch_43">
    <path d="M 192.857438 191.554406 
L 196.623938 191.554406 
L 196.623938 191.554406 
L 192.857438 191.554406 
z
" clip-path="url(#peef924615f)" style="fill: #59616b; opacity: 0.55; stroke: #fbf8f1; stroke-width: 0.3; stroke-linejoin: miter"/>
   </g>
   <g id="patch_44">
    <path d="M 196.623938 191.554406 
L 200.390438 191.554406 
L 200.390438 189.967927 
L 196.623938 189.967927 
z
" clip-path="url(#peef924615f)" style="fill: #59616b; opacity: 0.55; stroke: #fbf8f1; stroke-width: 0.3; stroke-linejoin: miter"/>
   </g>
   <g id="patch_45">
    <path d="M 200.390438 191.554406 
L 204.156938 191.554406 
L 204.156938 191.554406 
L 200.390438 191.554406 
z
" clip-path="url(#peef924615f)" style="fill: #59616b; opacity: 0.55; stroke: #fbf8f1; stroke-width: 0.3; stroke-linejoin: miter"/>
   </g>
   <g id="patch_46">
    <path d="M 204.156938 191.554406 
L 207.923438 191.554406 
L 207.923438 190.761167 
L 204.156938 190.761167 
z
" clip-path="url(#peef924615f)" style="fill: #59616b; opacity: 0.55; stroke: #fbf8f1; stroke-width: 0.3; stroke-linejoin: miter"/>
   </g>
   <g id="patch_47">
    <path d="M 207.923438 191.554406 
L 211.689938 191.554406 
L 211.689938 189.967927 
L 207.923438 189.967927 
z
" clip-path="url(#peef924615f)" style="fill: #59616b; opacity: 0.55; stroke: #fbf8f1; stroke-width: 0.3; stroke-linejoin: miter"/>
   </g>
   <g id="patch_48">
    <path d="M 211.689938 191.554406 
L 215.456438 191.554406 
L 215.456438 189.174688 
L 211.689938 189.174688 
z
" clip-path="url(#peef924615f)" style="fill: #59616b; opacity: 0.55; stroke: #fbf8f1; stroke-width: 0.3; stroke-linejoin: miter"/>
   </g>
   <g id="patch_49">
    <path d="M 215.456438 191.554406 
L 219.222938 191.554406 
L 219.222938 190.761167 
L 215.456438 190.761167 
z
" clip-path="url(#peef924615f)" style="fill: #59616b; opacity: 0.55; stroke: #fbf8f1; stroke-width: 0.3; stroke-linejoin: miter"/>
   </g>
   <g id="patch_50">
    <path d="M 219.222938 191.554406 
L 222.989438 191.554406 
L 222.989438 191.554406 
L 219.222938 191.554406 
z
" clip-path="url(#peef924615f)" style="fill: #59616b; opacity: 0.55; stroke: #fbf8f1; stroke-width: 0.3; stroke-linejoin: miter"/>
   </g>
   <g id="patch_51">
    <path d="M 222.989438 191.554406 
L 226.755938 191.554406 
L 226.755938 191.554406 
L 222.989438 191.554406 
z
" clip-path="url(#peef924615f)" style="fill: #59616b; opacity: 0.55; stroke: #fbf8f1; stroke-width: 0.3; stroke-linejoin: miter"/>
   </g>
   <g id="patch_52">
    <path d="M 226.755938 191.554406 
L 230.522438 191.554406 
L 230.522438 191.554406 
L 226.755938 191.554406 
z
" clip-path="url(#peef924615f)" style="fill: #59616b; opacity: 0.55; stroke: #fbf8f1; stroke-width: 0.3; stroke-linejoin: miter"/>
   </g>
   <g id="patch_53">
    <path d="M 230.522438 191.554406 
L 234.288938 191.554406 
L 234.288938 191.554406 
L 230.522438 191.554406 
z
" clip-path="url(#peef924615f)" style="fill: #59616b; opacity: 0.55; stroke: #fbf8f1; stroke-width: 0.3; stroke-linejoin: miter"/>
   </g>
   <g id="patch_54">
    <path d="M 234.288938 191.554406 
L 238.055438 191.554406 
L 238.055438 189.967927 
L 234.288938 189.967927 
z
" clip-path="url(#peef924615f)" style="fill: #59616b; opacity: 0.55; stroke: #fbf8f1; stroke-width: 0.3; stroke-linejoin: miter"/>
   </g>
   <g id="patch_55">
    <path d="M 238.055438 191.554406 
L 241.821938 191.554406 
L 241.821938 190.761167 
L 238.055438 190.761167 
z
" clip-path="url(#peef924615f)" style="fill: #59616b; opacity: 0.55; stroke: #fbf8f1; stroke-width: 0.3; stroke-linejoin: miter"/>
   </g>
   <g id="patch_56">
    <path d="M 241.821938 191.554406 
L 245.588438 191.554406 
L 245.588438 191.554406 
L 241.821938 191.554406 
z
" clip-path="url(#peef924615f)" style="fill: #59616b; opacity: 0.55; stroke: #fbf8f1; stroke-width: 0.3; stroke-linejoin: miter"/>
   </g>
   <g id="patch_57">
    <path d="M 245.588438 191.554406 
L 249.354938 191.554406 
L 249.354938 191.554406 
L 245.588438 191.554406 
z
" clip-path="url(#peef924615f)" style="fill: #59616b; opacity: 0.55; stroke: #fbf8f1; stroke-width: 0.3; stroke-linejoin: miter"/>
   </g>
   <g id="patch_58">
    <path d="M 249.354938 191.554406 
L 253.121438 191.554406 
L 253.121438 191.554406 
L 249.354938 191.554406 
z
" clip-path="url(#peef924615f)" style="fill: #59616b; opacity: 0.55; stroke: #fbf8f1; stroke-width: 0.3; stroke-linejoin: miter"/>
   </g>
   <g id="patch_59">
    <path d="M 253.121438 191.554406 
L 256.887938 191.554406 
L 256.887938 191.554406 
L 253.121438 191.554406 
z
" clip-path="url(#peef924615f)" style="fill: #59616b; opacity: 0.55; stroke: #fbf8f1; stroke-width: 0.3; stroke-linejoin: miter"/>
   </g>
   <g id="patch_60">
    <path d="M 256.887938 191.554406 
L 260.654438 191.554406 
L 260.654438 191.554406 
L 256.887938 191.554406 
z
" clip-path="url(#peef924615f)" style="fill: #59616b; opacity: 0.55; stroke: #fbf8f1; stroke-width: 0.3; stroke-linejoin: miter"/>
   </g>
   <g id="patch_61">
    <path d="M 260.654438 191.554406 
L 264.420938 191.554406 
L 264.420938 191.554406 
L 260.654438 191.554406 
z
" clip-path="url(#peef924615f)" style="fill: #59616b; opacity: 0.55; stroke: #fbf8f1; stroke-width: 0.3; stroke-linejoin: miter"/>
   </g>
   <g id="patch_62">
    <path d="M 264.420938 191.554406 
L 268.187438 191.554406 
L 268.187438 191.554406 
L 264.420938 191.554406 
z
" clip-path="url(#peef924615f)" style="fill: #59616b; opacity: 0.55; stroke: #fbf8f1; stroke-width: 0.3; stroke-linejoin: miter"/>
   </g>
   <g id="patch_63">
    <path d="M 268.187438 191.554406 
L 271.953938 191.554406 
L 271.953938 191.554406 
L 268.187438 191.554406 
z
" clip-path="url(#peef924615f)" style="fill: #59616b; opacity: 0.55; stroke: #fbf8f1; stroke-width: 0.3; stroke-linejoin: miter"/>
   </g>
   <g id="patch_64">
    <path d="M 271.953938 191.554406 
L 275.720438 191.554406 
L 275.720438 191.554406 
L 271.953938 191.554406 
z
" clip-path="url(#peef924615f)" style="fill: #59616b; opacity: 0.55; stroke: #fbf8f1; stroke-width: 0.3; stroke-linejoin: miter"/>
   </g>
   <g id="patch_65">
    <path d="M 275.720438 191.554406 
L 279.486938 191.554406 
L 279.486938 190.761167 
L 275.720438 190.761167 
z
" clip-path="url(#peef924615f)" style="fill: #59616b; opacity: 0.55; stroke: #fbf8f1; stroke-width: 0.3; stroke-linejoin: miter"/>
   </g>
   <g id="patch_66">
    <path d="M 279.486938 191.554406 
L 283.253438 191.554406 
L 283.253438 190.761167 
L 279.486938 190.761167 
z
" clip-path="url(#peef924615f)" style="fill: #59616b; opacity: 0.55; stroke: #fbf8f1; stroke-width: 0.3; stroke-linejoin: miter"/>
   </g>
   <g id="patch_67">
    <path d="M 283.253438 191.554406 
L 287.019938 191.554406 
L 287.019938 191.554406 
L 283.253438 191.554406 
z
" clip-path="url(#peef924615f)" style="fill: #59616b; opacity: 0.55; stroke: #fbf8f1; stroke-width: 0.3; stroke-linejoin: miter"/>
   </g>
   <g id="patch_68">
    <path d="M 287.019938 191.554406 
L 290.786438 191.554406 
L 290.786438 191.554406 
L 287.019938 191.554406 
z
" clip-path="url(#peef924615f)" style="fill: #59616b; opacity: 0.55; stroke: #fbf8f1; stroke-width: 0.3; stroke-linejoin: miter"/>
   </g>
   <g id="patch_69">
    <path d="M 290.786438 191.554406 
L 294.552938 191.554406 
L 294.552938 191.554406 
L 290.786438 191.554406 
z
" clip-path="url(#peef924615f)" style="fill: #59616b; opacity: 0.55; stroke: #fbf8f1; stroke-width: 0.3; stroke-linejoin: miter"/>
   </g>
   <g id="patch_70">
    <path d="M 294.552938 191.554406 
L 298.319438 191.554406 
L 298.319438 191.554406 
L 294.552938 191.554406 
z
" clip-path="url(#peef924615f)" style="fill: #59616b; opacity: 0.55; stroke: #fbf8f1; stroke-width: 0.3; stroke-linejoin: miter"/>
   </g>
   <g id="patch_71">
    <path d="M 298.319438 191.554406 
L 302.085938 191.554406 
L 302.085938 191.554406 
L 298.319438 191.554406 
z
" clip-path="url(#peef924615f)" style="fill: #59616b; opacity: 0.55; stroke: #fbf8f1; stroke-width: 0.3; stroke-linejoin: miter"/>
   </g>
   <g id="patch_72">
    <path d="M 302.085938 191.554406 
L 305.852438 191.554406 
L 305.852438 190.761167 
L 302.085938 190.761167 
z
" clip-path="url(#peef924615f)" style="fill: #59616b; opacity: 0.55; stroke: #fbf8f1; stroke-width: 0.3; stroke-linejoin: miter"/>
   </g>
   <g id="patch_73">
    <path d="M 305.852438 191.554406 
L 309.618938 191.554406 
L 309.618938 191.554406 
L 305.852438 191.554406 
z
" clip-path="url(#peef924615f)" style="fill: #59616b; opacity: 0.55; stroke: #fbf8f1; stroke-width: 0.3; stroke-linejoin: miter"/>
   </g>
   <g id="patch_74">
    <path d="M 309.618938 191.554406 
L 313.385438 191.554406 
L 313.385438 191.554406 
L 309.618938 191.554406 
z
" clip-path="url(#peef924615f)" style="fill: #59616b; opacity: 0.55; stroke: #fbf8f1; stroke-width: 0.3; stroke-linejoin: miter"/>
   </g>
   <g id="patch_75">
    <path d="M 32.153438 191.554406 
L 32.153438 14.146406 
" style="fill: none; stroke: #d9d2c4; stroke-width: 0.8; stroke-linejoin: miter; stroke-linecap: square"/>
   </g>
   <g id="patch_76">
    <path d="M 32.153438 191.554406 
L 333.473438 191.554406 
" style="fill: none; stroke: #d9d2c4; stroke-width: 0.8; stroke-linejoin: miter; stroke-linecap: square"/>
   </g>
   <g id="line2d_17">
    <path d="M 139.394524 191.554406 
L 139.394524 14.146406 
" clip-path="url(#peef924615f)" style="fill: none; stroke-dasharray: 4.8,3.6; stroke-dashoffset: 0; stroke: #1d2126; stroke-width: 1.2"/>
   </g>
   <g id="text_19">
    <g id="patch_77">
     <path d="M 250.363838 125.111569 
L 324.433838 125.111569 
Q 327.583838 125.111569 327.583838 121.961569 
L 327.583838 94.160006 
Q 327.583838 91.010006 324.433838 91.010006 
L 250.363838 91.010006 
Q 247.213838 91.010006 247.213838 94.160006 
L 247.213838 121.961569 
Q 247.213838 125.111569 250.363838 125.111569 
z
" style="fill: #fbf8f1; stroke: #d9d2c4; stroke-width: 0.8; stroke-linejoin: miter"/>
    </g>
    <!-- $T_0 = 0.0710$ -->
    <g style="fill: #1d2126" transform="translate(282.313838 100.333444) scale(0.09 -0.09)">
     <defs>
      <path id="STIXGeneral-Italic-54" d="M 4051 4179 
L 3770 3130 
L 3661 3142 
Q 3680 3302 3680 3437 
Q 3680 3955 3034 3955 
L 2662 3955 
L 1786 819 
Q 1696 506 1696 397 
Q 1696 250 1766 195 
Q 1837 141 2035 122 
L 2259 102 
L 2259 0 
L 416 0 
L 416 102 
Q 749 134 889 230 
Q 1030 326 1101 582 
L 2016 3955 
Q 1254 3955 988 3817 
Q 723 3680 493 3162 
L 378 3187 
L 646 4179 
L 4051 4179 
z
" transform="scale(0.015625)"/>
      <path id="STIXGeneral-Regular-30" d="M 3046 2112 
Q 3046 1683 2963 1302 
Q 2880 922 2717 602 
Q 2554 282 2266 96 
Q 1978 -90 1600 -90 
Q 1210 -90 915 108 
Q 621 307 461 640 
Q 301 973 227 1350 
Q 154 1728 154 2150 
Q 154 2746 301 3222 
Q 448 3699 790 4012 
Q 1133 4326 1626 4326 
Q 2253 4326 2649 3712 
Q 3046 3098 3046 2112 
z
M 2432 2080 
Q 2432 3091 2217 3625 
Q 2003 4160 1587 4160 
Q 1190 4160 979 3622 
Q 768 3085 768 2106 
Q 768 1120 979 598 
Q 1190 77 1600 77 
Q 2003 77 2217 598 
Q 2432 1120 2432 2080 
z
" transform="scale(0.015625)"/>
      <path id="STIXGeneral-Regular-3d" d="M 4077 2048 
L 307 2048 
L 307 2470 
L 4077 2470 
L 4077 2048 
z
M 4077 768 
L 307 768 
L 307 1190 
L 4077 1190 
L 4077 768 
z
" transform="scale(0.015625)"/>
      <path id="STIXGeneral-Regular-2e" d="M 1158 275 
Q 1158 134 1052 32 
Q 947 -70 800 -70 
Q 653 -70 550 32 
Q 448 134 448 281 
Q 448 429 553 534 
Q 659 640 806 640 
Q 947 640 1052 531 
Q 1158 422 1158 275 
z
" transform="scale(0.015625)"/>
      <path id="STIXGeneral-Regular-37" d="M 2874 4134 
L 1517 -51 
L 1101 -51 
L 2368 3763 
L 992 3763 
Q 717 3763 582 3667 
Q 448 3571 243 3238 
L 128 3296 
L 512 4237 
L 2874 4237 
L 2874 4134 
z
" transform="scale(0.015625)"/>
      <path id="STIXGeneral-Regular-31" d="M 2522 0 
L 755 0 
L 755 96 
Q 1107 115 1235 227 
Q 1363 339 1363 608 
L 1363 3482 
Q 1363 3795 1171 3795 
Q 1082 3795 883 3718 
L 710 3654 
L 710 3744 
L 1856 4326 
L 1914 4307 
L 1914 486 
Q 1914 275 2042 185 
Q 2170 96 2522 96 
L 2522 0 
z
" transform="scale(0.015625)"/>
     </defs>
     <use xlink:href="#STIXGeneral-Italic-54" transform="translate(0 0.40625)"/>
     <use xlink:href="#STIXGeneral-Regular-30" transform="translate(55.599991 -12.821875) scale(0.7)"/>
     <use xlink:href="#STIXGeneral-Regular-3d" transform="translate(109.449352 0.40625)"/>
     <use xlink:href="#STIXGeneral-Regular-30" transform="translate(192.389333 0.40625)"/>
     <use xlink:href="#STIXGeneral-Regular-2e" transform="translate(242.389317 0.40625)"/>
     <use xlink:href="#STIXGeneral-Regular-30" transform="translate(267.389302 0.40625)"/>
     <use xlink:href="#STIXGeneral-Regular-37" transform="translate(317.389287 0.40625)"/>
     <use xlink:href="#STIXGeneral-Regular-31" transform="translate(367.389272 0.40625)"/>
     <use xlink:href="#STIXGeneral-Regular-30" transform="translate(417.389256 0.40625)"/>
    </g>
    <!-- $\hat p = 0.0460$ -->
    <g style="fill: #1d2126" transform="translate(285.913838 110.197444) scale(0.09 -0.09)">
     <defs>
      <path id="STIXGeneral-Regular-302" d="M -480 3245 
L -698 3245 
L -1478 3904 
L -2253 3245 
L -2470 3245 
L -1677 4314 
L -1280 4314 
L -480 3245 
z
" transform="scale(0.015625)"/>
      <path id="STIXGeneral-Italic-70" d="M 1376 2739 
L 1190 2099 
Q 1670 2822 2285 2822 
Q 2637 2822 2829 2611 
Q 3021 2400 3021 2022 
Q 3021 1235 2422 582 
Q 1824 -70 1120 -70 
Q 890 -70 678 38 
Q 422 -1018 422 -1024 
Q 422 -1126 508 -1168 
Q 595 -1210 819 -1210 
L 819 -1312 
L -480 -1312 
L -480 -1210 
Q -275 -1203 -188 -1120 
Q -102 -1037 -45 -806 
L 691 1958 
Q 794 2330 794 2413 
Q 794 2586 512 2586 
L 371 2586 
L 358 2682 
L 1357 2822 
Q 1389 2822 1389 2797 
Q 1382 2765 1376 2739 
z
M 2445 2003 
Q 2445 2285 2352 2416 
Q 2259 2547 2048 2547 
Q 1798 2547 1548 2329 
Q 1299 2112 1184 1818 
Q 1043 1453 905 953 
Q 768 454 768 294 
Q 768 186 854 118 
Q 941 51 1075 51 
Q 1574 51 2003 659 
Q 2445 1274 2445 2003 
z
" transform="scale(0.015625)"/>
      <path id="STIXGeneral-Regular-34" d="M 3027 1069 
L 2368 1069 
L 2368 0 
L 1869 0 
L 1869 1069 
L 77 1069 
L 77 1478 
L 2086 4326 
L 2368 4326 
L 2368 1478 
L 3027 1478 
L 3027 1069 
z
M 1869 1478 
L 1869 3674 
L 333 1478 
L 1869 1478 
z
" transform="scale(0.015625)"/>
      <path id="STIXGeneral-Regular-36" d="M 2854 4378 
L 2867 4275 
Q 2112 4154 1606 3664 
Q 1101 3174 973 2451 
Q 1344 2739 1786 2739 
Q 2349 2739 2672 2380 
Q 2995 2022 2995 1402 
Q 2995 774 2669 378 
Q 2291 -90 1651 -90 
Q 870 -90 518 557 
Q 218 1107 218 1786 
Q 218 2835 915 3552 
Q 1312 3962 1731 4131 
Q 2150 4301 2854 4378 
z
M 2419 1203 
Q 2419 2445 1555 2445 
Q 1235 2445 1024 2275 
Q 813 2106 813 1702 
Q 813 954 1046 522 
Q 1280 90 1722 90 
Q 2061 90 2240 394 
Q 2419 698 2419 1203 
z
" transform="scale(0.015625)"/>
     </defs>
     <use xlink:href="#STIXGeneral-Regular-302" transform="translate(57.265625 6.59375)"/>
     <use xlink:href="#STIXGeneral-Italic-70" transform="translate(0 0.703125)"/>
     <use xlink:href="#STIXGeneral-Regular-3d" transform="translate(69.127496 0.703125)"/>
     <use xlink:href="#STIXGeneral-Regular-30" transform="translate(152.067477 0.703125)"/>
     <use xlink:href="#STIXGeneral-Regular-2e" transform="translate(202.067462 0.703125)"/>
     <use xlink:href="#STIXGeneral-Regular-30" transform="translate(227.067447 0.703125)"/>
     <use xlink:href="#STIXGeneral-Regular-34" transform="translate(277.067432 0.703125)"/>
     <use xlink:href="#STIXGeneral-Regular-36" transform="translate(327.067416 0.703125)"/>
     <use xlink:href="#STIXGeneral-Regular-30" transform="translate(377.067401 0.703125)"/>
    </g>
    <!-- reject $H_0$ at $\alpha = 0.05$ -->
    <g style="fill: #1d2126" transform="translate(250.363838 119.801569) scale(0.09 -0.09)">
     <defs>
      <path id="STIXTwoText-6a" d="M 70 -1504 
Q -243 -1504 -425 -1379 
Q -608 -1254 -608 -1043 
Q -608 -922 -531 -848 
Q -454 -774 -326 -774 
Q -211 -774 -137 -841 
Q -64 -909 -6 -998 
Q 51 -1088 121 -1155 
Q 192 -1222 301 -1222 
Q 538 -1222 589 -969 
Q 640 -717 640 -205 
L 640 2387 
Q 640 2598 585 2665 
Q 531 2733 358 2733 
Q 282 2733 224 2723 
Q 166 2714 166 2714 
L 166 2906 
L 998 3085 
L 1171 3085 
L 1171 -13 
Q 1171 -518 1052 -848 
Q 934 -1178 691 -1341 
Q 448 -1504 70 -1504 
z
M 890 3584 
Q 730 3584 624 3693 
Q 518 3802 518 3949 
Q 518 4096 617 4201 
Q 717 4307 890 4307 
Q 1056 4307 1161 4201 
Q 1267 4096 1267 3949 
Q 1267 3802 1161 3693 
Q 1056 3584 890 3584 
z
" transform="scale(0.015625)"/>
      <path id="STIXGeneral-Italic-48" d="M 4922 4179 
L 4922 4077 
Q 4640 4026 4550 3949 
Q 4461 3872 4384 3603 
L 3539 525 
Q 3520 448 3520 371 
Q 3520 237 3616 185 
Q 3712 134 4026 102 
L 4026 0 
L 2272 0 
L 2272 102 
Q 2598 128 2729 237 
Q 2861 346 2925 595 
L 3334 2086 
L 1510 2086 
L 1088 525 
Q 1069 461 1069 384 
Q 1069 243 1149 192 
Q 1229 141 1517 102 
L 1517 0 
L -51 0 
L -51 102 
Q 211 128 310 230 
Q 410 333 499 653 
L 1254 3405 
Q 1331 3699 1331 3814 
Q 1331 3949 1238 3997 
Q 1146 4045 838 4077 
L 838 4179 
L 2573 4179 
L 2573 4077 
Q 2285 4058 2141 3955 
Q 1997 3853 1933 3622 
L 1587 2355 
L 3411 2355 
L 3706 3405 
Q 3795 3738 3795 3808 
Q 3795 3930 3692 3994 
Q 3590 4058 3334 4077 
L 3334 4179 
L 4922 4179 
z
" transform="scale(0.015625)"/>
      <path id="STIXGeneral-Italic-3b1" d="M 3514 2739 
L 2605 1069 
L 2605 954 
Q 2605 704 2662 512 
Q 2720 320 2822 320 
Q 2970 320 3149 794 
L 3251 749 
Q 3014 -58 2605 -58 
Q 2291 -58 2272 614 
Q 1709 -70 1030 -70 
Q 589 -70 381 198 
Q 173 467 173 902 
Q 173 1293 329 1673 
Q 486 2054 755 2330 
Q 973 2547 1270 2684 
Q 1568 2822 1862 2822 
Q 2246 2822 2457 2595 
Q 2669 2368 2669 2061 
L 2963 2739 
L 3514 2739 
z
M 2298 1741 
Q 2298 2688 1805 2688 
Q 1472 2688 1085 2099 
Q 698 1510 698 800 
Q 698 493 806 278 
Q 915 64 1139 64 
Q 1606 64 2195 1286 
Q 2202 1325 2230 1411 
Q 2259 1498 2278 1581 
Q 2298 1664 2298 1741 
z
" transform="scale(0.015625)"/>
      <path id="STIXGeneral-Regular-35" d="M 2803 4358 
L 2573 3814 
Q 2534 3731 2400 3731 
L 1158 3731 
L 902 3187 
Q 1606 3053 1920 2896 
Q 2234 2739 2502 2368 
Q 2726 2061 2726 1555 
Q 2726 1094 2576 780 
Q 2426 467 2099 224 
Q 1664 -90 1011 -90 
Q 646 -90 422 19 
Q 198 128 198 307 
Q 198 550 486 550 
Q 717 550 960 352 
Q 1210 147 1414 147 
Q 1747 147 2012 480 
Q 2278 813 2278 1229 
Q 2278 1843 1850 2189 
Q 1293 2637 486 2637 
Q 410 2637 410 2688 
L 416 2720 
L 1114 4237 
L 2438 4237 
Q 2547 4237 2608 4269 
Q 2669 4301 2746 4403 
L 2803 4358 
z
" transform="scale(0.015625)"/>
     </defs>
     <use xlink:href="#STIXTwoText-72" transform="translate(0 0.203125)"/>
     <use xlink:href="#STIXTwoText-65" transform="translate(37.999985 0.203125)"/>
     <use xlink:href="#STIXTwoText-6a" transform="translate(84.399979 0.203125)"/>
     <use xlink:href="#STIXTwoText-65" transform="translate(110.699966 0.203125)"/>
     <use xlink:href="#STIXTwoText-63" transform="translate(157.09996 0.203125)"/>
     <use xlink:href="#STIXTwoText-74" transform="translate(201.699951 0.203125)"/>
     <use xlink:href="#STIXTwoText-20" transform="translate(233.199936 0.203125)"/>
     <use xlink:href="#STIXGeneral-Italic-48" transform="translate(256.699921 0.203125)"/>
     <use xlink:href="#STIXGeneral-Regular-30" transform="translate(328.899902 -13.025) scale(0.7)"/>
     <use xlink:href="#STIXTwoText-20" transform="translate(368.309267 0.203125)"/>
     <use xlink:href="#STIXTwoText-61" transform="translate(391.809251 0.203125)"/>
     <use xlink:href="#STIXTwoText-74" transform="translate(439.809236 0.203125)"/>
     <use xlink:href="#STIXTwoText-20" transform="translate(471.309221 0.203125)"/>
     <use xlink:href="#STIXGeneral-Italic-3b1" transform="translate(494.809206 0.203125)"/>
     <use xlink:href="#STIXGeneral-Regular-3d" transform="translate(564.449199 0.203125)"/>
     <use xlink:href="#STIXGeneral-Regular-30" transform="translate(647.38918 0.203125)"/>
     <use xlink:href="#STIXGeneral-Regular-2e" transform="translate(697.389165 0.203125)"/>
     <use xlink:href="#STIXGeneral-Regular-30" transform="translate(722.389149 0.203125)"/>
     <use xlink:href="#STIXGeneral-Regular-35" transform="translate(772.389134 0.203125)"/>
    </g>
   </g>
   <g id="text_20">
    <!-- The permutation null -->
    <g style="fill: #1d2126" transform="translate(139.521641 8.146406) scale(0.095 -0.095)">
     <defs>
      <path id="STIXTwoText-54" d="M 2861 0 
L 1005 0 
L 1005 192 
Q 1274 192 1408 233 
Q 1542 275 1587 412 
Q 1632 550 1632 838 
L 1632 3917 
L 1222 3917 
Q 870 3917 694 3846 
Q 518 3776 441 3590 
Q 365 3405 294 3053 
L 96 3053 
L 166 4205 
L 3706 4205 
L 3757 3053 
L 3558 3053 
Q 3488 3405 3411 3590 
Q 3334 3776 3161 3846 
Q 2989 3917 2630 3917 
L 2227 3917 
L 2227 838 
Q 2227 550 2272 412 
Q 2317 275 2451 233 
Q 2586 192 2861 192 
L 2861 0 
z
" transform="scale(0.015625)"/>
     </defs>
     <use xlink:href="#STIXTwoText-54"/>
     <use xlink:href="#STIXTwoText-68" transform="translate(60.299988 0)"/>
     <use xlink:href="#STIXTwoText-65" transform="translate(117.999985 0)"/>
     <use xlink:href="#STIXTwoText-20" transform="translate(164.399979 0)"/>
     <use xlink:href="#STIXTwoText-70" transform="translate(187.899963 0)"/>
     <use xlink:href="#STIXTwoText-65" transform="translate(241.59996 0)"/>
     <use xlink:href="#STIXTwoText-72" transform="translate(287.999954 0)"/>
     <use xlink:href="#STIXTwoText-6d" transform="translate(325.999939 0)"/>
     <use xlink:href="#STIXTwoText-75" transform="translate(411.199921 0)"/>
     <use xlink:href="#STIXTwoText-74" transform="translate(468.199905 0)"/>
     <use xlink:href="#STIXTwoText-61" transform="translate(499.69989 0)"/>
     <use xlink:href="#STIXTwoText-74" transform="translate(547.699875 0)"/>
     <use xlink:href="#STIXTwoText-69" transform="translate(579.19986 0)"/>
     <use xlink:href="#STIXTwoText-6f" transform="translate(607.699844 0)"/>
     <use xlink:href="#STIXTwoText-6e" transform="translate(659.099838 0)"/>
     <use xlink:href="#STIXTwoText-20" transform="translate(716.699829 0)"/>
     <use xlink:href="#STIXTwoText-6e" transform="translate(740.199814 0)"/>
     <use xlink:href="#STIXTwoText-75" transform="translate(797.799805 0)"/>
     <use xlink:href="#STIXTwoText-6c" transform="translate(854.799789 0)"/>
     <use xlink:href="#STIXTwoText-6c" transform="translate(883.099777 0)"/>
    </g>
   </g>
   <g id="line2d_18">
    <path d="M 141.488079 191.554406 
L 141.488079 14.146406 
" clip-path="url(#peef924615f)" style="fill: none; stroke: #8a4c1f; stroke-width: 2.2; stroke-linecap: square"/>
   </g>
   <g id="legend_1">
    <g id="patch_78">
     <path d="M 245.993438 26.993906 
L 261.993438 26.993906 
L 261.993438 21.393906 
L 245.993438 21.393906 
z
" style="fill: #59616b; opacity: 0.55; stroke: #fbf8f1; stroke-width: 0.3; stroke-linejoin: miter"/>
    </g>
    <g id="text_21">
     <!-- permutation null -->
     <g style="fill: #1d2126" transform="translate(268.393438 26.993906) scale(0.08 -0.08)">
      <use xlink:href="#STIXTwoText-70"/>
      <use xlink:href="#STIXTwoText-65" transform="translate(53.699997 0)"/>
      <use xlink:href="#STIXTwoText-72" transform="translate(100.099991 0)"/>
      <use xlink:href="#STIXTwoText-6d" transform="translate(138.099976 0)"/>
      <use xlink:href="#STIXTwoText-75" transform="translate(223.299957 0)"/>
      <use xlink:href="#STIXTwoText-74" transform="translate(280.299942 0)"/>
      <use xlink:href="#STIXTwoText-61" transform="translate(311.799927 0)"/>
      <use xlink:href="#STIXTwoText-74" transform="translate(359.799911 0)"/>
      <use xlink:href="#STIXTwoText-69" transform="translate(391.299896 0)"/>
      <use xlink:href="#STIXTwoText-6f" transform="translate(419.799881 0)"/>
      <use xlink:href="#STIXTwoText-6e" transform="translate(471.199875 0)"/>
      <use xlink:href="#STIXTwoText-20" transform="translate(528.799866 0)"/>
      <use xlink:href="#STIXTwoText-6e" transform="translate(552.29985 0)"/>
      <use xlink:href="#STIXTwoText-75" transform="translate(609.899841 0)"/>
      <use xlink:href="#STIXTwoText-6c" transform="translate(666.899826 0)"/>
      <use xlink:href="#STIXTwoText-6c" transform="translate(695.199814 0)"/>
     </g>
    </g>
    <g id="line2d_19">
     <path d="M 245.993438 35.601406 
L 253.993438 35.601406 
L 261.993438 35.601406 
" style="fill: none; stroke-dasharray: 4.8,3.6; stroke-dashoffset: 0; stroke: #1d2126; stroke-width: 1.2"/>
    </g>
    <g id="text_22">
     <!-- $c_\alpha$ ($\alpha=0.05$) -->
     <g style="fill: #1d2126" transform="translate(268.393438 38.401406) scale(0.08 -0.08)">
      <defs>
       <path id="STIXGeneral-Italic-63" d="M 2240 685 
L 2342 621 
Q 2048 250 1769 90 
Q 1491 -70 1133 -70 
Q 678 -70 435 179 
Q 192 429 192 915 
Q 192 1344 409 1744 
Q 627 2144 979 2432 
Q 1472 2822 2048 2822 
Q 2342 2822 2531 2675 
Q 2720 2528 2720 2304 
Q 2720 2176 2630 2086 
Q 2541 1997 2413 1997 
Q 2285 1997 2224 2070 
Q 2163 2144 2163 2253 
Q 2163 2310 2211 2403 
Q 2259 2496 2259 2560 
Q 2259 2688 2022 2688 
Q 1619 2688 1325 2381 
Q 742 1766 742 890 
Q 742 544 889 352 
Q 1037 160 1312 160 
Q 1562 160 1766 281 
Q 1971 403 2240 685 
z
" transform="scale(0.015625)"/>
       <path id="STIXTwoText-28" d="M 1997 -1011 
L 1894 -1190 
Q 1120 -794 656 -48 
Q 192 698 192 1754 
Q 192 2803 656 3542 
Q 1120 4282 1894 4672 
L 1997 4506 
Q 1299 4038 1008 3372 
Q 717 2707 717 1754 
Q 717 787 1008 118 
Q 1299 -550 1997 -1011 
z
" transform="scale(0.015625)"/>
       <path id="STIXTwoText-29" d="M 301 -1190 
L 198 -1011 
Q 902 -550 1190 118 
Q 1478 787 1478 1754 
Q 1478 2707 1190 3372 
Q 902 4038 198 4506 
L 301 4672 
Q 1075 4282 1539 3542 
Q 2003 2803 2003 1754 
Q 2003 698 1539 -48 
Q 1075 -794 301 -1190 
z
" transform="scale(0.015625)"/>
      </defs>
      <use xlink:href="#STIXGeneral-Italic-63"/>
      <use xlink:href="#STIXGeneral-Italic-3b1" transform="translate(44.399994 -13.228125) scale(0.7)"/>
      <use xlink:href="#STIXTwoText-20" transform="translate(87.449367 0)"/>
      <use xlink:href="#STIXTwoText-28" transform="translate(110.949352 0)"/>
      <use xlink:href="#STIXGeneral-Italic-3b1" transform="translate(145.249339 0)"/>
      <use xlink:href="#STIXGeneral-Regular-3d" transform="translate(214.889333 0)"/>
      <use xlink:href="#STIXGeneral-Regular-30" transform="translate(297.829314 0)"/>
      <use xlink:href="#STIXGeneral-Regular-2e" transform="translate(347.829298 0)"/>
      <use xlink:href="#STIXGeneral-Regular-30" transform="translate(372.829283 0)"/>
      <use xlink:href="#STIXGeneral-Regular-35" transform="translate(422.829268 0)"/>
      <use xlink:href="#STIXTwoText-29" transform="translate(472.829253 0)"/>
     </g>
    </g>
    <g id="line2d_20">
     <path d="M 245.993438 47.008906 
L 253.993438 47.008906 
L 261.993438 47.008906 
" style="fill: none; stroke: #8a4c1f; stroke-width: 2.2; stroke-linecap: square"/>
    </g>
    <g id="text_23">
     <!-- observed $T_0$ -->
     <g style="fill: #1d2126" transform="translate(268.393438 49.808906) scale(0.08 -0.08)">
      <defs>
       <path id="STIXTwoText-76" d="M 1696 -38 
L 1389 -38 
L 435 2374 
Q 352 2573 288 2672 
Q 224 2771 141 2806 
Q 58 2842 -83 2842 
L -83 3027 
L 1267 3027 
L 1267 2842 
Q 1082 2842 1008 2800 
Q 934 2758 934 2682 
Q 934 2618 953 2560 
Q 973 2502 998 2432 
L 1542 1005 
L 1664 621 
L 1702 621 
L 1837 1011 
L 2387 2458 
Q 2394 2483 2413 2537 
Q 2432 2592 2432 2669 
Q 2432 2778 2336 2810 
Q 2240 2842 2067 2842 
L 2067 3027 
L 3187 3027 
L 3187 2842 
Q 3002 2842 2902 2755 
Q 2803 2669 2707 2419 
L 1696 -38 
z
" transform="scale(0.015625)"/>
      </defs>
      <use xlink:href="#STIXTwoText-6f" transform="translate(0 0.40625)"/>
      <use xlink:href="#STIXTwoText-62" transform="translate(51.399994 0.40625)"/>
      <use xlink:href="#STIXTwoText-73" transform="translate(103.599991 0.40625)"/>
      <use xlink:href="#STIXTwoText-65" transform="translate(143.099976 0.40625)"/>
      <use xlink:href="#STIXTwoText-72" transform="translate(189.499969 0.40625)"/>
      <use xlink:href="#STIXTwoText-76" transform="translate(227.499954 0.40625)"/>
      <use xlink:href="#STIXTwoText-65" transform="translate(275.599945 0.40625)"/>
      <use xlink:href="#STIXTwoText-64" transform="translate(321.999939 0.40625)"/>
      <use xlink:href="#STIXTwoText-20" transform="translate(375.899933 0.40625)"/>
      <use xlink:href="#STIXGeneral-Italic-54" transform="translate(399.399918 0.40625)"/>
      <use xlink:href="#STIXGeneral-Regular-30" transform="translate(454.999908 -12.821875) scale(0.7)"/>
     </g>
    </g>
   </g>
  </g>
 </g>
 <defs>
  <clipPath id="peef924615f">
   <rect x="32.153438" y="14.146406" width="301.32" height="177.408"/>
  </clipPath>
 </defs>
</svg>
